<svg width="105" height="26" fill="none" xmlns="http://www.w3.org/2000/svg"><g clip-path="url(#clip0)" fill="#fff"><path d="M96.254 17.845c-4.66 0-8.45-3.786-8.45-8.439V.968h16.899v8.438c0 4.653-3.791 8.439-8.45 8.439zM89.338 2.502v6.904c0 3.807 3.102 6.905 6.915 6.905 3.811 0 6.913-3.098 6.913-6.905V2.502H89.339z"/><path d="M100.094 6.082h-7.681v1.534h1.05l-.532 4.252h1.548l.533-4.252h2.483l.533 4.252h1.548l-.532-4.252h1.05V6.082zM9.174 3.504c4.533 0 6.95 2.112 6.95 5.13 0 2.414-1.813 4.224-4.23 4.888v.06c3.777.936 5.137 3.139 5.137 5.462 0 3.32-2.418 5.583-6.95 5.583H.11v-.603c1.814 0 1.814 0 1.814-1.962V6.068c0-1.961 0-1.961-1.814-1.961v-.604h9.065zM7.361 13.46c2.72 0 3.777-1.81 3.777-4.677 0-2.565-1.057-4.677-2.87-4.677h-1.51v9.354h.603zm-.604.604v9.959h2.115c2.417 0 3.173-2.415 3.173-5.13 0-2.716-1.36-4.828-4.08-4.828H6.758v-.001zm11.481 3.17c0-5.13 4.23-7.997 8.007-7.997 3.475 0 6.617 1.508 5.71 6.639h-8.943c0 4.073 2.326 5.582 4.593 5.582 2.72 0 3.928-1.509 4.533-2.565h.302c-.604 3.017-2.72 6.035-6.497 6.035-4.986 0-7.706-3.62-7.706-7.694zm4.774-1.962h4.442c.514-2.052.937-5.432-1.36-5.432-1.722 0-2.961 1.6-3.082 5.432zm21.815-1.811c0-1.357-.906-1.81-1.813-1.81-.936 0-1.964.453-3.021 1.358v9.052c0 1.962 0 1.962 1.813 1.962v.604h-8.461v-.604c1.813 0 1.813 0 1.813-1.962v-9.505c0-1.508 0-1.508-1.511-1.508v-.453l6.194-1.358h.242l-.09 3.168h.06c1.148-1.961 3.324-3.168 5.53-3.168 2.024 0 4.08 1.207 4.08 4.527v8.298c0 1.962 0 1.962 1.812 1.962v.604h-7.856v-.604c1.208 0 1.208 0 1.208-1.962v-8.6zm16.618 7.998c2.72 0 3.928-1.51 4.532-2.566h.303c-.605 3.018-2.72 6.035-6.497 6.035-4.986 0-7.705-3.62-7.705-7.694 0-5.13 4.23-7.997 8.007-7.997 3.777 0 5.772 1.84 5.772 3.772 0 1.056-.483 2.112-2.296 2.112-1.511 0-1.844-.935-1.814-1.569.152-2.203 0-3.712-1.813-3.712-2.114 0-3.082 2.807-3.082 6.307 0 3.954 2.327 5.312 4.593 5.312zm17.223-7.998c0-1.357-.907-1.81-1.814-1.81-.936 0-1.964.453-3.021 1.358v9.052c0 1.962 0 1.962 1.813 1.962v.604h-8.46v-.604c1.813 0 1.813 0 1.813-1.962V4.711c0-1.51 0-1.51-1.511-1.51V2.75l6.104-1.358h.241v11.014h.06c1.149-1.961 3.324-3.168 5.53-3.168 2.025 0 4.08 1.207 4.08 4.527v8.298c0 1.962 0 1.962 1.814 1.962v.604h-7.858v-.604c1.209 0 1.209 0 1.209-1.962v-8.6z"/></g><defs><clipPath id="clip0"><path fill="#fff" transform="translate(.11 .517)" d="M0 0h104.688v25H0z"/></clipPath></defs></svg>