<svg width="118" height="26" fill="none" xmlns="http://www.w3.org/2000/svg"><g clip-path="url(#clip0)" fill-rule="evenodd" clip-rule="evenodd" fill="#fff"><path d="M14.592.689c-.114.133-.12.308-.137 3.857-.01 2.253-.04 3.717-.076 3.717-.032 0-.11-.056-.171-.125-.128-.144-.796-.583-1.28-.844-1.283-.689-3.478-1.05-5.025-.828-1.12.161-3.074.899-3.524 1.33a6.576 6.576 0 01-.565.42c-.42.286-1.85 1.755-1.85 1.9 0 .037-.159.315-.354.617-.582.902-.841 1.584-1.196 3.15-.278 1.226-.157 3.232.298 4.954.174.657 1 2.295 1.202 2.384.028.012.05.053.05.09 0 .234 1.134 1.445 1.944 2.078 2.19 1.71 5.532 2.22 8.063 1.231.679-.265 1.904-.928 2.21-1.197l.229-.2.03.762c.03.69.046.777.184.932l.152.172h1.393c1.278 0 1.405-.01 1.54-.128l.148-.127V13.56c0-9.937-.01-11.288-.094-11.373-.051-.053-.291-.207-.532-.343-.242-.135-.496-.298-.565-.363C15.862.733 14.875.357 14.592.69zM67.269.67c-.088.104-.103.298-.103 1.315 0 1.36-.005 1.346.515 1.697.182.123.385.275.45.338s.277.2.47.305c.193.105.544.331.779.502.561.408.894.42 1.08.04.137-.283.134-3.838-.005-4.122L70.36.549h-1.493c-1.368 0-1.502.01-1.598.121zm37.043-.076c-.891.12-2.396.6-3.153 1.005a3.394 3.394 0 01-.53.237c-.202.053-1.4.898-2.016 1.424-.808.69-2.119 2.225-2.42 2.836-.21.426-.516.971-.56 1-.08.052-.674 1.573-.82 2.098-.565 2.026-.564 2.016-.564 8.202v5.36l.151.441c.084.244.22.522.303.618.082.097.196.254.251.35.144.246.753.656 1.19.8.513.17 9.854.188 10.958.022 1.767-.265 3.952-1.166 5.171-2.132.207-.164.434-.323.504-.354.069-.032.389-.323.712-.647.323-.324.612-.6.642-.612.031-.012.274-.31.541-.662.268-.352.545-.71.62-.794.073-.085.238-.37.366-.634.128-.265.27-.526.317-.581.046-.056.221-.415.391-.8 1.268-2.88 1.312-6.815.109-9.742-.195-.475-.393-.908-.439-.963-.046-.055-.185-.314-.308-.576-.465-.984-2.044-2.84-3.016-3.541a25.707 25.707 0 01-.627-.473c-1.768-1.389-5.223-2.225-7.773-1.882zm2.382 4.58c1.366.378 2.461 1.55 2.82 3.019.166.678.137 4.927-.037 5.55-.141.503-.307.887-.482 1.116-.802 1.053-1.319 1.459-2.226 1.749-1.84.588-4.025-.663-4.608-2.639-.187-.632-.29-4.699-.141-5.513.441-2.4 2.538-3.872 4.674-3.282zM28.202 6.377c-1.346.118-3.479.92-4.212 1.584-.132.119-.336.27-.455.334-.42.229-1.678 1.692-2.033 2.362-1.041 1.97-1.356 3.147-1.356 5.067 0 8.062 9 12.366 14.668 7.015 1.934-1.826 2.012-2.232.494-2.596a46.951 46.951 0 01-1.354-.346c-.862-.24-1.01-.225-1.406.148-1.871 1.763-4.517 1.976-6.54.526-.985-.706-1.814-1.777-2.068-2.671l-.083-.293h13.516l.203-.2.202-.201-.035-1.346c-.02-.785-.073-1.525-.126-1.777l-.194-.932c-.115-.552-.644-1.779-.99-2.294-.122-.183-.24-.392-.26-.466-.075-.26-1.391-1.698-1.827-1.998a8.015 8.015 0 01-.548-.414c-1.125-.955-3.762-1.663-5.596-1.502zm18.244.091c-.54.05-1.442.277-1.73.434a.78.78 0 01-.275.098c-.79 0-2.788 2-3.544 3.55-.922 1.888-.948 2.137-.926 8.842l.017 5.376.176.16c.227.207 2.736.254 3.019.057.252-.176.252-.177.285-6.015l.031-5.686.192-.503c.106-.276.35-.725.544-.997.638-.9.583-.85 1.49-1.35.965-.534 2.004-.489 2.945.127.248.163.472.296.496.296.231 0 1.15 1.457 1.359 2.152.258.865.277 1.33.277 6.697 0 5.032.002 5.093.129 5.237.208.238 2.787.225 3.05-.015l.176-.16.034-5.576.035-5.575.193-.632c1.2-3.917 5.588-3.846 6.9.113l.171.519.032 5.626c.027 4.633.048 5.645.119 5.736.157.201 2.949.162 3.131-.044l.137-.154v-5.587c0-6.297.007-6.17-.468-7.636-.41-1.264-1.374-2.807-2.04-3.266a4.917 4.917 0 01-.491-.413c-1.184-1.138-3.84-1.748-5.548-1.275-1.475.41-2.43.983-3.44 2.069l-.484.518-.27-.334c-1.323-1.65-3.576-2.59-5.722-2.389zm21.113-.02c-.424.086-.393-.641-.393 9.367v8.998l.165.138c.166.139 2.633.22 2.935.096.294-.12.285.16.285-9.269 0-9.673.02-9.164-.352-9.313-.152-.062-2.355-.076-2.64-.017zm12.553.082c-.768.146-1.874.513-2.417.803-.42.225-1.071.647-1.125.73-.017.026-.159.13-.314.232-.155.102-.547.473-.87.825-2.13 2.316-2.928 5.07-2.449 8.454.334 2.353 2.238 5.172 4.26 6.306.839.47 1.019.557 1.617.775 3.114 1.136 6.716.225 9.103-2.302 1.989-2.106 2.99-5.702 2.36-8.47-.354-1.563-.58-2.176-1.1-2.993-.161-.256-.369-.6-.46-.765-.232-.423-1.328-1.554-1.942-2.004-1.952-1.431-4.407-2.017-6.663-1.59zm24.972-.058c-.715.18-1.411.85-1.675 1.616l-.164.474v2.328c0 2.263.005 2.34.146 2.76.728 2.172 3.7 2.362 4.673.3.284-.603.3-.792.279-3.227l-.019-2.294-.194-.432c-.547-1.22-1.787-1.84-3.046-1.525zm1.114 2.815l.214.226v1.721c0 1.513-.013 1.741-.107 1.886-.268.412-.608.45-.934.104l-.213-.226V9.513l.213-.226c.154-.163.269-.226.413-.226.146 0 .261.063.414.226zm-95.877.9c3.82 1.042 5.381 5.7 3.021 9.016-.446.627-.61.79-1.406 1.39-2.034 1.537-5.203 1.012-6.985-1.157-3.355-4.084.427-10.597 5.37-9.248zm20.013.004c1.621.53 2.908 1.7 3.51 3.19l.215.535H23.85l.085-.256c.177-.532.598-1.282.882-1.573a3.4 3.4 0 00.268-.324c.972-1.348 3.561-2.123 5.248-1.572zm52.661.036c1.073.33 1.671.702 2.428 1.513 3.82 4.1.234 10.863-5.073 9.567-.884-.216-1.205-.39-2.222-1.205-1.52-1.218-2.22-3.656-1.683-5.849.738-3.013 3.775-4.88 6.55-4.026zm29.222 4.447c.117.125.213.291.213.37 0 .375-.669 2.162-.872 2.33-.022.018-.216.273-.433.565-.216.293-.487.607-.6.699a93.83 93.83 0 00-.672.54c-.697.564-1.339.866-2.595 1.223-1.538.436-3.985-.03-5.322-1.014-.921-.678-1.994-1.856-2.137-2.346a6.529 6.529 0 00-.255-.602c-.543-1.15-.455-1.758.254-1.758.356 0 .495.144.664.689.075.243.231.615.347.827.116.212.212.41.212.44 0 .256 1.284 1.537 1.83 1.823 3.309 1.735 7.134.34 8.168-2.981.324-1.043.723-1.31 1.198-.805z"/><path d="M14.592.689c-.114.133-.12.308-.137 3.857-.01 2.253-.04 3.717-.076 3.717-.032 0-.11-.056-.171-.125-.128-.144-.796-.583-1.28-.844-1.283-.689-3.478-1.05-5.025-.828-1.12.161-3.074.899-3.524 1.33a6.576 6.576 0 01-.565.42c-.42.286-1.85 1.755-1.85 1.9 0 .037-.159.315-.354.617-.582.902-.841 1.584-1.196 3.15-.278 1.226-.157 3.232.298 4.954.174.657 1 2.295 1.202 2.384.028.012.05.053.05.09 0 .234 1.134 1.445 1.944 2.078 2.19 1.71 5.532 2.22 8.063 1.231.679-.265 1.904-.928 2.21-1.197l.229-.2.03.762c.03.69.046.777.184.932l.152.172h1.393c1.278 0 1.405-.01 1.54-.128l.148-.127V13.56c0-9.937-.01-11.288-.094-11.373-.051-.053-.291-.207-.532-.343-.242-.135-.496-.298-.565-.363C15.862.733 14.875.357 14.592.69zM67.269.67c-.088.104-.103.298-.103 1.315 0 1.36-.005 1.346.515 1.697.182.123.385.275.45.338s.277.2.47.305c.193.105.544.331.779.502.561.408.894.42 1.08.04.137-.283.134-3.838-.005-4.122L70.36.549h-1.493c-1.368 0-1.502.01-1.598.121zm37.043-.076c-.891.12-2.396.6-3.153 1.005a3.394 3.394 0 01-.53.237c-.202.053-1.4.898-2.016 1.424-.808.69-2.119 2.225-2.42 2.836-.21.426-.516.971-.56 1-.08.052-.674 1.573-.82 2.098-.565 2.026-.564 2.016-.564 8.202v5.36l.151.441c.084.244.22.522.303.618.082.097.196.254.251.35.144.246.753.656 1.19.8.513.17 9.854.188 10.958.022 1.767-.265 3.952-1.166 5.171-2.132.207-.164.434-.323.504-.354.069-.032.389-.323.712-.647.323-.324.612-.6.642-.612.031-.012.274-.31.541-.662.268-.352.545-.71.62-.794.073-.085.238-.37.366-.634.128-.265.27-.526.317-.581.046-.056.221-.415.391-.8 1.268-2.88 1.312-6.815.109-9.742-.195-.475-.393-.908-.439-.963-.046-.055-.185-.314-.308-.576-.465-.984-2.044-2.84-3.016-3.541a25.707 25.707 0 01-.627-.473c-1.768-1.389-5.223-2.225-7.773-1.882zm2.382 4.58c1.366.378 2.461 1.55 2.82 3.019.166.678.137 4.927-.037 5.55-.141.503-.307.887-.482 1.116-.802 1.053-1.319 1.459-2.226 1.749-1.84.588-4.025-.663-4.608-2.639-.187-.632-.29-4.699-.141-5.513.441-2.4 2.538-3.872 4.674-3.282zM28.202 6.377c-1.346.118-3.479.92-4.212 1.584-.132.119-.336.27-.455.334-.42.229-1.678 1.692-2.033 2.362-1.041 1.97-1.356 3.147-1.356 5.067 0 8.062 9 12.366 14.668 7.015 1.934-1.826 2.012-2.232.494-2.596a46.951 46.951 0 01-1.354-.346c-.862-.24-1.01-.225-1.406.148-1.871 1.763-4.517 1.976-6.54.526-.985-.706-1.814-1.777-2.068-2.671l-.083-.293h13.516l.203-.2.202-.201-.035-1.346c-.02-.785-.073-1.525-.126-1.777l-.194-.932c-.115-.552-.644-1.779-.99-2.294-.122-.183-.24-.392-.26-.466-.075-.26-1.391-1.698-1.827-1.998a8.015 8.015 0 01-.548-.414c-1.125-.955-3.762-1.663-5.596-1.502zm18.244.091c-.54.05-1.442.277-1.73.434a.78.78 0 01-.275.098c-.79 0-2.788 2-3.544 3.55-.922 1.888-.948 2.137-.926 8.842l.017 5.376.176.16c.227.207 2.736.254 3.019.057.252-.176.252-.177.285-6.015l.031-5.686.192-.503c.106-.276.35-.725.544-.997.638-.9.583-.85 1.49-1.35.965-.534 2.004-.489 2.945.127.248.163.472.296.496.296.231 0 1.15 1.457 1.359 2.152.258.865.277 1.33.277 6.697 0 5.032.002 5.093.129 5.237.208.238 2.787.225 3.05-.015l.176-.16.034-5.576.035-5.575.193-.632c1.2-3.917 5.588-3.846 6.9.113l.171.519.032 5.626c.027 4.633.048 5.645.119 5.736.157.201 2.949.162 3.131-.044l.137-.154v-5.587c0-6.297.007-6.17-.468-7.636-.41-1.264-1.374-2.807-2.04-3.266a4.917 4.917 0 01-.491-.413c-1.184-1.138-3.84-1.748-5.548-1.275-1.475.41-2.43.983-3.44 2.069l-.484.518-.27-.334c-1.323-1.65-3.576-2.59-5.722-2.389zm21.113-.02c-.424.086-.393-.641-.393 9.367v8.998l.165.138c.166.139 2.633.22 2.935.096.294-.12.285.16.285-9.269 0-9.673.02-9.164-.352-9.313-.152-.062-2.355-.076-2.64-.017zm12.553.082c-.768.146-1.874.513-2.417.803-.42.225-1.071.647-1.125.73-.017.026-.159.13-.314.232-.155.102-.547.473-.87.825-2.13 2.316-2.928 5.07-2.449 8.454.334 2.353 2.238 5.172 4.26 6.306.839.47 1.019.557 1.617.775 3.114 1.136 6.716.225 9.103-2.302 1.989-2.106 2.99-5.702 2.36-8.47-.354-1.563-.58-2.176-1.1-2.993-.161-.256-.369-.6-.46-.765-.232-.423-1.328-1.554-1.942-2.004-1.952-1.431-4.407-2.017-6.663-1.59zm24.972-.058c-.715.18-1.411.85-1.675 1.616l-.164.474v2.328c0 2.263.005 2.34.146 2.76.728 2.172 3.7 2.362 4.673.3.284-.603.3-.792.279-3.227l-.019-2.294-.194-.432c-.547-1.22-1.787-1.84-3.046-1.525zm1.114 2.815l.214.226v1.721c0 1.513-.013 1.741-.107 1.886-.268.412-.608.45-.934.104l-.213-.226V9.513l.213-.226c.154-.163.269-.226.413-.226.146 0 .261.063.414.226zm-95.877.9c3.82 1.042 5.381 5.7 3.021 9.016-.446.627-.61.79-1.406 1.39-2.034 1.537-5.203 1.012-6.985-1.157-3.355-4.084.427-10.597 5.37-9.248zm20.013.004c1.621.53 2.908 1.7 3.51 3.19l.215.535H23.85l.085-.256c.177-.532.598-1.282.882-1.573a3.4 3.4 0 00.268-.324c.972-1.348 3.561-2.123 5.248-1.572zm52.661.036c1.073.33 1.671.702 2.428 1.513 3.82 4.1.234 10.863-5.073 9.567-.884-.216-1.205-.39-2.222-1.205-1.52-1.218-2.22-3.656-1.683-5.849.738-3.013 3.775-4.88 6.55-4.026zm29.222 4.447c.117.125.213.291.213.37 0 .375-.669 2.162-.872 2.33-.022.018-.216.273-.433.565-.216.293-.487.607-.6.699a93.83 93.83 0 00-.672.54c-.697.564-1.339.866-2.595 1.223-1.538.436-3.985-.03-5.322-1.014-.921-.678-1.994-1.856-2.137-2.346a6.529 6.529 0 00-.255-.602c-.543-1.15-.455-1.758.254-1.758.356 0 .495.144.664.689.075.243.231.615.347.827.116.212.212.41.212.44 0 .256 1.284 1.537 1.83 1.823 3.309 1.735 7.134.34 8.168-2.981.324-1.043.723-1.31 1.198-.805z"/><path d="M14.592.689c-.114.133-.12.308-.137 3.857-.01 2.253-.04 3.717-.076 3.717-.032 0-.11-.056-.171-.125-.128-.144-.796-.583-1.28-.844-1.283-.689-3.478-1.05-5.025-.828-1.12.161-3.074.899-3.524 1.33a6.576 6.576 0 01-.565.42c-.42.286-1.85 1.755-1.85 1.9 0 .037-.159.315-.354.617-.582.902-.841 1.584-1.196 3.15-.278 1.226-.157 3.232.298 4.954.174.657 1 2.295 1.202 2.384.028.012.05.053.05.09 0 .234 1.134 1.445 1.944 2.078 2.19 1.71 5.532 2.22 8.063 1.231.679-.265 1.904-.928 2.21-1.197l.229-.2.03.762c.03.69.046.777.184.932l.152.172h1.393c1.278 0 1.405-.01 1.54-.128l.148-.127V13.56c0-9.937-.01-11.288-.094-11.373-.051-.053-.291-.207-.532-.343-.242-.135-.496-.298-.565-.363C15.862.733 14.875.357 14.592.69zM67.269.67c-.088.104-.103.298-.103 1.315 0 1.36-.005 1.346.515 1.697.182.123.385.275.45.338s.277.2.47.305c.193.105.544.331.779.502.561.408.894.42 1.08.04.137-.283.134-3.838-.005-4.122L70.36.549h-1.493c-1.368 0-1.502.01-1.598.121zm37.043-.076c-.891.12-2.396.6-3.153 1.005a3.394 3.394 0 01-.53.237c-.202.053-1.4.898-2.016 1.424-.808.69-2.119 2.225-2.42 2.836-.21.426-.516.971-.56 1-.08.052-.674 1.573-.82 2.098-.565 2.026-.564 2.016-.564 8.202v5.36l.151.441c.084.244.22.522.303.618.082.097.196.254.251.35.144.246.753.656 1.19.8.513.17 9.854.188 10.958.022 1.767-.265 3.952-1.166 5.171-2.132.207-.164.434-.323.504-.354.069-.032.389-.323.712-.647.323-.324.612-.6.642-.612.031-.012.274-.31.541-.662.268-.352.545-.71.62-.794.073-.085.238-.37.366-.634.128-.265.27-.526.317-.581.046-.056.221-.415.391-.8 1.268-2.88 1.312-6.815.109-9.742-.195-.475-.393-.908-.439-.963-.046-.055-.185-.314-.308-.576-.465-.984-2.044-2.84-3.016-3.541a25.707 25.707 0 01-.627-.473c-1.768-1.389-5.223-2.225-7.773-1.882zm2.382 4.58c1.366.378 2.461 1.55 2.82 3.019.166.678.137 4.927-.037 5.55-.141.503-.307.887-.482 1.116-.802 1.053-1.319 1.459-2.226 1.749-1.84.588-4.025-.663-4.608-2.639-.187-.632-.29-4.699-.141-5.513.441-2.4 2.538-3.872 4.674-3.282zM28.202 6.377c-1.346.118-3.479.92-4.212 1.584-.132.119-.336.27-.455.334-.42.229-1.678 1.692-2.033 2.362-1.041 1.97-1.356 3.147-1.356 5.067 0 8.062 9 12.366 14.668 7.015 1.934-1.826 2.012-2.232.494-2.596a46.951 46.951 0 01-1.354-.346c-.862-.24-1.01-.225-1.406.148-1.871 1.763-4.517 1.976-6.54.526-.985-.706-1.814-1.777-2.068-2.671l-.083-.293h13.516l.203-.2.202-.201-.035-1.346c-.02-.785-.073-1.525-.126-1.777l-.194-.932c-.115-.552-.644-1.779-.99-2.294-.122-.183-.24-.392-.26-.466-.075-.26-1.391-1.698-1.827-1.998a8.015 8.015 0 01-.548-.414c-1.125-.955-3.762-1.663-5.596-1.502zm18.244.091c-.54.05-1.442.277-1.73.434a.78.78 0 01-.275.098c-.79 0-2.788 2-3.544 3.55-.922 1.888-.948 2.137-.926 8.842l.017 5.376.176.16c.227.207 2.736.254 3.019.057.252-.176.252-.177.285-6.015l.031-5.686.192-.503c.106-.276.35-.725.544-.997.638-.9.583-.85 1.49-1.35.965-.534 2.004-.489 2.945.127.248.163.472.296.496.296.231 0 1.15 1.457 1.359 2.152.258.865.277 1.33.277 6.697 0 5.032.002 5.093.129 5.237.208.238 2.787.225 3.05-.015l.176-.16.034-5.576.035-5.575.193-.632c1.2-3.917 5.588-3.846 6.9.113l.171.519.032 5.626c.027 4.633.048 5.645.119 5.736.157.201 2.949.162 3.131-.044l.137-.154v-5.587c0-6.297.007-6.17-.468-7.636-.41-1.264-1.374-2.807-2.04-3.266a4.917 4.917 0 01-.491-.413c-1.184-1.138-3.84-1.748-5.548-1.275-1.475.41-2.43.983-3.44 2.069l-.484.518-.27-.334c-1.323-1.65-3.576-2.59-5.722-2.389zm21.113-.02c-.424.086-.393-.641-.393 9.367v8.998l.165.138c.166.139 2.633.22 2.935.096.294-.12.285.16.285-9.269 0-9.673.02-9.164-.352-9.313-.152-.062-2.355-.076-2.64-.017zm12.553.082c-.768.146-1.874.513-2.417.803-.42.225-1.071.647-1.125.73-.017.026-.159.13-.314.232-.155.102-.547.473-.87.825-2.13 2.316-2.928 5.07-2.449 8.454.334 2.353 2.238 5.172 4.26 6.306.839.47 1.019.557 1.617.775 3.114 1.136 6.716.225 9.103-2.302 1.989-2.106 2.99-5.702 2.36-8.47-.354-1.563-.58-2.176-1.1-2.993-.161-.256-.369-.6-.46-.765-.232-.423-1.328-1.554-1.942-2.004-1.952-1.431-4.407-2.017-6.663-1.59zm24.972-.058c-.715.18-1.411.85-1.675 1.616l-.164.474v2.328c0 2.263.005 2.34.146 2.76.728 2.172 3.7 2.362 4.673.3.284-.603.3-.792.279-3.227l-.019-2.294-.194-.432c-.547-1.22-1.787-1.84-3.046-1.525zm1.114 2.815l.214.226v1.721c0 1.513-.013 1.741-.107 1.886-.268.412-.608.45-.934.104l-.213-.226V9.513l.213-.226c.154-.163.269-.226.413-.226.146 0 .261.063.414.226zm-95.877.9c3.82 1.042 5.381 5.7 3.021 9.016-.446.627-.61.79-1.406 1.39-2.034 1.537-5.203 1.012-6.985-1.157-3.355-4.084.427-10.597 5.37-9.248zm20.013.004c1.621.53 2.908 1.7 3.51 3.19l.215.535H23.85l.085-.256c.177-.532.598-1.282.882-1.573a3.4 3.4 0 00.268-.324c.972-1.348 3.561-2.123 5.248-1.572zm52.661.036c1.073.33 1.671.702 2.428 1.513 3.82 4.1.234 10.863-5.073 9.567-.884-.216-1.205-.39-2.222-1.205-1.52-1.218-2.22-3.656-1.683-5.849.738-3.013 3.775-4.88 6.55-4.026zm29.222 4.447c.117.125.213.291.213.37 0 .375-.669 2.162-.872 2.33-.022.018-.216.273-.433.565-.216.293-.487.607-.6.699a93.83 93.83 0 00-.672.54c-.697.564-1.339.866-2.595 1.223-1.538.436-3.985-.03-5.322-1.014-.921-.678-1.994-1.856-2.137-2.346a6.529 6.529 0 00-.255-.602c-.543-1.15-.455-1.758.254-1.758.356 0 .495.144.664.689.075.243.231.615.347.827.116.212.212.41.212.44 0 .256 1.284 1.537 1.83 1.823 3.309 1.735 7.134.34 8.168-2.981.324-1.043.723-1.31 1.198-.805z"/><path d="M14.592.689c-.114.133-.12.308-.137 3.857-.01 2.253-.04 3.717-.076 3.717-.032 0-.11-.056-.171-.125-.128-.144-.796-.583-1.28-.844-1.283-.689-3.478-1.05-5.025-.828-1.12.161-3.074.899-3.524 1.33a6.576 6.576 0 01-.565.42c-.42.286-1.85 1.755-1.85 1.9 0 .037-.159.315-.354.617-.582.902-.841 1.584-1.196 3.15-.278 1.226-.157 3.232.298 4.954.174.657 1 2.295 1.202 2.384.028.012.05.053.05.09 0 .234 1.134 1.445 1.944 2.078 2.19 1.71 5.532 2.22 8.063 1.231.679-.265 1.904-.928 2.21-1.197l.229-.2.03.762c.03.69.046.777.184.932l.152.172h1.393c1.278 0 1.405-.01 1.54-.128l.148-.127V13.56c0-9.937-.01-11.288-.094-11.373-.051-.053-.291-.207-.532-.343-.242-.135-.496-.298-.565-.363C15.862.733 14.875.357 14.592.69zM67.269.67c-.088.104-.103.298-.103 1.315 0 1.36-.005 1.346.515 1.697.182.123.385.275.45.338s.277.2.47.305c.193.105.544.331.779.502.561.408.894.42 1.08.04.137-.283.134-3.838-.005-4.122L70.36.549h-1.493c-1.368 0-1.502.01-1.598.121zm37.043-.076c-.891.12-2.396.6-3.153 1.005a3.394 3.394 0 01-.53.237c-.202.053-1.4.898-2.016 1.424-.808.69-2.119 2.225-2.42 2.836-.21.426-.516.971-.56 1-.08.052-.674 1.573-.82 2.098-.565 2.026-.564 2.016-.564 8.202v5.36l.151.441c.084.244.22.522.303.618.082.097.196.254.251.35.144.246.753.656 1.19.8.513.17 9.854.188 10.958.022 1.767-.265 3.952-1.166 5.171-2.132.207-.164.434-.323.504-.354.069-.032.389-.323.712-.647.323-.324.612-.6.642-.612.031-.012.274-.31.541-.662.268-.352.545-.71.62-.794.073-.085.238-.37.366-.634.128-.265.27-.526.317-.581.046-.056.221-.415.391-.8 1.268-2.88 1.312-6.815.109-9.742-.195-.475-.393-.908-.439-.963-.046-.055-.185-.314-.308-.576-.465-.984-2.044-2.84-3.016-3.541a25.707 25.707 0 01-.627-.473c-1.768-1.389-5.223-2.225-7.773-1.882zm2.382 4.58c1.366.378 2.461 1.55 2.82 3.019.166.678.137 4.927-.037 5.55-.141.503-.307.887-.482 1.116-.802 1.053-1.319 1.459-2.226 1.749-1.84.588-4.025-.663-4.608-2.639-.187-.632-.29-4.699-.141-5.513.441-2.4 2.538-3.872 4.674-3.282zM28.202 6.377c-1.346.118-3.479.92-4.212 1.584-.132.119-.336.27-.455.334-.42.229-1.678 1.692-2.033 2.362-1.041 1.97-1.356 3.147-1.356 5.067 0 8.062 9 12.366 14.668 7.015 1.934-1.826 2.012-2.232.494-2.596a46.951 46.951 0 01-1.354-.346c-.862-.24-1.01-.225-1.406.148-1.871 1.763-4.517 1.976-6.54.526-.985-.706-1.814-1.777-2.068-2.671l-.083-.293h13.516l.203-.2.202-.201-.035-1.346c-.02-.785-.073-1.525-.126-1.777l-.194-.932c-.115-.552-.644-1.779-.99-2.294-.122-.183-.24-.392-.26-.466-.075-.26-1.391-1.698-1.827-1.998a8.015 8.015 0 01-.548-.414c-1.125-.955-3.762-1.663-5.596-1.502zm18.244.091c-.54.05-1.442.277-1.73.434a.78.78 0 01-.275.098c-.79 0-2.788 2-3.544 3.55-.922 1.888-.948 2.137-.926 8.842l.017 5.376.176.16c.227.207 2.736.254 3.019.057.252-.176.252-.177.285-6.015l.031-5.686.192-.503c.106-.276.35-.725.544-.997.638-.9.583-.85 1.49-1.35.965-.534 2.004-.489 2.945.127.248.163.472.296.496.296.231 0 1.15 1.457 1.359 2.152.258.865.277 1.33.277 6.697 0 5.032.002 5.093.129 5.237.208.238 2.787.225 3.05-.015l.176-.16.034-5.576.035-5.575.193-.632c1.2-3.917 5.588-3.846 6.9.113l.171.519.032 5.626c.027 4.633.048 5.645.119 5.736.157.201 2.949.162 3.131-.044l.137-.154v-5.587c0-6.297.007-6.17-.468-7.636-.41-1.264-1.374-2.807-2.04-3.266a4.917 4.917 0 01-.491-.413c-1.184-1.138-3.84-1.748-5.548-1.275-1.475.41-2.43.983-3.44 2.069l-.484.518-.27-.334c-1.323-1.65-3.576-2.59-5.722-2.389zm21.113-.02c-.424.086-.393-.641-.393 9.367v8.998l.165.138c.166.139 2.633.22 2.935.096.294-.12.285.16.285-9.269 0-9.673.02-9.164-.352-9.313-.152-.062-2.355-.076-2.64-.017zm12.553.082c-.768.146-1.874.513-2.417.803-.42.225-1.071.647-1.125.73-.017.026-.159.13-.314.232-.155.102-.547.473-.87.825-2.13 2.316-2.928 5.07-2.449 8.454.334 2.353 2.238 5.172 4.26 6.306.839.47 1.019.557 1.617.775 3.114 1.136 6.716.225 9.103-2.302 1.989-2.106 2.99-5.702 2.36-8.47-.354-1.563-.58-2.176-1.1-2.993-.161-.256-.369-.6-.46-.765-.232-.423-1.328-1.554-1.942-2.004-1.952-1.431-4.407-2.017-6.663-1.59zm24.972-.058c-.715.18-1.411.85-1.675 1.616l-.164.474v2.328c0 2.263.005 2.34.146 2.76.728 2.172 3.7 2.362 4.673.3.284-.603.3-.792.279-3.227l-.019-2.294-.194-.432c-.547-1.22-1.787-1.84-3.046-1.525zm1.114 2.815l.214.226v1.721c0 1.513-.013 1.741-.107 1.886-.268.412-.608.45-.934.104l-.213-.226V9.513l.213-.226c.154-.163.269-.226.413-.226.146 0 .261.063.414.226zm-95.877.9c3.82 1.042 5.381 5.7 3.021 9.016-.446.627-.61.79-1.406 1.39-2.034 1.537-5.203 1.012-6.985-1.157-3.355-4.084.427-10.597 5.37-9.248zm20.013.004c1.621.53 2.908 1.7 3.51 3.19l.215.535H23.85l.085-.256c.177-.532.598-1.282.882-1.573a3.4 3.4 0 00.268-.324c.972-1.348 3.561-2.123 5.248-1.572zm52.661.036c1.073.33 1.671.702 2.428 1.513 3.82 4.1.234 10.863-5.073 9.567-.884-.216-1.205-.39-2.222-1.205-1.52-1.218-2.22-3.656-1.683-5.849.738-3.013 3.775-4.88 6.55-4.026zm29.222 4.447c.117.125.213.291.213.37 0 .375-.669 2.162-.872 2.33-.022.018-.216.273-.433.565-.216.293-.487.607-.6.699a93.83 93.83 0 00-.672.54c-.697.564-1.339.866-2.595 1.223-1.538.436-3.985-.03-5.322-1.014-.921-.678-1.994-1.856-2.137-2.346a6.529 6.529 0 00-.255-.602c-.543-1.15-.455-1.758.254-1.758.356 0 .495.144.664.689.075.243.231.615.347.827.116.212.212.41.212.44 0 .256 1.284 1.537 1.83 1.823 3.309 1.735 7.134.34 8.168-2.981.324-1.043.723-1.31 1.198-.805z"/><path d="M14.592.689c-.114.133-.12.308-.137 3.857-.01 2.253-.04 3.717-.076 3.717-.032 0-.11-.056-.171-.125-.128-.144-.796-.583-1.28-.844-1.283-.689-3.478-1.05-5.025-.828-1.12.161-3.074.899-3.524 1.33a6.576 6.576 0 01-.565.42c-.42.286-1.85 1.755-1.85 1.9 0 .037-.159.315-.354.617-.582.902-.841 1.584-1.196 3.15-.278 1.226-.157 3.232.298 4.954.174.657 1 2.295 1.202 2.384.028.012.05.053.05.09 0 .234 1.134 1.445 1.944 2.078 2.19 1.71 5.532 2.22 8.063 1.231.679-.265 1.904-.928 2.21-1.197l.229-.2.03.762c.03.69.046.777.184.932l.152.172h1.393c1.278 0 1.405-.01 1.54-.128l.148-.127V13.56c0-9.937-.01-11.288-.094-11.373-.051-.053-.291-.207-.532-.343-.242-.135-.496-.298-.565-.363C15.862.733 14.875.357 14.592.69zM67.269.67c-.088.104-.103.298-.103 1.315 0 1.36-.005 1.346.515 1.697.182.123.385.275.45.338s.277.2.47.305c.193.105.544.331.779.502.561.408.894.42 1.08.04.137-.283.134-3.838-.005-4.122L70.36.549h-1.493c-1.368 0-1.502.01-1.598.121zm37.043-.076c-.891.12-2.396.6-3.153 1.005a3.394 3.394 0 01-.53.237c-.202.053-1.4.898-2.016 1.424-.808.69-2.119 2.225-2.42 2.836-.21.426-.516.971-.56 1-.08.052-.674 1.573-.82 2.098-.565 2.026-.564 2.016-.564 8.202v5.36l.151.441c.084.244.22.522.303.618.082.097.196.254.251.35.144.246.753.656 1.19.8.513.17 9.854.188 10.958.022 1.767-.265 3.952-1.166 5.171-2.132.207-.164.434-.323.504-.354.069-.032.389-.323.712-.647.323-.324.612-.6.642-.612.031-.012.274-.31.541-.662.268-.352.545-.71.62-.794.073-.085.238-.37.366-.634.128-.265.27-.526.317-.581.046-.056.221-.415.391-.8 1.268-2.88 1.312-6.815.109-9.742-.195-.475-.393-.908-.439-.963-.046-.055-.185-.314-.308-.576-.465-.984-2.044-2.84-3.016-3.541a25.707 25.707 0 01-.627-.473c-1.768-1.389-5.223-2.225-7.773-1.882zm2.382 4.58c1.366.378 2.461 1.55 2.82 3.019.166.678.137 4.927-.037 5.55-.141.503-.307.887-.482 1.116-.802 1.053-1.319 1.459-2.226 1.749-1.84.588-4.025-.663-4.608-2.639-.187-.632-.29-4.699-.141-5.513.441-2.4 2.538-3.872 4.674-3.282zM28.202 6.377c-1.346.118-3.479.92-4.212 1.584-.132.119-.336.27-.455.334-.42.229-1.678 1.692-2.033 2.362-1.041 1.97-1.356 3.147-1.356 5.067 0 8.062 9 12.366 14.668 7.015 1.934-1.826 2.012-2.232.494-2.596a46.951 46.951 0 01-1.354-.346c-.862-.24-1.01-.225-1.406.148-1.871 1.763-4.517 1.976-6.54.526-.985-.706-1.814-1.777-2.068-2.671l-.083-.293h13.516l.203-.2.202-.201-.035-1.346c-.02-.785-.073-1.525-.126-1.777l-.194-.932c-.115-.552-.644-1.779-.99-2.294-.122-.183-.24-.392-.26-.466-.075-.26-1.391-1.698-1.827-1.998a8.015 8.015 0 01-.548-.414c-1.125-.955-3.762-1.663-5.596-1.502zm18.244.091c-.54.05-1.442.277-1.73.434a.78.78 0 01-.275.098c-.79 0-2.788 2-3.544 3.55-.922 1.888-.948 2.137-.926 8.842l.017 5.376.176.16c.227.207 2.736.254 3.019.057.252-.176.252-.177.285-6.015l.031-5.686.192-.503c.106-.276.35-.725.544-.997.638-.9.583-.85 1.49-1.35.965-.534 2.004-.489 2.945.127.248.163.472.296.496.296.231 0 1.15 1.457 1.359 2.152.258.865.277 1.33.277 6.697 0 5.032.002 5.093.129 5.237.208.238 2.787.225 3.05-.015l.176-.16.034-5.576.035-5.575.193-.632c1.2-3.917 5.588-3.846 6.9.113l.171.519.032 5.626c.027 4.633.048 5.645.119 5.736.157.201 2.949.162 3.131-.044l.137-.154v-5.587c0-6.297.007-6.17-.468-7.636-.41-1.264-1.374-2.807-2.04-3.266a4.917 4.917 0 01-.491-.413c-1.184-1.138-3.84-1.748-5.548-1.275-1.475.41-2.43.983-3.44 2.069l-.484.518-.27-.334c-1.323-1.65-3.576-2.59-5.722-2.389zm21.113-.02c-.424.086-.393-.641-.393 9.367v8.998l.165.138c.166.139 2.633.22 2.935.096.294-.12.285.16.285-9.269 0-9.673.02-9.164-.352-9.313-.152-.062-2.355-.076-2.64-.017zm12.553.082c-.768.146-1.874.513-2.417.803-.42.225-1.071.647-1.125.73-.017.026-.159.13-.314.232-.155.102-.547.473-.87.825-2.13 2.316-2.928 5.07-2.449 8.454.334 2.353 2.238 5.172 4.26 6.306.839.47 1.019.557 1.617.775 3.114 1.136 6.716.225 9.103-2.302 1.989-2.106 2.99-5.702 2.36-8.47-.354-1.563-.58-2.176-1.1-2.993-.161-.256-.369-.6-.46-.765-.232-.423-1.328-1.554-1.942-2.004-1.952-1.431-4.407-2.017-6.663-1.59zm24.972-.058c-.715.18-1.411.85-1.675 1.616l-.164.474v2.328c0 2.263.005 2.34.146 2.76.728 2.172 3.7 2.362 4.673.3.284-.603.3-.792.279-3.227l-.019-2.294-.194-.432c-.547-1.22-1.787-1.84-3.046-1.525zm1.114 2.815l.214.226v1.721c0 1.513-.013 1.741-.107 1.886-.268.412-.608.45-.934.104l-.213-.226V9.513l.213-.226c.154-.163.269-.226.413-.226.146 0 .261.063.414.226zm-95.877.9c3.82 1.042 5.381 5.7 3.021 9.016-.446.627-.61.79-1.406 1.39-2.034 1.537-5.203 1.012-6.985-1.157-3.355-4.084.427-10.597 5.37-9.248zm20.013.004c1.621.53 2.908 1.7 3.51 3.19l.215.535H23.85l.085-.256c.177-.532.598-1.282.882-1.573a3.4 3.4 0 00.268-.324c.972-1.348 3.561-2.123 5.248-1.572zm52.661.036c1.073.33 1.671.702 2.428 1.513 3.82 4.1.234 10.863-5.073 9.567-.884-.216-1.205-.39-2.222-1.205-1.52-1.218-2.22-3.656-1.683-5.849.738-3.013 3.775-4.88 6.55-4.026zm29.222 4.447c.117.125.213.291.213.37 0 .375-.669 2.162-.872 2.33-.022.018-.216.273-.433.565-.216.293-.487.607-.6.699a93.83 93.83 0 00-.672.54c-.697.564-1.339.866-2.595 1.223-1.538.436-3.985-.03-5.322-1.014-.921-.678-1.994-1.856-2.137-2.346a6.529 6.529 0 00-.255-.602c-.543-1.15-.455-1.758.254-1.758.356 0 .495.144.664.689.075.243.231.615.347.827.116.212.212.41.212.44 0 .256 1.284 1.537 1.83 1.823 3.309 1.735 7.134.34 8.168-2.981.324-1.043.723-1.31 1.198-.805z"/></g><defs><clipPath id="clip0"><path fill="#fff" transform="translate(.266 .517)" d="M0 0h117.188v25H0z"/></clipPath></defs></svg>