<svg width="119" height="26" fill="none" xmlns="http://www.w3.org/2000/svg"><g clip-path="url(#clip0)" fill="#fff"><path d="M17.027 14.44c-.04.048-.078.097-.121.142v.009l-4.017 4.455-.007-.002a2.864 2.864 0 01-.933.694 2.628 2.628 0 01-1.102.244H6.894a.546.546 0 00-.229.05.597.597 0 00-.193.143.67.67 0 00-.13.215.724.724 0 00-.045.253v3.915h-.013a.836.836 0 01-.164.39.716.716 0 01-.323.238.649.649 0 01-.388.016.702.702 0 01-.338-.21l-.003.002-3.643-4.037.004-.007a3.205 3.205 0 01-.653-1.047 3.476 3.476 0 01-.23-1.247V8.554c0-.856.307-1.632.802-2.205l-.001-.005 4.13-4.58h.001c.536-.583 1.258-.91 2.009-.909h3.36c.429 0 .834.107 1.199.294V1.14c.311.161.594.377.832.643l.005-.003 4.902 5.436.001 6.377h5.736v9.909c.002.006.002.012.002.018v.224a1.668 1.668 0 01-.453 1.054 1.363 1.363 0 01-.979.428h-2.875c-.198 0-.395-.046-.577-.134a1.45 1.45 0 01-.48-.38 1.636 1.636 0 01-.3-.562 1.755 1.755 0 01-.074-.648v-9.909l-.759.846zm-5.579-.838a.544.544 0 00.229-.05.597.597 0 00.194-.143.668.668 0 00.13-.215.724.724 0 00.045-.253V7.894A.725.725 0 0012 7.641a.669.669 0 00-.13-.214.597.597 0 00-.193-.144.546.546 0 00-.229-.05H6.893a.569.569 0 00-.422.193.7.7 0 00-.175.467v5.046c0 .366.267.661.597.661h4.554l.002.002z"/><path d="M17.79 13.6h5.736L17.79 7.227V13.6zm13.867-7.433h5.309c2.169 0 4.093 0 5.252 1.845.505.83.748 2.01.748 3.005 0 .808-.15 1.597-.449 2.28-1.14 2.612-3.57 2.675-5.365 2.715h-2.186V20.8h-3.309V6.167zm3.31 2.695v4.435h1.984c1.235 0 2.731-.04 2.731-2.3 0-2.136-1.665-2.136-2.62-2.136h-2.094zm11.963 2.236c.636-.602 1.328-1.078 2.822-1.244v2.819l-.953.165c-1.382.27-1.794.498-1.794 1.866v6.094h-2.879V9.958h2.804v1.14zm14.056 4.267c0 2.737-1.42 5.742-5.234 5.742-2.748 0-5.253-1.741-5.253-5.742 0-3.316 1.888-5.949 5.627-5.72 3.981.249 4.86 3.751 4.86 5.72zm-7.104-2.133c-.355.622-.485 1.37-.485 2.117 0 1.723.747 3.238 2.355 3.238 1.551 0 2.318-1.39 2.318-3.092 0-1.204-.263-2.138-.804-2.72-.598-.622-1.272-.643-1.683-.602-.822.063-1.308.374-1.7 1.059zm9.44-4.335c0-.538.038-1.265.411-1.845.356-.539 1.16-1.099 2.506-1.099.58 0 1.159.104 1.719.186v2.385h-.692c-1.084 0-1.14.249-1.121 1.7h1.925v1.947h-1.907v8.624h-2.86V12.17h-1.532v-1.948h1.552V8.897zm6.187-.282h2.84V6.148h-2.84v2.467zm0 12.188h2.84V9.963h-2.84v10.84zm5.775-13.958h2.86v3.378h1.888v1.948h-1.907v4.872c-.018.663-.018 1.223.748 1.223l1.028-.042v2.487c-.617.104-.991.167-1.514.167-.992 0-2.075-.063-2.692-1.058-.392-.642-.41-1.409-.41-2.445V12.15h-1.422v-1.948h1.42V6.845zm15.546-.678c.394 1.575.785 3.151 1.215 4.727.73 2.818.86 3.274 1.272 6.114.392-2.902.485-3.399 1.083-6.384.28-1.493.58-2.985.86-4.457h3.271l-3.345 14.634h-3.403c-.41-1.616-.804-3.234-1.233-4.83-.71-2.694-.748-2.798-1.141-4.85-.336 1.804-.373 1.949-1.121 4.747L87.016 20.8h-3.401L80.269 6.167h3.29c1.42 6.944 1.571 7.71 1.963 10.882.485-2.901.617-3.461 1.309-6.363l1.083-4.519h2.916zm17.364 11.879c-.336.56-.673 1.099-1.177 1.617a5.08 5.08 0 01-3.683 1.534c-2.897 0-4.934-2.052-4.934-5.597 0-2.61 1.159-5.969 5.009-5.969.58 0 2.261.062 3.514 1.555 1.271 1.513 1.346 3.627 1.384 4.85h-6.972c-.019 1.346.672 2.695 2.224 2.695 1.569 0 2.112-1.14 2.467-1.908l2.168 1.223zm-2.86-4.01c-.056-.454-.13-1.052-.542-1.526-.356-.393-.896-.6-1.402-.6-.691 0-1.177.372-1.457.703-.394.475-.486.97-.58 1.424h3.981zm4.639 6.764h2.878V6.168h-2.878v14.634zm5.451 0h2.879V6.168h-2.879v14.634z"/></g><defs><clipPath id="clip0"><path fill="#fff" transform="translate(.547 .517)" d="M0 0h118.188v25H0z"/></clipPath></defs></svg>