<svg width="94" height="26" fill="none" xmlns="http://www.w3.org/2000/svg"><g clip-path="url(#clip0)" fill="#fff"><path d="M23.244 6.768l-.002-.002-.003-.005a1.705 1.705 0 00-.082-.124l-.024-.031a1.625 1.625 0 00-.072-.089l-.044-.047a2.142 2.142 0 00-.123-.117 2.282 2.282 0 00-.13-.1l-.056-.038a1.796 1.796 0 00-.224-.118c-.02-.01-.04-.018-.06-.026a1.867 1.867 0 00-.094-.033l-.055-.017a1.581 1.581 0 00-.111-.029l-.04-.008a1.719 1.719 0 00-.14-.021l-.015-.002a1.684 1.684 0 00-1 .208l-8.776 4.965-6.276-3.55 6.281-3.554 4.189 2.367c.795.45 1.813.183 2.273-.597.46-.78.187-1.777-.61-2.227L13.032.735a1.694 1.694 0 00-1.664 0L1.797 6.15a1.612 1.612 0 00-.042 2.844l9.607 5.435.004.002c.05.028.102.053.155.075.015.006.029.015.043.02.032.013.066.022.098.033.174.057.352.089.53.089h.003c.182 0 .364-.033.542-.093.028-.01.057-.017.085-.028.017-.007.033-.016.05-.024.05-.022.1-.045.15-.072l.004-.002 7.114-4.024v7.107l-7.944 4.493-7.943-4.493v-4.493c0-.9-.746-1.63-1.664-1.63-.92 0-1.665.73-1.665 1.63v5.434c0 .583.317 1.12.832 1.412l9.608 5.435a1.691 1.691 0 001.664 0l9.608-5.435c.515-.291.832-.83.832-1.412V7.583c0-.297-.082-.575-.224-.815z"/><path fill-rule="evenodd" clip-rule="evenodd" d="M32.098 15.89c.556.36 1.12.627 1.692.802a5.796 5.796 0 001.692.26c.555 0 1.004-.127 1.345-.382.341-.256.512-.586.512-.993 0-.336-.136-.6-.408-.792a4.436 4.436 0 00-1.024-.514 42.95 42.95 0 00-1.327-.46 5.927 5.927 0 01-1.328-.628 3.297 3.297 0 01-1.024-1.036c-.271-.43-.407-.992-.407-1.688 0-.534.11-1.022.33-1.463.22-.441.526-.821.919-1.14a4.26 4.26 0 011.414-.74 5.979 5.979 0 011.813-.262 8.854 8.854 0 013.315.645v2.542a6.71 6.71 0 00-1.562-.67 5.734 5.734 0 00-1.544-.218c-.532 0-.963.116-1.293.348-.33.232-.495.54-.495.923 0 .325.136.58.408.766.272.186.61.35 1.015.496.405.145.848.296 1.328.453.48.156.922.368 1.327.635a3.39 3.39 0 011.015 1.054c.272.435.408 1.007.408 1.715 0 .545-.113 1.047-.338 1.506a3.48 3.48 0 01-.937 1.175c-.4.325-.877.577-1.432.757-.555.18-1.162.27-1.822.27-1.214 0-2.412-.261-3.592-.783V15.89zm8.964-9.366h2.829v4.422c.752-.546 1.544-.818 2.377-.818.451 0 .868.078 1.25.235a2.923 2.923 0 011.639 1.68c.156.395.234.824.234 1.288v5.711h-2.828v-5.188c0-.36-.113-.656-.338-.888a1.147 1.147 0 00-.86-.348c-.52 0-1.012.232-1.474.696v5.728h-2.829V6.524zm9.485 3.813h2.828v8.705h-2.828v-8.705zm-.139-2.316c0-.464.145-.839.434-1.123.29-.284.665-.427 1.128-.427.44 0 .807.143 1.102.427.295.284.442.659.442 1.123 0 .441-.147.807-.442 1.097a1.51 1.51 0 01-1.102.435c-.463 0-.839-.145-1.128-.435-.29-.29-.434-.656-.434-1.097zm10.11 6.668c0-.638-.16-1.152-.478-1.54a1.528 1.528 0 00-1.24-.584c-.51 0-.966.203-1.371.61v3.03c.405.405.862.609 1.37.609.51 0 .923-.198 1.241-.593.319-.394.478-.905.478-1.532zM54.6 10.337h2.829v.47c.66-.453 1.336-.68 2.03-.68.578 0 1.11.114 1.596.34.486.227.903.54 1.25.94.347.4.616.88.807 1.437.19.557.286 1.172.286 1.845a5.66 5.66 0 01-.286 1.846 4.285 4.285 0 01-.807 1.436 3.7 3.7 0 01-1.25.94 3.733 3.733 0 01-1.596.34c-.694 0-1.37-.226-2.03-.679v4.283H54.6V10.337zm12.574 6.477h1.856c.44 0 .801-.131 1.085-.392.283-.261.425-.595.425-1.001 0-.407-.142-.74-.425-1.002-.284-.26-.645-.391-1.085-.391h-1.856v2.786zm0-4.945h1.613c.405 0 .741-.122 1.007-.366.266-.244.4-.551.4-.923 0-.383-.134-.693-.4-.931-.266-.238-.602-.357-1.007-.357h-1.613v2.577zm-2.76-4.806h4.912c.532 0 1.017.082 1.457.244.44.163.821.389 1.145.68.324.29.576.632.755 1.026.18.395.27.825.27 1.289 0 .592-.14 1.12-.418 1.584a2.52 2.52 0 01-1.144 1.028c.624.232 1.107.594 1.448 1.088a2.91 2.91 0 01.512 1.697c0 .488-.093.938-.278 1.35a3.13 3.13 0 01-.772 1.062 3.48 3.48 0 01-1.18.687 4.45 4.45 0 01-1.5.244h-5.206V7.063zm9.277 7.626c0-.673.116-1.288.347-1.845a4.196 4.196 0 01.972-1.437c.417-.4.91-.713 1.484-.94a5.08 5.08 0 011.882-.34c.683 0 1.31.114 1.883.34a4.42 4.42 0 011.475.94c.41.4.731.88.963 1.437.231.557.347 1.172.347 1.845 0 .662-.116 1.274-.347 1.837a4.252 4.252 0 01-.963 1.445c-.41.4-.902.714-1.475.94-.572.227-1.2.34-1.883.34a5.06 5.06 0 01-1.882-.34 4.498 4.498 0 01-1.484-.94 4.18 4.18 0 01-.972-1.445 4.779 4.779 0 01-.347-1.837zm2.898 0c0 .662.165 1.193.495 1.593.33.401.76.601 1.292.601.52 0 .949-.2 1.285-.6.335-.401.503-.932.503-1.594 0-.661-.168-1.192-.503-1.593-.336-.4-.764-.6-1.285-.6-.532 0-.963.2-1.292.6-.33.4-.495.932-.495 1.593zm13.059 0c0-.638-.159-1.152-.477-1.54a1.526 1.526 0 00-1.24-.584c-.51 0-.966.203-1.371.61v3.03c.405.405.861.609 1.37.609.51 0 .923-.198 1.24-.593.32-.394.478-.905.478-1.532zm-5.917-8.165h2.829v4.283c.659-.453 1.336-.68 2.03-.68.578 0 1.11.114 1.596.34.486.227.903.54 1.25.94.347.4.616.88.806 1.437.191.557.287 1.172.287 1.845a5.66 5.66 0 01-.287 1.846 4.283 4.283 0 01-.806 1.436c-.347.4-.764.714-1.25.94a3.732 3.732 0 01-1.596.34c-.694 0-1.371-.226-2.03-.679v.47h-2.83V6.524z"/></g><defs><clipPath id="clip0"><path fill="#fff" transform="translate(.922 .517)" d="M0 0h92.188v25H0z"/></clipPath></defs></svg>