<svg width="57" height="26" fill="none" xmlns="http://www.w3.org/2000/svg"><g clip-path="url(#clip0)" fill-rule="evenodd" clip-rule="evenodd" fill="#fff"><path d="M10.484 11.364a.681.681 0 00-.659-.14L3.594 13.19l8.904-8.517a.689.689 0 00-.018-1.011L9.155.692a.688.688 0 00-1.048.16L.87 13.004a.53.53 0 00.103.667l1.41 1.261a.682.682 0 00.637.149l5.048-1.407-5.81 9.13c-.28.441.3.92.678.557l9.707-9.305a.53.53 0 00-.014-.776l-2.146-1.915zm45.319-1.302l-.964-.86a.318.318 0 00-.509.127l-1.982 5.348c-.95 2.562-2.076 3.44-2.782 3.44-.225 0-.546-.165-.546-.71 0-.187.032-.58.262-1.2l1.889-5.091a.962.962 0 00-.262-1.053l-.964-.86a.318.318 0 00-.51.126l-1.982 5.348c-.949 2.562-2.075 3.44-2.78 3.44-.226 0-.547-.165-.547-.71 0-.187.033-.58.262-1.2l4.124-11.133a.963.963 0 00-.261-1.053l-.965-.86a.318.318 0 00-.51.127l-4.22 11.39c-.3.808-.44 1.63-.44 2.11 0 1.62 1.093 2.55 2.271 2.55.884 0 1.859-.565 2.742-1.728.303 1.103 1.195 1.728 2.153 1.728.533 0 1.101-.208 1.663-.626l-1.389 3.743a6.339 6.339 0 00-4.59-.326c-.186.056-.148.326.043.345 1.975.186 3.6 1.04 4.8 2.644a.648.648 0 001.125-.164l5.13-13.837a.963.963 0 00-.26-1.055zm-20.689 8.046c-.387 0-.676-.38-.676-.946 0-.19.06-.64.291-1.272 1.326-3.458 3.13-5.335 3.938-5.335.535 0 .616.556.616 1.218 0 2.7-2.407 6.333-4.17 6.333v.002zm4.291-9.167c-.954 0-1.841.548-2.635 1.385l2.025-5.509a.987.987 0 00-.264-1.073l-.976-.877a.318.318 0 00-.514.13L32.78 14.601c-.303.825-.444 1.663-.444 2.15 0 1.572 1.1 2.6 2.596 2.6 3.53 0 6.715-4.186 6.715-7.561-.002-1.653-.798-2.85-2.241-2.85zm-13.309 9.167c-.388 0-.677-.38-.677-.946 0-.19.06-.64.292-1.272 1.327-3.458 3.133-5.335 3.943-5.335.535 0 .617.556.617 1.218-.001 2.7-2.41 6.333-4.176 6.333v.002zm1.659-7.782l2.027-5.509a.985.985 0 00-.264-1.073l-.977-.877a.32.32 0 00-.515.13l-4.268 11.605c-.961 2.61-2.099 3.504-2.813 3.504-.228 0-.553-.166-.553-.724 0-.189.034-.589.266-1.221l1.908-5.188a.986.986 0 00-.264-1.074l-.975-.876a.32.32 0 00-.515.13l-2.005 5.449c-.96 2.61-2.098 3.504-2.811 3.504-.229 0-.554-.166-.554-.724 0-.189.034-.589.266-1.221l1.908-5.188A.985.985 0 0017.35 9.9l-.974-.877a.32.32 0 00-.515.13l-2.004 5.449c-.303.825-.445 1.663-.445 2.15 0 1.652 1.105 2.6 2.297 2.6.893 0 1.879-.576 2.772-1.762.306 1.125 1.208 1.761 2.176 1.761.896 0 1.887-.579 2.78-1.77.32 1.09 1.26 1.77 2.472 1.77 3.535 0 6.726-4.185 6.726-7.56 0-1.653-.798-2.85-2.242-2.85-.956 0-1.844.548-2.638 1.385z"/></g><defs><clipPath id="clip0"><path fill="#fff" transform="translate(.797 .517)" d="M0 0h55.469v25H0z"/></clipPath></defs></svg>