<svg width="22" height="22" fill="none" xmlns="http://www.w3.org/2000/svg"><path d="M15.8 8.264l1.666-.262a.195.195 0 00.163-.159c.124-.742.124-1.5 0-2.242a.195.195 0 00-.163-.159L15.8 5.181a.484.484 0 01-.317-.764l.993-1.36a.195.195 0 00.003-.229 6.725 6.725 0 00-1.586-1.585.196.196 0 00-.228.002l-1.36.993a.485.485 0 01-.765-.316L12.28.256a.195.195 0 00-.16-.162 6.76 6.76 0 00-2.242 0 .195.195 0 00-.16.162l-.26 1.666a.484.484 0 01-.764.316l-1.36-.993a.196.196 0 00-.229-.002A6.724 6.724 0 005.52 2.828a.196.196 0 00.003.228l.993 1.361a.484.484 0 01-.317.764l-1.665.261a.195.195 0 00-.163.16 6.76 6.76 0 000 2.241.195.195 0 00.163.16l1.665.26a.484.484 0 01.317.764l-.993 1.361a.196.196 0 00-.003.228c.436.614.972 1.15 1.586 1.586a.196.196 0 00.228-.003l1.36-.992a.485.485 0 01.765.316l.26 1.665a.195.195 0 00.16.163c.742.125 1.5.125 2.242 0a.195.195 0 00.16-.163l.26-1.665a.484.484 0 01.764-.316l1.36.992a.196.196 0 00.229.003 6.722 6.722 0 001.586-1.586.196.196 0 00-.003-.228l-.993-1.36a.485.485 0 01.317-.764zM11 9.336a2.614 2.614 0 110-5.228 2.614 2.614 0 010 5.228zm10.98 6.741a7.316 7.316 0 01-.774.587c-.001.292-1.69 1.462-1.94 1.652a22.973 22.973 0 01-2.621 1.755 23.557 23.557 0 01-5.554 1.768c-.785.12-4.394-.207-6.626-.654a7.602 7.602 0 00-1.963-.013v-5c0-.01-.003-.02-.003-.032a5.828 5.828 0 012.06-.961 9.495 9.495 0 013.46.013c.927.155 1.874.16 2.803.017.767-.08 1.528-.21 2.277-.39.783-.256 1.284-.22 1.57.293.24.43.008.801-.333 1.069a6.75 6.75 0 01-1.892 1.024c-.756.285-2.909.616-3.044.635.647.196 1.303.36 1.966.49 1.384.125 2.779.053 4.142-.216 1.46-.348 3.65-2.24 4.57-2.573.56-.2 1.063-.37 1.54-.125.224.115.451.546.362.661zM1.245 22H.277A.277.277 0 010 21.723v-5.749a.277.277 0 01.277-.277h.968a.277.277 0 01.277.277v5.75a.277.277 0 01-.277.276z" fill="#171FE5"/></svg>