<svg width="10" height="10" fill="none" xmlns="http://www.w3.org/2000/svg"><g clip-path="url(#clip0)" fill="#fff"><path d="M8.333 0H1.667A1.667 1.667 0 000 1.667v6.666A1.667 1.667 0 001.667 10h6.666A1.667 1.667 0 0010 8.333V1.667A1.667 1.667 0 008.333 0zm.834 8.333a.833.833 0 01-.834.834H1.667a.833.833 0 01-.834-.834V1.667a.833.833 0 01.834-.834h6.666a.833.833 0 01.834.834v6.666z"/><path d="M5 2.5a2.5 2.5 0 100 5 2.5 2.5 0 000-5zm0 4.167a1.667 1.667 0 110-3.334 1.667 1.667 0 010 3.334zm2.708-3.75a.625.625 0 100-1.25.625.625 0 000 1.25z"/></g><defs><clipPath id="clip0"><path fill="#fff" d="M0 0h10v10H0z"/></clipPath></defs></svg>