<svg width="20" height="20" fill="none" xmlns="http://www.w3.org/2000/svg"><g filter="url(#filter0_d)" fill="#fff"><path d="M15.026 11.369h.002v-4.17c0-2.04-.426-3.611-2.739-3.611-1.112 0-1.858.629-2.162 1.225h-.033V3.778H7.901v7.59h2.284V7.61c0-.99.182-1.947 1.37-1.947 1.172 0 1.19 1.13 1.19 2.01v3.696h2.28zM4.183 3.779H6.47v7.59H4.183v-7.59zM5.324 0C4.594 0 4 .612 4 1.365c0 .754.593 1.379 1.324 1.379.731 0 1.325-.625 1.325-1.379C6.649.612 6.055 0 5.324 0z"/></g><defs><filter id="filter0_d" x="0" y="0" width="19.028" height="19.369" filterUnits="userSpaceOnUse" color-interpolation-filters="sRGB"><feFlood flood-opacity="0" result="BackgroundImageFix"/><feColorMatrix in="SourceAlpha" values="0 0 0 0 0 0 0 0 0 0 0 0 0 0 0 0 0 0 127 0" result="hardAlpha"/><feOffset dy="4"/><feGaussianBlur stdDeviation="2"/><feComposite in2="hardAlpha" operator="out"/><feColorMatrix values="0 0 0 0 0 0 0 0 0 0 0 0 0 0 0 0 0 0 0.25 0"/><feBlend in2="BackgroundImageFix" result="effect1_dropShadow"/><feBlend in="SourceGraphic" in2="effect1_dropShadow" result="shape"/></filter></defs></svg>