<svg width="23" height="23" fill="none" xmlns="http://www.w3.org/2000/svg"><path d="M21.687 11.836l1.213-.772-1.25-.662 1.103-.919-1.36-.477.956-1.066-1.397-.294.808-1.177-1.433-.11.625-1.286-1.434.11.441-1.36-1.396.294.257-1.397-1.36.478.037-1.434-1.25.662L16.1.992l-1.14.846L14.593.44l-1.03.993-.55-1.324-.883 1.14L11.432 0l-.699 1.25L9.851.11 9.3 1.434 8.27.44l-.33 1.397L6.8.992l-.147 1.434-1.25-.662.037 1.434-1.36-.478.257 1.397-1.396-.294.44 1.36-1.433-.11.625 1.286-1.434.11.81 1.177L.55 7.94l.956 1.066-1.36.477 1.103.92-1.25.661 1.213.772-1.176.845 1.323.589-1.03.992 1.36.404-.881 1.14 1.433.184-.735 1.213H2.94l-.552 1.323 1.434-.184-.331 1.397 1.36-.405-.147 1.434 1.323-.588.037 1.433 1.213-.771.257 1.396 1.103-.919.441 1.36.956-1.066.625 1.287.808-1.176.809 1.176.625-1.287.956 1.066.44-1.36 1.103.92.258-1.397 1.213.771.037-1.433 1.323.588-.147-1.434 1.36.405-.331-1.397 1.433.184-.55-1.323h1.36l-.7-1.25 1.434-.184-.882-1.14 1.36-.404-1.029-.992 1.323-.588-1.176-.809zM9.483 6.947c.883 0 1.581.699 1.581 1.58 0 .883-.698 1.581-1.58 1.581a1.568 1.568 0 01-1.581-1.58c0-.882.698-1.58 1.58-1.58zM8.97 15.77a.593.593 0 01-.478.22.71.71 0 01-.368-.11.55.55 0 01-.11-.808l5.881-7.903a.55.55 0 01.809-.11.55.55 0 01.11.808L8.97 15.77zm4.41.22c-.881 0-1.58-.698-1.58-1.58 0-.882.699-1.58 1.58-1.58.883 0 1.581.698 1.581 1.58 0 .882-.698 1.58-1.58 1.58z" fill="#171FE5"/></svg>