<svg width="30" height="31" fill="none" xmlns="http://www.w3.org/2000/svg"><g filter="url(#filter0_d)" fill="#171FE5"><path d="M14.999 4.533A6.473 6.473 0 008.533 11c0 3.565 2.9 6.465 6.466 6.465 3.565 0 6.465-2.9 6.465-6.465S18.564 4.533 15 4.533zm.494 8.645v.666h-.845v-.636c-.6-.036-1.181-.198-1.54-.42l.455-1.03c.396.233.923.383 1.385.383.402 0 .545-.084.545-.228 0-.527-2.32-.102-2.32-1.667 0-.677.492-1.247 1.475-1.385v-.653h.845v.641c.444.042.876.156 1.218.348l-.426 1.025c-.414-.21-.803-.311-1.17-.311-.413 0-.545.12-.545.263 0 .504 2.32.084 2.32 1.631 0 .648-.467 1.211-1.397 1.373z"/><path d="M25.935 9.807l-1.282.142a9.74 9.74 0 01-1.446 6.244 9.727 9.727 0 01-5.123 4.018 9.695 9.695 0 01-3.083.502c-2.975 0-5.862-1.355-7.727-3.723h1.277V15.7H5.102v3.608h1.29v-1.359a11.134 11.134 0 0012.102 3.486 11.02 11.02 0 005.804-4.554 11.036 11.036 0 001.637-7.074zM6.748 5.89a9.72 9.72 0 015.169-4.09 9.608 9.608 0 016.354.064 9.786 9.786 0 014.154 2.884h-1.23v1.29l3.488.001V2.592h-1.29v1.303A11.083 11.083 0 0018.705.65a10.886 10.886 0 00-7.2-.074A11.01 11.01 0 005.65 5.212a11.024 11.024 0 00-1.562 7.191l1.28-.165a9.73 9.73 0 011.379-6.347z"/></g><defs><filter id="filter0_d" x="0" y="0" width="30.001" height="30.003" filterUnits="userSpaceOnUse" color-interpolation-filters="sRGB"><feFlood flood-opacity="0" result="BackgroundImageFix"/><feColorMatrix in="SourceAlpha" values="0 0 0 0 0 0 0 0 0 0 0 0 0 0 0 0 0 0 127 0" result="hardAlpha"/><feOffset dy="4"/><feGaussianBlur stdDeviation="2"/><feComposite in2="hardAlpha" operator="out"/><feColorMatrix values="0 0 0 0 0 0 0 0 0 0 0 0 0 0 0 0 0 0 0.25 0"/><feBlend in2="BackgroundImageFix" result="effect1_dropShadow"/><feBlend in="SourceGraphic" in2="effect1_dropShadow" result="shape"/></filter></defs></svg>