<svg width="12" height="12" fill="none" xmlns="http://www.w3.org/2000/svg"><g clip-path="url(#clip0)"><path d="M12 2.28a5.13 5.13 0 01-1.418.388c.51-.305.9-.783 1.083-1.36a4.91 4.91 0 01-1.56.595A2.46 2.46 0 005.85 3.585c0 .196.016.383.056.562a6.963 6.963 0 01-5.07-2.574 2.464 2.464 0 00.756 3.288A2.43 2.43 0 01.48 4.56v.026c0 1.196.853 2.189 1.971 2.418-.2.054-.418.08-.645.08-.157 0-.317-.008-.466-.041a2.484 2.484 0 002.3 1.712A4.943 4.943 0 010 9.771a6.925 6.925 0 003.774 1.104c4.527 0 7.002-3.75 7.002-7 0-.11-.004-.214-.009-.318.488-.347.899-.78 1.233-1.278z" fill="#fff"/></g><defs><clipPath id="clip0"><path fill="#fff" d="M0 0h12v12H0z"/></clipPath></defs></svg>