<svg width="233" height="226" fill="none" xmlns="http://www.w3.org/2000/svg"><g clip-path="url(#clip0)"><g filter="url(#filter0_d)"><rect x=".327" y=".599" width="232.404" height="225.253" rx="8.939" fill="#1D2067"/></g><path d="M32.92 31.275c.992 0 1.893.224 2.703.672a4.978 4.978 0 012.632 4.448 5.06 5.06 0 01-.7 2.617 5.097 5.097 0 01-1.932 1.86c-.81.457-1.711.686-2.703.686a5.487 5.487 0 01-2.717-.686 5.126 5.126 0 01-1.916-1.86 5.053 5.053 0 01-.701-2.617c0-.953.233-1.821.7-2.603a5.02 5.02 0 011.917-1.845c.82-.448 1.726-.672 2.717-.672zm.029 1.716a3.33 3.33 0 00-1.702.458 3.28 3.28 0 00-1.244 1.23 3.303 3.303 0 00-.458 1.716c0 .63.153 1.206.458 1.73.314.525.73.94 1.244 1.245a3.326 3.326 0 001.702.458c.6 0 1.159-.153 1.673-.458a3.31 3.31 0 001.216-1.244 3.38 3.38 0 00.458-1.73c0-.63-.153-1.202-.458-1.717a3.205 3.205 0 00-1.216-1.23 3.223 3.223 0 00-1.673-.458zm5.674.787l1.945-.014 2.002 5.82 1.96-5.82h1.873l-2.918 7.651H41.57l-2.946-7.637zm11.778-.072c1.22 0 2.136.348 2.746 1.044.62.696.93 1.674.93 2.932 0 .248-.005.434-.015.558h-5.649c.124.543.377.973.758 1.287.39.305.868.458 1.43.458.391 0 .763-.072 1.116-.215.362-.152.677-.367.944-.643l1 1.044c-.38.42-.848.743-1.4.972a4.637 4.637 0 01-1.817.343c-.782 0-1.473-.161-2.074-.486a3.425 3.425 0 01-1.373-1.358c-.324-.592-.486-1.269-.486-2.031 0-.763.162-1.44.486-2.031a3.495 3.495 0 011.387-1.373c.592-.334 1.264-.5 2.017-.5zm1.974 3.29c-.02-.563-.205-1.01-.558-1.345-.353-.333-.82-.5-1.402-.5-.543 0-1 .167-1.373.5-.362.325-.586.773-.672 1.345h4.005zm5.16-1.76a2.73 2.73 0 011.044-1.13c.448-.266.967-.404 1.559-.414v1.802c-.792-.048-1.426.138-1.903.558-.467.41-.7.968-.7 1.673v3.69h-1.86v-7.651h1.86v1.473zm3.099-1.458l1.945-.014 2.002 5.82 1.96-5.82h1.873l-2.917 7.651H63.58l-2.946-7.637zm8.854-.014h1.86v7.651h-1.86v-7.651zm.916-3.29c.305 0 .557.105.758.315.2.21.3.476.3.8 0 .315-.1.578-.3.787-.2.21-.453.315-.758.315s-.558-.105-.758-.315c-.2-.21-.3-.472-.3-.786 0-.325.1-.591.3-.801.2-.21.453-.315.758-.315zm6.436 3.232c1.22 0 2.135.348 2.746 1.044.62.696.93 1.674.93 2.932 0 .248-.006.434-.015.558h-5.65c.125.543.377.973.759 1.287.39.305.867.458 1.43.458a2.807 2.807 0 002.059-.858L80.1 40.17a3.84 3.84 0 01-1.401.972 4.637 4.637 0 01-1.816.343c-.782 0-1.474-.161-2.074-.486a3.424 3.424 0 01-1.373-1.358c-.324-.592-.486-1.269-.486-2.031 0-.763.162-1.44.486-2.031a3.494 3.494 0 011.387-1.373c.591-.334 1.264-.5 2.017-.5zm1.973 3.29c-.019-.563-.205-1.01-.557-1.345-.353-.333-.82-.5-1.402-.5-.543 0-1.001.167-1.373.5-.362.325-.586.773-.672 1.345h4.004zm1.863-3.218l1.916-.014 1.874 5.777 1.816-5.777h1.874L90 39.54l1.83-5.777h1.874l-2.775 7.651h-1.902l-1.83-5.392-1.817 5.392h-1.9l-2.803-7.637zm71.071 7.637v-6.38h.742v5.708h2.815v.672h-3.557zm7.477 0l-.145-.68h-.034c-.239.299-.478.502-.716.61-.236.105-.531.157-.886.157-.475 0-.847-.122-1.118-.366-.267-.245-.401-.592-.401-1.043 0-.966.772-1.473 2.317-1.52l.812-.026v-.296c0-.376-.081-.652-.244-.83-.16-.18-.418-.27-.773-.27-.398 0-.849.122-1.353.366l-.222-.554c.235-.128.493-.228.772-.301a3.39 3.39 0 01.847-.11c.57 0 .992.127 1.266.38.276.254.414.66.414 1.218v3.265h-.536zm-1.637-.51c.451 0 .804-.124 1.06-.372.259-.247.389-.593.389-1.038v-.432l-.725.03c-.576.02-.992.11-1.248.27-.253.158-.38.404-.38.738 0 .262.079.462.236.598.16.137.383.205.668.205zm6.756-.795c0 .445-.166.789-.497 1.03-.332.242-.798.362-1.397.362-.634 0-1.129-.1-1.484-.3v-.673c.23.116.476.208.738.275.264.067.519.1.763.1.379 0 .67-.06.873-.179a.604.604 0 00.306-.554.592.592 0 00-.245-.476c-.16-.133-.474-.29-.942-.471-.446-.166-.763-.31-.952-.432a1.347 1.347 0 01-.419-.423 1.114 1.114 0 01-.135-.563c0-.39.158-.697.476-.921.317-.227.752-.34 1.305-.34.515 0 1.018.104 1.51.313l-.258.59c-.48-.198-.915-.297-1.305-.297-.343 0-.602.054-.777.161a.5.5 0 00-.262.446.55.55 0 00.096.327 1 1 0 00.319.257c.146.082.425.2.838.354.567.207.95.415 1.148.624.201.21.301.473.301.79zm2.728.794a2.484 2.484 0 00.655-.086v.553a1.287 1.287 0 01-.35.092 2.45 2.45 0 01-.41.04c-.925 0-1.388-.488-1.388-1.463v-2.846h-.685v-.349l.685-.3.306-1.022h.419v1.108h1.388v.563h-1.388v2.816c0 .288.068.509.205.663.137.154.324.231.563.231zm5.6-3.387c.672 0 1.2.168 1.584.502.387.332.581.788.581 1.367 0 .66-.211 1.178-.633 1.553-.419.376-.998.563-1.737.563-.719 0-1.268-.115-1.646-.345v-.698c.204.131.457.234.76.31.302.073.6.11.894.11.512 0 .91-.122 1.192-.363.285-.242.428-.59.428-1.048 0-.89-.546-1.335-1.637-1.335-.277 0-.646.042-1.109.127l-.375-.24.24-2.986h3.173v.668h-2.553l-.162 1.916c.335-.067.668-.1 1-.1zm11.871 3.898v-3.112c0-.381-.081-.666-.244-.855-.163-.192-.416-.288-.76-.288-.451 0-.784.13-.999.388-.215.259-.323.658-.323 1.196v2.671h-.725v-3.112c0-.381-.081-.666-.244-.855-.163-.192-.417-.288-.764-.288-.454 0-.787.136-.999.41-.21.27-.314.716-.314 1.335v2.51h-.725v-4.783h.589l.118.654h.035a1.43 1.43 0 01.576-.545c.25-.131.53-.197.838-.197.748 0 1.237.27 1.467.812h.034c.143-.25.35-.448.62-.594a1.93 1.93 0 01.926-.218c.541 0 .945.14 1.213.42.27.276.406.72.406 1.33v3.121h-.725zm6.351-2.396c0 .78-.197 1.39-.59 1.829-.392.436-.935.654-1.627.654-.428 0-.808-.1-1.14-.3a1.996 1.996 0 01-.768-.865c-.18-.375-.27-.815-.27-1.318 0-.78.195-1.387.584-1.82.39-.437.932-.655 1.624-.655.669 0 1.2.223 1.593.668.396.445.594 1.047.594 1.807zm-3.645 0c0 .61.123 1.077.367 1.397.244.32.604.48 1.078.48.474 0 .834-.159 1.078-.476.247-.32.371-.787.371-1.401 0-.608-.124-1.07-.371-1.384-.244-.317-.607-.475-1.087-.475-.474 0-.832.155-1.073.467-.242.31-.363.775-.363 1.392zm8.193 2.396v-3.094c0-.39-.089-.681-.267-.873-.177-.192-.455-.288-.833-.288-.501 0-.867.135-1.1.406-.233.27-.349.717-.349 1.34v2.509h-.725v-4.783h.589l.118.654h.035c.149-.236.357-.417.624-.545a2.01 2.01 0 01.895-.197c.576 0 1.01.14 1.301.42.291.276.436.72.436 1.33v3.121h-.724zm3.762-.51c.128 0 .252-.01.371-.027.119-.02.214-.04.284-.06v.553a1.287 1.287 0 01-.35.092 2.45 2.45 0 01-.41.04c-.925 0-1.388-.488-1.388-1.463v-2.846h-.685v-.349l.685-.3.306-1.022h.419v1.108h1.388v.563h-1.388v2.816c0 .288.068.509.205.663.137.154.324.231.563.231zm4.888.51v-3.094c0-.39-.089-.681-.266-.873-.178-.192-.455-.288-.834-.288-.503 0-.871.136-1.104.41-.23.273-.345.721-.345 1.344v2.501h-.724v-6.791h.724v2.055c0 .248-.011.453-.035.616h.044c.143-.23.345-.41.607-.541a1.97 1.97 0 01.903-.201c.585 0 1.023.14 1.314.419.294.276.441.717.441 1.322v3.121h-.725z" fill="#8476AA"/><g opacity=".2" clip-path="url(#clip1)" fill="#fff"><path d="M121.713 193.734l-2.165-5.656h-.035c.041.448.061.981.061 1.597v4.059h-.685v-6.38h1.117l2.021 5.263h.035l2.038-5.263h1.109v6.38h-.742v-4.111c0-.471.02-.983.061-1.536h-.035l-2.182 5.647h-.598zm8.083 0l-.144-.68h-.035c-.239.299-.477.503-.716.611-.235.104-.531.157-.886.157-.474 0-.846-.122-1.117-.367-.268-.244-.402-.592-.402-1.043 0-.966.773-1.472 2.318-1.519l.812-.026v-.297c0-.375-.082-.652-.245-.829-.16-.18-.417-.271-.772-.271-.399 0-.85.123-1.353.367l-.223-.554a3.426 3.426 0 011.619-.411c.571 0 .993.127 1.266.38.277.253.415.659.415 1.218v3.264h-.537zm-1.637-.51c.451 0 .805-.124 1.061-.371.259-.247.388-.594.388-1.039v-.432l-.724.031c-.576.02-.992.11-1.248.27-.254.157-.38.403-.38.738 0 .262.078.461.235.598.161.136.383.205.668.205zm5.853-4.36c.213 0 .403.017.572.052l-.101.672a2.496 2.496 0 00-.523-.065c-.387 0-.719.157-.995.471-.274.314-.411.706-.411 1.174v2.566h-.724v-4.783h.598l.083.886h.035c.177-.311.391-.551.641-.72.25-.169.525-.253.825-.253zm51.631 4.87l-2.165-5.656h-.035c.041.448.061.981.061 1.597v4.059h-.685v-6.38h1.118l2.02 5.263h.035l2.038-5.263h1.109v6.38h-.742v-4.111c0-.471.02-.983.061-1.536h-.035l-2.182 5.647h-.598zm8.083 0l-.144-.68h-.035c-.238.299-.477.503-.716.611-.235.104-.531.157-.886.157-.474 0-.846-.122-1.117-.367-.268-.244-.401-.592-.401-1.043 0-.966.772-1.472 2.317-1.519l.812-.026v-.297c0-.375-.081-.652-.244-.829-.16-.18-.418-.271-.773-.271-.399 0-.85.123-1.353.367l-.223-.554a3.444 3.444 0 011.62-.411c.57 0 .992.127 1.265.38.277.253.415.659.415 1.218v3.264h-.537zm-1.636-.51c.451 0 .804-.124 1.06-.371.259-.247.389-.594.389-1.039v-.432l-.725.031c-.576.02-.992.11-1.248.27-.253.157-.38.403-.38.738 0 .262.079.461.236.598.16.136.382.205.668.205zm2.911-4.273h.777l1.047 2.728c.23.622.372 1.072.428 1.348h.035c.038-.148.116-.401.235-.759.123-.361.518-1.466 1.188-3.317h.776l-2.055 5.447c-.204.538-.443.919-.716 1.143-.271.227-.604.341-1 .341-.221 0-.439-.025-.654-.074v-.581c.16.035.339.053.537.053.497 0 .852-.28 1.065-.838l.266-.681-1.929-4.81zm-38.966 4.783l-.795-2.029h-2.557l-.786 2.029h-.751l2.523-6.407h.624l2.51 6.407h-.768zm-1.026-2.697l-.742-1.977a10.59 10.59 0 01-.297-.921 8.165 8.165 0 01-.275.921l-.75 1.977h2.064zm4.788 2.785c-.311 0-.596-.057-.855-.17a1.625 1.625 0 01-.646-.533h-.053c.035.279.053.544.053.794v1.969h-.725v-6.931h.589l.101.655h.035c.186-.262.403-.451.65-.568.247-.116.531-.174.851-.174.634 0 1.123.216 1.467.65.346.434.519 1.042.519 1.824 0 .786-.176 1.397-.528 1.833-.349.434-.835.651-1.458.651zm-.105-4.343c-.489 0-.842.135-1.06.406-.219.271-.331.701-.336 1.292v.161c0 .672.112 1.154.336 1.445.224.288.583.432 1.078.432.413 0 .736-.167.969-.502.235-.334.353-.796.353-1.383 0-.597-.118-1.054-.353-1.371-.233-.32-.562-.48-.987-.48zm5.543-.615c.213 0 .403.017.572.052l-.1.672a2.513 2.513 0 00-.524-.065c-.387 0-.719.157-.995.471-.274.314-.41.706-.41 1.174v2.566h-.725v-4.783h.598l.083.886h.035c.177-.311.391-.551.641-.72.251-.169.526-.253.825-.253zm-76.993 4.87H87.5v-6.38h3.557v.659h-2.815v2.335h2.645v.659h-2.645v2.727zm5.787.088c-.707 0-1.265-.216-1.676-.646-.407-.431-.61-1.029-.61-1.794 0-.771.188-1.384.567-1.837.38-.454.891-.681 1.532-.681.599 0 1.073.198 1.422.593.35.393.524.912.524 1.558v.459h-3.295c.014.561.156.988.423 1.278.27.291.65.437 1.14.437.514 0 1.024-.108 1.527-.323v.646c-.256.11-.499.189-.729.236a3.968 3.968 0 01-.825.074zm-.196-4.352c-.384 0-.691.125-.921.376-.227.25-.36.596-.402 1.038h2.501c0-.456-.102-.806-.305-1.047-.204-.244-.495-.367-.873-.367zm5.42-.598c.63 0 1.117.216 1.463.646.349.428.524 1.035.524 1.82 0 .786-.176 1.397-.529 1.833-.349.434-.835.651-1.457.651-.312 0-.597-.057-.856-.17a1.63 1.63 0 01-.646-.533H97.7l-.153.615h-.52v-6.791h.725v1.65c0 .37-.011.701-.035.995h.035c.338-.477.838-.716 1.502-.716zm-.104.607c-.495 0-.851.143-1.07.428-.218.282-.327.759-.327 1.431s.112 1.154.336 1.445c.224.288.584.432 1.078.432.446 0 .777-.161.996-.484.218-.326.327-.793.327-1.401 0-.623-.109-1.087-.327-1.393-.219-.305-.556-.458-1.013-.458zm-43.627 5.936c-.274 0-.49-.039-.646-.118v-.633c.206.058.422.087.646.087.288 0 .506-.087.654-.261.152-.175.227-.427.227-.756v-6.38h.742v6.319c0 .553-.14.981-.419 1.284-.279.305-.68.458-1.204.458zm6.154-1.681l-.144-.68h-.035c-.239.299-.477.503-.716.611-.236.104-.531.157-.886.157-.474 0-.847-.122-1.117-.367-.268-.244-.402-.592-.402-1.043 0-.966.773-1.472 2.318-1.519l.811-.026v-.297c0-.375-.081-.652-.244-.829-.16-.18-.417-.271-.772-.271-.4 0-.85.123-1.353.367l-.223-.554a3.429 3.429 0 011.62-.411c.57 0 .991.127 1.265.38.276.253.415.659.415 1.218v3.264h-.537zm-1.637-.51c.451 0 .805-.124 1.06-.371.26-.247.39-.594.39-1.039v-.432l-.725.031c-.577.02-.993.11-1.249.27-.253.157-.38.403-.38.738 0 .262.08.461.236.598.16.136.383.205.668.205zm6.944.51v-3.094c0-.39-.089-.681-.266-.873-.178-.192-.456-.288-.834-.288-.5 0-.867.135-1.1.406-.233.271-.349.717-.349 1.34v2.509h-.724v-4.783h.589l.118.655h.035a1.46 1.46 0 01.624-.546c.267-.131.566-.196.895-.196.576 0 1.01.139 1.3.419.291.276.436.72.436 1.331v3.12h-.724z"/></g><path d="M46.807 114.566h160.895M46.807 69.873h160.895M46.807 92.22h160.895M46.807 136.913h160.895M46.807 159.26h160.895M46.807 181.606h160.895" opacity=".1" stroke="#EDE9F2" stroke-width=".447"/><g opacity=".2" clip-path="url(#clip2)" fill="#fff"><path d="M34.281 85.362c.582 0 1.043.135 1.384.406.34.27.51.644.51 1.121 0 .315-.097.601-.292.86-.195.26-.506.495-.934.707.518.248.886.508 1.104.781.218.271.328.585.328.943 0 .53-.185.953-.555 1.27-.37.314-.876.472-1.519.472-.68 0-1.204-.149-1.57-.445-.367-.3-.55-.724-.55-1.27 0-.731.444-1.3 1.335-1.707-.402-.227-.69-.472-.864-.733a1.575 1.575 0 01-.262-.886c0-.463.17-.831.51-1.105.344-.276.802-.414 1.375-.414zm-1.379 4.862c0 .349.12.621.362.816.245.195.586.292 1.026.292.433 0 .771-.101 1.013-.305.241-.204.362-.483.362-.838 0-.282-.114-.533-.34-.75-.228-.222-.623-.436-1.188-.642-.433.186-.748.392-.943.62a1.188 1.188 0 00-.292.807zm1.37-4.273c-.363 0-.648.087-.855.262a.868.868 0 00-.31.698 1 1 0 00.258.69c.171.192.488.384.951.576.416-.175.71-.362.882-.563.174-.2.262-.435.262-.703a.85.85 0 00-.319-.698c-.21-.175-.499-.262-.869-.262zm8.062 5.883h-.873l-2.326-3.094-.668.594v2.5h-.742v-6.38h.742v3.164l2.894-3.165h.877l-2.567 2.772 2.663 3.61zm-5.971 67.04H32.17v-.624l1.68-1.689c.512-.518.85-.888 1.013-1.109.163-.221.285-.436.366-.646.082-.209.122-.435.122-.676 0-.341-.103-.61-.31-.808-.206-.2-.493-.301-.86-.301-.264 0-.516.044-.754.131-.236.087-.5.246-.79.476l-.384-.493c.587-.489 1.227-.734 1.92-.734.6 0 1.07.155 1.41.463.34.306.51.717.51 1.235 0 .405-.113.805-.34 1.2-.227.396-.652.897-1.274 1.502l-1.397 1.366v.035h3.282v.672zm5.97 0h-.872l-2.326-3.094-.668.593v2.501h-.742v-6.381h.742v3.164l2.894-3.164h.877l-2.567 2.772 2.663 3.609zm-.444 19.147c0 1.103-.175 1.926-.524 2.471-.346.544-.877.816-1.593.816-.687 0-1.21-.278-1.567-.834-.358-.559-.537-1.376-.537-2.453 0-1.111.173-1.936.52-2.474.346-.539.874-.808 1.584-.808.692 0 1.218.281 1.575.842.361.562.542 1.375.542 2.44zm-3.488 0c0 .928.11 1.605.328 2.03.218.422.566.633 1.043.633.483 0 .832-.214 1.047-.642.218-.431.328-1.104.328-2.021 0-.916-.11-1.587-.328-2.012-.215-.428-.564-.641-1.047-.641-.477 0-.825.211-1.043.632-.219.419-.328 1.093-.328 2.021zm-6.158-66.568c0-1.254.243-2.191.729-2.811.489-.622 1.21-.934 2.165-.934.328 0 .587.028.776.083v.624a2.508 2.508 0 00-.768-.109c-.683 0-1.206.214-1.567.642-.36.425-.558 1.094-.593 2.008h.052c.32-.501.827-.751 1.52-.751.572 0 1.023.173 1.352.519.332.346.498.816.498 1.41 0 .663-.182 1.186-.546 1.567-.36.378-.85.567-1.466.567-.66 0-1.185-.247-1.572-.742-.387-.497-.58-1.188-.58-2.073zm2.143 2.2c.413 0 .733-.13.96-.389.23-.262.345-.638.345-1.13 0-.422-.106-.754-.319-.995-.212-.242-.53-.362-.951-.362a1.6 1.6 0 00-.72.161 1.354 1.354 0 00-.524.445 1.038 1.038 0 00-.192.589c0 .3.058.579.175.838.116.259.28.465.493.616.215.151.46.227.733.227zm7.948.528h-.873l-2.326-3.095-.668.594v2.501h-.742V107.8h.742v3.164l2.894-3.164h.877l-2.567 2.771 2.663 3.61zM29.738 69.488h-.707V64.94c0-.378.011-.736.035-1.074a4.63 4.63 0 01-.206.192c-.075.067-.421.351-1.038.851l-.384-.497 1.689-1.305h.61v6.38zm6.66-3.2c0 1.103-.175 1.927-.524 2.471-.346.544-.877.816-1.593.816-.687 0-1.209-.278-1.567-.833-.358-.56-.537-1.377-.537-2.453 0-1.112.174-1.937.52-2.475.346-.538.874-.807 1.584-.807.693 0 1.218.28 1.576.842.36.562.541 1.375.541 2.44zm-3.487 0c0 .929.109 1.605.327 2.03.218.422.566.633 1.043.633.483 0 .832-.214 1.048-.641.218-.431.327-1.105.327-2.021 0-.917-.11-1.588-.327-2.012-.216-.428-.565-.642-1.048-.642-.477 0-.825.211-1.043.633-.218.419-.327 1.093-.327 2.02zm9.423 3.2h-.873l-2.326-3.095-.668.594v2.5h-.742v-6.38h.742v3.164l2.894-3.164h.877l-2.567 2.771 2.663 3.61zm-5.67 65.573h-.947v1.466h-.694v-1.466H31.92v-.633l3.029-4.316h.768v4.29h.947v.659zm-1.64-.659v-2.121c0-.416.014-.886.043-1.41h-.035c-.14.279-.27.511-.393.694l-1.995 2.837h2.38zm7.31 2.125h-.873l-2.326-3.094-.668.594v2.5h-.742v-6.381h.742v3.165l2.894-3.165h.877l-2.567 2.772 2.663 3.609z"/></g><path d="M123.679 129.315a2.681 2.681 0 015.364 0v51.844h-5.364v-51.844z" fill="#8476AA"/><path d="M131 144.5a2.5 2.5 0 115 0V181h-5v-36.5z" fill="#99EFD0"/><path d="M91.5 114.12a2.682 2.682 0 115.364 0v67.039H91.5V114.12z" fill="#8476AA"/><path d="M99 134.5a2.5 2.5 0 115 0V181h-5v-46.5z" fill="#99EFD0"/><path d="M188.037 76.577a2.682 2.682 0 015.364 0V181.16h-5.364V76.577z" fill="#8476AA"/><path d="M195 107.5a2.5 2.5 0 115 0V181h-5v-73.5z" fill="#99EFD0"/><path d="M59.322 149.874a2.682 2.682 0 115.363 0v31.285H59.32v-31.285z" fill="#8476AA"/><path d="M66 160a3 3 0 116 0v21h-6v-21z" fill="#99EFD0"/><path d="M155.858 88.198a2.682 2.682 0 015.364 0v92.961h-5.364V88.198z" fill="#8476AA"/><path d="M163 115.5a2.5 2.5 0 115 0V181h-5v-65.5z" fill="#99EFD0"/></g><defs><clipPath id="clip0"><path fill="#fff" transform="translate(.327 .6)" d="M0 0h232.404v225.253H0z"/></clipPath><clipPath id="clip1"><path fill="#fff" transform="translate(53.065 184.734)" d="M0 0h146.593v12.514H0z"/></clipPath><clipPath id="clip2"><path fill="#fff" transform="translate(26.249 60.488)" d="M0 0h16.09v124.247H0z"/></clipPath><filter id="filter0_d" x="-60.456" y="-38.731" width="339.667" height="332.516" filterUnits="userSpaceOnUse" color-interpolation-filters="sRGB"><feFlood flood-opacity="0" result="BackgroundImageFix"/><feColorMatrix in="SourceAlpha" values="0 0 0 0 0 0 0 0 0 0 0 0 0 0 0 0 0 0 127 0" result="hardAlpha"/><feOffset dx="-7.151" dy="14.302"/><feGaussianBlur stdDeviation="26.816"/><feColorMatrix values="0 0 0 0 0.322856 0 0 0 0 0.446289 0 0 0 0 0.545035 0 0 0 0.24 0"/><feBlend in2="BackgroundImageFix" result="effect1_dropShadow"/><feBlend in="SourceGraphic" in2="effect1_dropShadow" result="shape"/></filter></defs></svg>