<svg width="1440" height="453" fill="none" xmlns="http://www.w3.org/2000/svg"><path d="M20.126 40.529h-3.648v464.415h3.648V40.529z" fill="url(#paint0_linear)"/><path d="M14.18 40.747c0-2.261 1.86-4.122 4.122-4.122 2.262 0 4.122 1.86 4.122 4.122 0 2.262-1.86 4.123-4.122 4.123-2.261-.037-4.122-1.86-4.122-4.123z" fill="url(#paint1_linear)"/><path d="M46.026 99.77H42.38v345.97h3.648V99.771z" fill="url(#paint2_linear)"/><path d="M40.117 99.953c0-2.262 1.86-4.122 4.122-4.122 2.262 0 4.122 1.86 4.122 4.122a4.118 4.118 0 01-4.122 4.122 4.118 4.118 0 01-4.122-4.122z" fill="url(#paint3_linear)"/><path d="M31.873 43.739h-3.648V501.77h3.648V43.739z" fill="url(#paint4_linear)"/><path d="M25.927 43.92c0-2.261 1.86-4.122 4.122-4.122 2.261 0 4.122 1.86 4.122 4.123 0 2.261-1.86 4.122-4.122 4.122a4.095 4.095 0 01-4.122-4.122z" fill="url(#paint5_linear)"/><path d="M103.481 102.907h-3.648v339.694h3.648V102.907z" fill="url(#paint6_linear)"/><path d="M97.535 103.09c0-2.262 1.86-4.123 4.122-4.123 2.262 0 4.122 1.861 4.122 4.123 0 2.261-1.86 4.122-4.122 4.122a4.118 4.118 0 01-4.122-4.122z" fill="url(#paint7_linear)"/><path d="M165.094 72.849h-3.648V472.66h3.648V72.849z" fill="url(#paint8_linear)"/><path d="M159.148 73.03c0-2.26 1.861-4.121 4.122-4.121 2.262 0 4.122 1.86 4.122 4.122 0 2.261-1.86 4.122-4.122 4.122a4.118 4.118 0 01-4.122-4.122z" fill="url(#paint9_linear)"/><path d="M91.662 35.86h-3.648v473.754h3.648V35.859z" fill="url(#paint10_linear)"/><path d="M85.716 36.078c0-2.262 1.86-4.122 4.122-4.122 2.262 0 4.122 1.86 4.122 4.122 0 2.262-1.86 4.122-4.122 4.122-2.262-.036-4.122-1.86-4.122-4.122z" fill="url(#paint11_linear)"/><path d="M113.513 68.544h-3.648v408.421h3.648V68.545z" fill="url(#paint12_linear)"/><path d="M107.567 68.727c0-2.262 1.86-4.123 4.122-4.123 2.262 0 4.122 1.86 4.122 4.123 0 2.261-1.86 4.122-4.122 4.122a4.118 4.118 0 01-4.122-4.123z" fill="url(#paint13_linear)"/><path d="M208.723 112.502h-3.648v320.469h3.648V112.502z" fill="url(#paint14_linear)"/><path d="M202.814 112.721c0-2.262 1.86-4.123 4.122-4.123 2.262 0 4.122 1.861 4.122 4.123 0 2.261-1.86 4.122-4.122 4.122-2.298-.037-4.122-1.861-4.122-4.122z" fill="url(#paint15_linear)"/><path d="M190.666 113.888h-3.648v317.696h3.648V113.888z" fill="url(#paint16_linear)"/><path d="M188.842 118.229a4.122 4.122 0 100-8.244 4.122 4.122 0 000 8.244z" fill="url(#paint17_linear)"/><path d="M286.533 75.293h-3.648V470.18h3.648V75.293z" fill="url(#paint18_linear)"/><path d="M280.587 75.512c0-2.262 1.861-4.122 4.122-4.122 2.262 0 4.122 1.86 4.122 4.122 0 2.262-1.86 4.122-4.122 4.122-2.298-.036-4.122-1.86-4.122-4.122z" fill="url(#paint19_linear)"/><path d="M298.644 99.552h-3.648v346.332h3.648V99.552z" fill="url(#paint20_linear)"/><path d="M292.735 99.77c0-2.261 1.86-4.122 4.122-4.122 2.262 0 4.122 1.86 4.122 4.122 0 2.262-1.86 4.122-4.122 4.122a4.117 4.117 0 01-4.122-4.122z" fill="url(#paint21_linear)"/><path d="M246.698 65.59h-3.648v414.293h3.648V65.59z" fill="url(#paint22_linear)"/><path d="M240.752 65.808c0-2.262 1.86-4.122 4.122-4.122 2.262 0 4.122 1.86 4.122 4.122 0 2.262-1.86 4.122-4.122 4.122-2.262 0-4.122-1.86-4.122-4.122z" fill="url(#paint23_linear)"/><path d="M358.434 3.94h-3.648v537.63h3.648V3.94z" fill="url(#paint24_linear)"/><path d="M352.488 4.122c0-2.262 1.86-4.122 4.122-4.122 2.261 0 4.122 1.86 4.122 4.122 0 2.262-1.861 4.122-4.122 4.122-2.262 0-4.122-1.86-4.122-4.122z" fill="url(#paint25_linear)"/><path d="M371.165 34.108h-3.648v477.257h3.648V34.108z" fill="url(#paint26_linear)"/><path d="M365.219 34.327c0-2.262 1.86-4.122 4.122-4.122 2.262 0 4.122 1.86 4.122 4.122 0 2.262-1.86 4.122-4.122 4.122-2.298-.036-4.122-1.86-4.122-4.122z" fill="url(#paint27_linear)"/><path d="M402.756 18.532h-3.648v508.446h3.648V18.532z" fill="url(#paint28_linear)"/><path d="M396.81 18.714c0-2.262 1.86-4.122 4.122-4.122 2.262 0 4.122 1.86 4.122 4.122 0 2.262-1.86 4.122-4.122 4.122a4.095 4.095 0 01-4.122-4.122z" fill="url(#paint29_linear)"/><path d="M393.381 32.102h-3.648v481.305h3.648V32.102z" fill="url(#paint30_linear)"/><path d="M387.435 32.284c0-2.262 1.86-4.122 4.122-4.122 2.261 0 4.122 1.86 4.122 4.122 0 2.262-1.861 4.122-4.122 4.122a4.117 4.117 0 01-4.122-4.122z" fill="url(#paint31_linear)"/><path d="M375.469 77.372h-3.648v390.764h3.648V77.372z" fill="url(#paint32_linear)"/><path d="M369.523 77.554c0-2.262 1.861-4.122 4.122-4.122 2.262 0 4.123 1.86 4.123 4.122 0 2.262-1.861 4.122-4.123 4.122a4.095 4.095 0 01-4.122-4.122z" fill="url(#paint33_linear)"/><path d="M407.133 39.142h-3.648V506.33h3.648V39.142z" fill="url(#paint34_linear)"/><path d="M405.309 43.483a4.122 4.122 0 100-8.244 4.122 4.122 0 000 8.244z" fill="url(#paint35_linear)"/><path d="M415.378 104.731h-3.648v336.01h3.648v-336.01z" fill="url(#paint36_linear)"/><path d="M409.431 104.95c0-2.262 1.861-4.122 4.123-4.122 2.261 0 4.122 1.86 4.122 4.122 0 2.262-1.861 4.122-4.122 4.122a4.118 4.118 0 01-4.123-4.122z" fill="url(#paint37_linear)"/><path d="M492.75 63.109h-3.648v419.255h3.648V63.109z" fill="url(#paint38_linear)"/><path d="M486.804 63.328c0-2.262 1.86-4.122 4.122-4.122 2.262 0 4.122 1.86 4.122 4.122 0 2.261-1.86 4.122-4.122 4.122-2.262 0-4.122-1.86-4.122-4.122z" fill="url(#paint39_linear)"/><path d="M516.023 111.919h-3.647v321.636h3.647V111.919z" fill="url(#paint40_linear)"/><path d="M510.077 112.137c0-2.261 1.861-4.122 4.122-4.122 2.262 0 4.123 1.861 4.123 4.122 0 2.262-1.861 4.122-4.123 4.122-2.261-.036-4.122-1.86-4.122-4.122z" fill="url(#paint41_linear)"/><path d="M546.52 105.279h-3.648V440.23h3.648V105.279z" fill="url(#paint42_linear)"/><path d="M544.696 109.583a4.121 4.121 0 100-8.244 4.122 4.122 0 000 8.244z" fill="url(#paint43_linear)"/><path d="M595.439 50.961h-3.648v443.55h3.648V50.961z" fill="url(#paint44_linear)"/><path d="M589.492 51.18a4.118 4.118 0 014.123-4.122c2.261 0 4.122 1.86 4.122 4.122 0 2.262-1.861 4.122-4.122 4.122-2.262-.036-4.123-1.86-4.123-4.122z" fill="url(#paint45_linear)"/><path d="M641.548 5.362H637.9V540.11h3.648V5.362z" fill="url(#paint46_linear)"/><path d="M639.724 9.703a4.122 4.122 0 100-8.243 4.122 4.122 0 000 8.243z" fill="url(#paint47_linear)"/><path d="M652.711 69.164h-3.648v407.144h3.648V69.164z" fill="url(#paint48_linear)"/><path d="M646.765 69.383c0-2.262 1.86-4.122 4.122-4.122 2.261 0 4.122 1.86 4.122 4.122 0 2.262-1.861 4.122-4.122 4.122-2.262-.036-4.122-1.86-4.122-4.122z" fill="url(#paint49_linear)"/><path d="M662.852 36.735h-3.648v472.04h3.648V36.735z" fill="url(#paint50_linear)"/><path d="M656.942 36.917c0-2.262 1.861-4.122 4.122-4.122a4.118 4.118 0 014.123 4.122c0 2.261-1.861 4.122-4.123 4.122a4.095 4.095 0 01-4.122-4.122z" fill="url(#paint51_linear)"/><path d="M669.637 96.451h-3.648V449.06h3.648V96.451z" fill="url(#paint52_linear)"/><path d="M663.691 96.634c0-2.262 1.86-4.123 4.122-4.123 2.262 0 4.122 1.86 4.122 4.123 0 2.261-1.86 4.122-4.122 4.122a4.118 4.118 0 01-4.122-4.122z" fill="url(#paint53_linear)"/><path d="M728.259 11.674h-3.648v522.162h3.648V11.674z" fill="url(#paint54_linear)"/><path d="M726.435 15.978a4.122 4.122 0 100-8.243 4.122 4.122 0 000 8.243z" fill="url(#paint55_linear)"/><path d="M740.078 83.829h-3.648V461.68h3.648V83.829z" fill="url(#paint56_linear)"/><path d="M734.132 84.011c0-2.262 1.861-4.122 4.122-4.122 2.262 0 4.122 1.86 4.122 4.122 0 2.262-1.86 4.122-4.122 4.122a4.118 4.118 0 01-4.122-4.122z" fill="url(#paint57_linear)"/><path d="M786.297 109.583h-3.648v326.343h3.648V109.583z" fill="url(#paint58_linear)"/><path d="M780.351 109.766c0-2.262 1.861-4.123 4.122-4.123 2.262 0 4.122 1.861 4.122 4.123 0 2.261-1.86 4.122-4.122 4.122a4.118 4.118 0 01-4.122-4.122z" fill="url(#paint59_linear)"/><path d="M741.319 5.399h-3.648v534.674h3.648V5.399z" fill="url(#paint60_linear)"/><path d="M739.495 9.74a4.122 4.122 0 100-8.245 4.122 4.122 0 000 8.245z" fill="url(#paint61_linear)"/><path d="M800.889 59.205h-3.648v427.098h3.648V59.205z" fill="url(#paint62_linear)"/><path d="M799.065 63.51a4.122 4.122 0 100-8.244 4.122 4.122 0 000 8.244z" fill="url(#paint63_linear)"/><path d="M856.082 52.749h-3.648V492.76h3.648V52.749z" fill="url(#paint64_linear)"/><path d="M850.136 52.93c0-2.261 1.86-4.121 4.122-4.121 2.262 0 4.122 1.86 4.122 4.122 0 2.261-1.86 4.122-4.122 4.122a4.118 4.118 0 01-4.122-4.122z" fill="url(#paint65_linear)"/><path d="M887.198 31.153h-3.647v483.13h3.647V31.153z" fill="url(#paint66_linear)"/><path d="M881.289 31.372c0-2.262 1.86-4.122 4.122-4.122 2.262 0 4.122 1.86 4.122 4.122 0 2.262-1.86 4.122-4.122 4.122a4.118 4.118 0 01-4.122-4.122z" fill="url(#paint67_linear)"/><path d="M816.575 19.298h-3.648v506.84h3.648V19.298z" fill="url(#paint68_linear)"/><path d="M810.629 19.516c0-2.261 1.86-4.122 4.122-4.122 2.262 0 4.122 1.86 4.122 4.122 0 2.262-1.86 4.122-4.122 4.122-2.262 0-4.122-1.86-4.122-4.122z" fill="url(#paint69_linear)"/><path d="M888.621 111.152h-3.648v323.132h3.648V111.152z" fill="url(#paint70_linear)"/><path d="M882.711 111.37c0-2.261 1.861-4.122 4.123-4.122 2.261 0 4.122 1.861 4.122 4.122 0 2.262-1.861 4.123-4.122 4.123a4.119 4.119 0 01-4.123-4.123z" fill="url(#paint71_linear)"/><path d="M877.75 81.714h-3.648V463.76h3.648V81.714z" fill="url(#paint72_linear)"/><path d="M871.841 81.932c0-2.261 1.86-4.122 4.122-4.122 2.262 0 4.122 1.86 4.122 4.122 0 2.262-1.86 4.123-4.122 4.123-2.298-.037-4.122-1.86-4.122-4.123z" fill="url(#paint73_linear)"/><path d="M951.365 17.766h-3.648V527.67h3.648V17.766z" fill="url(#paint74_linear)"/><path d="M945.456 17.984c0-2.261 1.86-4.122 4.122-4.122 2.261 0 4.122 1.86 4.122 4.122 0 2.262-1.861 4.123-4.122 4.123a4.118 4.118 0 01-4.122-4.123z" fill="url(#paint75_linear)"/><path d="M915.178 115.384h-3.648v314.742h3.648V115.384z" fill="url(#paint76_linear)"/><path d="M909.232 115.566c0-2.262 1.86-4.122 4.122-4.122 2.262 0 4.122 1.86 4.122 4.122 0 2.262-1.86 4.122-4.122 4.122a4.118 4.118 0 01-4.122-4.122z" fill="url(#paint77_linear)"/><path d="M979.782 79.415h-3.647v386.642h3.647V79.415z" fill="url(#paint78_linear)"/><path d="M973.836 79.634c0-2.262 1.861-4.122 4.123-4.122 2.261 0 4.122 1.86 4.122 4.122 0 2.261-1.861 4.122-4.122 4.122-2.262 0-4.123-1.86-4.123-4.122z" fill="url(#paint79_linear)"/><path d="M986.859 86.31h-3.647V459.2h3.647V86.31z" fill="url(#paint80_linear)"/><path d="M980.95 86.492c0-2.261 1.86-4.122 4.122-4.122 2.262 0 4.122 1.86 4.122 4.122 0 2.262-1.86 4.122-4.122 4.122a4.095 4.095 0 01-4.122-4.122z" fill="url(#paint81_linear)"/><path d="M1062.92 35.932h-3.65v473.609h3.65V35.932z" fill="url(#paint82_linear)"/><path d="M1061.09 40.273c2.28 0 4.13-1.846 4.13-4.122a4.125 4.125 0 00-8.25 0 4.125 4.125 0 004.12 4.122z" fill="url(#paint83_linear)"/><path d="M1017.39 7.369h-3.65V538.14h3.65V7.369z" fill="url(#paint84_linear)"/><path d="M1011.45 7.551c0-2.262 1.86-4.122 4.12-4.122s4.12 1.86 4.12 4.122c0 2.262-1.86 4.122-4.12 4.122a4.117 4.117 0 01-4.12-4.122z" fill="url(#paint85_linear)"/><path d="M1059.27 14.774h-3.65V530.7h3.65V14.774z" fill="url(#paint86_linear)"/><path d="M1053.32 14.993c0-2.262 1.86-4.122 4.13-4.122 2.26 0 4.12 1.86 4.12 4.122 0 2.262-1.86 4.122-4.12 4.122-2.27 0-4.13-1.86-4.13-4.122z" fill="url(#paint87_linear)"/><path d="M1163.56 46.401h-3.64v452.67h3.64V46.401z" fill="url(#paint88_linear)"/><path d="M1157.62 46.62c0-2.262 1.86-4.122 4.12-4.122s4.12 1.86 4.12 4.122c0 2.262-1.86 4.122-4.12 4.122-2.26-.036-4.12-1.86-4.12-4.122z" fill="url(#paint89_linear)"/><path d="M1159.11 81.64h-3.64v382.192h3.64V81.641z" fill="url(#paint90_linear)"/><path d="M1153.2 81.86c0-2.262 1.86-4.123 4.13-4.123 2.26 0 4.12 1.86 4.12 4.122 0 2.262-1.86 4.123-4.12 4.123-2.27 0-4.13-1.861-4.13-4.123z" fill="url(#paint91_linear)"/><path d="M1216.31 89.191h-3.64v367.09h3.64V89.191z" fill="url(#paint92_linear)"/><path d="M1210.37 89.41a4.115 4.115 0 014.12-4.122c2.26 0 4.12 1.86 4.12 4.122 0 2.262-1.86 4.122-4.12 4.122s-4.12-1.86-4.12-4.122z" fill="url(#paint93_linear)"/><path d="M1162.62 45.599h-3.65v454.274h3.65V45.599z" fill="url(#paint94_linear)"/><path d="M1156.67 45.818c0-2.262 1.86-4.123 4.12-4.123s4.12 1.86 4.12 4.123c0 2.261-1.86 4.122-4.12 4.122s-4.12-1.86-4.12-4.122z" fill="url(#paint95_linear)"/><path d="M1183.77 57.054h-3.64v431.329h3.64V57.053z" fill="url(#paint96_linear)"/><path d="M1177.83 57.273c0-2.262 1.86-4.123 4.12-4.123s4.12 1.824 4.12 4.123c0 2.261-1.86 4.122-4.12 4.122-2.3 0-4.12-1.86-4.12-4.123z" fill="url(#paint97_linear)"/><path d="M1239.88 81.349h-3.65V464.16h3.65V81.348z" fill="url(#paint98_linear)"/><path d="M1233.93 81.53c0-2.261 1.86-4.121 4.12-4.121 2.27 0 4.13 1.86 4.13 4.122 0 2.261-1.86 4.122-4.13 4.122a4.098 4.098 0 01-4.12-4.122z" fill="url(#paint99_linear)"/><path d="M1219.56 76.57h-3.65v392.333h3.65V76.57z" fill="url(#paint100_linear)"/><path d="M1213.61 76.788c0-2.261 1.86-4.122 4.13-4.122 2.26 0 4.12 1.86 4.12 4.122 0 2.262-1.86 4.122-4.12 4.122-2.27-.036-4.13-1.86-4.13-4.122z" fill="url(#paint101_linear)"/><path d="M1243.56 7.77h-3.64v529.933h3.64V7.771z" fill="url(#paint102_linear)"/><path d="M1237.62 7.99c0-2.263 1.86-4.123 4.12-4.123s4.12 1.86 4.12 4.122c0 2.262-1.86 4.122-4.12 4.122-2.26-.036-4.12-1.86-4.12-4.122z" fill="url(#paint103_linear)"/><path d="M1303.02 103.892h-3.64v337.724h3.64V103.892z" fill="url(#paint104_linear)"/><path d="M1297.08 104.075c0-2.262 1.86-4.123 4.12-4.123s4.12 1.861 4.12 4.123c0 2.261-1.86 4.122-4.12 4.122-2.3 0-4.12-1.824-4.12-4.122z" fill="url(#paint105_linear)"/><path d="M1374.89 112.976h-3.65v319.52h3.65v-319.52z" fill="url(#paint106_linear)"/><path d="M1368.98 113.194c0-2.261 1.86-4.122 4.12-4.122s4.12 1.861 4.12 4.122c0 2.262-1.86 4.123-4.12 4.123-2.3-.037-4.12-1.861-4.12-4.123z" fill="url(#paint107_linear)"/><path d="M1382 18.824h-3.65V526.65h3.65V18.824z" fill="url(#paint108_linear)"/><path d="M1376.06 19.042c0-2.261 1.86-4.122 4.12-4.122s4.12 1.86 4.12 4.122c0 2.262-1.86 4.123-4.12 4.123s-4.12-1.86-4.12-4.123z" fill="url(#paint109_linear)"/><path d="M1343.99 99.406h-3.65V446.03h3.65V99.406z" fill="url(#paint110_linear)"/><path d="M1338.04 99.624c0-2.261 1.86-4.122 4.13-4.122 2.26 0 4.12 1.86 4.12 4.122 0 2.262-1.86 4.122-4.12 4.122-2.3 0-4.13-1.86-4.13-4.122z" fill="url(#paint111_linear)"/><path d="M1412.53 34.874h-3.64v475.724h3.64V34.874z" fill="url(#paint112_linear)"/><path d="M1406.62 35.093c0-2.262 1.87-4.122 4.13-4.122s4.12 1.824 4.12 4.122c0 2.261-1.86 4.122-4.12 4.122s-4.13-1.86-4.13-4.122z" fill="url(#paint113_linear)"/><path d="M1439.93 14.774h-3.65V530.7h3.65V14.774z" fill="url(#paint114_linear)"/><path d="M1433.98 14.993c0-2.262 1.86-4.122 4.13-4.122 2.26 0 4.12 1.86 4.12 4.122 0 2.262-1.86 4.122-4.12 4.122-2.27 0-4.13-1.86-4.13-4.122z" fill="url(#paint115_linear)"/><path d="M1429.5 74.345h-3.65v396.747h3.65V74.345z" fill="url(#paint116_linear)"/><path d="M1423.59 74.564c0-2.262 1.86-4.123 4.12-4.123s4.12 1.86 4.12 4.123c0 2.261-1.86 4.122-4.12 4.122-2.3 0-4.12-1.86-4.12-4.123z" fill="url(#paint117_linear)"/><path d="M1437.63 86.455h-3.65v372.562h3.65V86.455z" fill="url(#paint118_linear)"/><path d="M1431.69 86.674c0-2.262 1.86-4.122 4.12-4.122s4.12 1.86 4.12 4.122a4.115 4.115 0 01-4.12 4.122c-2.3 0-4.12-1.86-4.12-4.122z" fill="url(#paint119_linear)"/><defs><linearGradient id="paint0_linear" x1="18.31" y1="504.981" x2="18.31" y2="36.124" gradientUnits="userSpaceOnUse"><stop stop-color="#0F1145" stop-opacity="0"/><stop offset="1" stop-color="#fff" stop-opacity=".07"/></linearGradient><linearGradient id="paint1_linear" x1="18.32" y1="44.87" x2="18.32" y2="36.547" gradientUnits="userSpaceOnUse"><stop stop-color="#0F1145" stop-opacity="0"/><stop offset="1" stop-color="#fff" stop-opacity=".07"/></linearGradient><linearGradient id="paint2_linear" x1="44.21" y1="445.766" x2="44.21" y2="96.489" gradientUnits="userSpaceOnUse"><stop stop-color="#0F1145" stop-opacity="0"/><stop offset="1" stop-color="#fff" stop-opacity=".07"/></linearGradient><linearGradient id="paint3_linear" x1="44.256" y1="104.076" x2="44.256" y2="95.752" gradientUnits="userSpaceOnUse"><stop stop-color="#0F1145" stop-opacity="0"/><stop offset="1" stop-color="#fff" stop-opacity=".07"/></linearGradient><linearGradient id="paint4_linear" x1="30.056" y1="501.807" x2="30.056" y2="39.394" gradientUnits="userSpaceOnUse"><stop stop-color="#0F1145" stop-opacity="0"/><stop offset="1" stop-color="#fff" stop-opacity=".07"/></linearGradient><linearGradient id="paint5_linear" x1="30.066" y1="48.043" x2="30.066" y2="39.72" gradientUnits="userSpaceOnUse"><stop stop-color="#0F1145" stop-opacity="0"/><stop offset="1" stop-color="#fff" stop-opacity=".07"/></linearGradient><linearGradient id="paint6_linear" x1="101.665" y1="442.628" x2="101.665" y2="99.686" gradientUnits="userSpaceOnUse"><stop stop-color="#0F1145" stop-opacity="0"/><stop offset="1" stop-color="#fff" stop-opacity=".07"/></linearGradient><linearGradient id="paint7_linear" x1="101.674" y1="107.212" x2="101.674" y2="98.889" gradientUnits="userSpaceOnUse"><stop stop-color="#0F1145" stop-opacity="0"/><stop offset="1" stop-color="#fff" stop-opacity=".07"/></linearGradient><linearGradient id="paint8_linear" x1="163.278" y1="472.692" x2="163.278" y2="69.057" gradientUnits="userSpaceOnUse"><stop stop-color="#0F1145" stop-opacity="0"/><stop offset="1" stop-color="#fff" stop-opacity=".07"/></linearGradient><linearGradient id="paint9_linear" x1="163.288" y1="77.154" x2="163.288" y2="68.831" gradientUnits="userSpaceOnUse"><stop stop-color="#0F1145" stop-opacity="0"/><stop offset="1" stop-color="#fff" stop-opacity=".07"/></linearGradient><linearGradient id="paint10_linear" x1="89.846" y1="509.651" x2="89.846" y2="31.366" gradientUnits="userSpaceOnUse"><stop stop-color="#0F1145" stop-opacity="0"/><stop offset="1" stop-color="#fff" stop-opacity=".07"/></linearGradient><linearGradient id="paint11_linear" x1="89.855" y1="40.201" x2="89.855" y2="31.878" gradientUnits="userSpaceOnUse"><stop stop-color="#0F1145" stop-opacity="0"/><stop offset="1" stop-color="#fff" stop-opacity=".07"/></linearGradient><linearGradient id="paint12_linear" x1="111.697" y1="476.997" x2="111.697" y2="64.671" gradientUnits="userSpaceOnUse"><stop stop-color="#0F1145" stop-opacity="0"/><stop offset="1" stop-color="#fff" stop-opacity=".07"/></linearGradient><linearGradient id="paint13_linear" x1="111.706" y1="72.849" x2="111.706" y2="64.526" gradientUnits="userSpaceOnUse"><stop stop-color="#0F1145" stop-opacity="0"/><stop offset="1" stop-color="#fff" stop-opacity=".07"/></linearGradient><linearGradient id="paint14_linear" x1="206.907" y1="432.996" x2="206.907" y2="109.462" gradientUnits="userSpaceOnUse"><stop stop-color="#0F1145" stop-opacity="0"/><stop offset="1" stop-color="#fff" stop-opacity=".07"/></linearGradient><linearGradient id="paint15_linear" x1="206.953" y1="116.843" x2="206.953" y2="108.52" gradientUnits="userSpaceOnUse"><stop stop-color="#0F1145" stop-opacity="0"/><stop offset="1" stop-color="#fff" stop-opacity=".07"/></linearGradient><linearGradient id="paint16_linear" x1="188.85" y1="431.61" x2="188.85" y2="110.875" gradientUnits="userSpaceOnUse"><stop stop-color="#0F1145" stop-opacity="0"/><stop offset="1" stop-color="#fff" stop-opacity=".07"/></linearGradient><linearGradient id="paint17_linear" x1="188.86" y1="118.229" x2="188.86" y2="109.906" gradientUnits="userSpaceOnUse"><stop stop-color="#0F1145" stop-opacity="0"/><stop offset="1" stop-color="#fff" stop-opacity=".07"/></linearGradient><linearGradient id="paint18_linear" x1="284.717" y1="470.211" x2="284.717" y2="71.548" gradientUnits="userSpaceOnUse"><stop stop-color="#0F1145" stop-opacity="0"/><stop offset="1" stop-color="#fff" stop-opacity=".07"/></linearGradient><linearGradient id="paint19_linear" x1="284.727" y1="79.635" x2="284.727" y2="71.312" gradientUnits="userSpaceOnUse"><stop stop-color="#0F1145" stop-opacity="0"/><stop offset="1" stop-color="#fff" stop-opacity=".07"/></linearGradient><linearGradient id="paint20_linear" x1="296.828" y1="445.912" x2="296.828" y2="96.267" gradientUnits="userSpaceOnUse"><stop stop-color="#0F1145" stop-opacity="0"/><stop offset="1" stop-color="#fff" stop-opacity=".07"/></linearGradient><linearGradient id="paint21_linear" x1="296.874" y1="103.893" x2="296.874" y2="95.57" gradientUnits="userSpaceOnUse"><stop stop-color="#0F1145" stop-opacity="0"/><stop offset="1" stop-color="#fff" stop-opacity=".07"/></linearGradient><linearGradient id="paint22_linear" x1="244.882" y1="479.916" x2="244.882" y2="61.66" gradientUnits="userSpaceOnUse"><stop stop-color="#0F1145" stop-opacity="0"/><stop offset="1" stop-color="#fff" stop-opacity=".07"/></linearGradient><linearGradient id="paint23_linear" x1="244.891" y1="69.931" x2="244.891" y2="61.608" gradientUnits="userSpaceOnUse"><stop stop-color="#0F1145" stop-opacity="0"/><stop offset="1" stop-color="#fff" stop-opacity=".07"/></linearGradient><linearGradient id="paint24_linear" x1="356.617" y1="541.612" x2="356.617" y2="-1.159" gradientUnits="userSpaceOnUse"><stop stop-color="#0F1145" stop-opacity="0"/><stop offset="1" stop-color="#fff" stop-opacity=".07"/></linearGradient><linearGradient id="paint25_linear" x1="356.627" y1="8.245" x2="356.627" y2="-.078" gradientUnits="userSpaceOnUse"><stop stop-color="#0F1145" stop-opacity="0"/><stop offset="1" stop-color="#fff" stop-opacity=".07"/></linearGradient><linearGradient id="paint26_linear" x1="369.349" y1="511.402" x2="369.349" y2="29.582" gradientUnits="userSpaceOnUse"><stop stop-color="#0F1145" stop-opacity="0"/><stop offset="1" stop-color="#fff" stop-opacity=".07"/></linearGradient><linearGradient id="paint27_linear" x1="369.358" y1="38.45" x2="369.358" y2="30.127" gradientUnits="userSpaceOnUse"><stop stop-color="#0F1145" stop-opacity="0"/><stop offset="1" stop-color="#fff" stop-opacity=".07"/></linearGradient><linearGradient id="paint28_linear" x1="400.939" y1="527.018" x2="400.939" y2="13.71" gradientUnits="userSpaceOnUse"><stop stop-color="#0F1145" stop-opacity="0"/><stop offset="1" stop-color="#fff" stop-opacity=".07"/></linearGradient><linearGradient id="paint29_linear" x1="400.949" y1="22.837" x2="400.949" y2="14.514" gradientUnits="userSpaceOnUse"><stop stop-color="#0F1145" stop-opacity="0"/><stop offset="1" stop-color="#fff" stop-opacity=".07"/></linearGradient><linearGradient id="paint30_linear" x1="391.564" y1="513.445" x2="391.564" y2="27.537" gradientUnits="userSpaceOnUse"><stop stop-color="#0F1145" stop-opacity="0"/><stop offset="1" stop-color="#fff" stop-opacity=".07"/></linearGradient><linearGradient id="paint31_linear" x1="391.574" y1="36.407" x2="391.574" y2="28.084" gradientUnits="userSpaceOnUse"><stop stop-color="#0F1145" stop-opacity="0"/><stop offset="1" stop-color="#fff" stop-opacity=".07"/></linearGradient><linearGradient id="paint32_linear" x1="373.653" y1="468.167" x2="373.653" y2="73.666" gradientUnits="userSpaceOnUse"><stop stop-color="#0F1145" stop-opacity="0"/><stop offset="1" stop-color="#fff" stop-opacity=".07"/></linearGradient><linearGradient id="paint33_linear" x1="373.663" y1="81.677" x2="373.663" y2="73.354" gradientUnits="userSpaceOnUse"><stop stop-color="#0F1145" stop-opacity="0"/><stop offset="1" stop-color="#fff" stop-opacity=".07"/></linearGradient><linearGradient id="paint34_linear" x1="405.317" y1="506.367" x2="405.317" y2="34.711" gradientUnits="userSpaceOnUse"><stop stop-color="#0F1145" stop-opacity="0"/><stop offset="1" stop-color="#fff" stop-opacity=".07"/></linearGradient><linearGradient id="paint35_linear" x1="405.327" y1="43.483" x2="405.327" y2="35.16" gradientUnits="userSpaceOnUse"><stop stop-color="#0F1145" stop-opacity="0"/><stop offset="1" stop-color="#fff" stop-opacity=".07"/></linearGradient><linearGradient id="paint36_linear" x1="413.561" y1="440.767" x2="413.561" y2="101.545" gradientUnits="userSpaceOnUse"><stop stop-color="#0F1145" stop-opacity="0"/><stop offset="1" stop-color="#fff" stop-opacity=".07"/></linearGradient><linearGradient id="paint37_linear" x1="413.571" y1="109.073" x2="413.571" y2="100.75" gradientUnits="userSpaceOnUse"><stop stop-color="#0F1145" stop-opacity="0"/><stop offset="1" stop-color="#fff" stop-opacity=".07"/></linearGradient><linearGradient id="paint38_linear" x1="490.933" y1="482.397" x2="490.933" y2="59.133" gradientUnits="userSpaceOnUse"><stop stop-color="#0F1145" stop-opacity="0"/><stop offset="1" stop-color="#fff" stop-opacity=".07"/></linearGradient><linearGradient id="paint39_linear" x1="490.943" y1="67.451" x2="490.943" y2="59.127" gradientUnits="userSpaceOnUse"><stop stop-color="#0F1145" stop-opacity="0"/><stop offset="1" stop-color="#fff" stop-opacity=".07"/></linearGradient><linearGradient id="paint40_linear" x1="514.207" y1="433.58" x2="514.207" y2="108.868" gradientUnits="userSpaceOnUse"><stop stop-color="#0F1145" stop-opacity="0"/><stop offset="1" stop-color="#fff" stop-opacity=".07"/></linearGradient><linearGradient id="paint41_linear" x1="514.217" y1="116.26" x2="514.217" y2="107.937" gradientUnits="userSpaceOnUse"><stop stop-color="#0F1145" stop-opacity="0"/><stop offset="1" stop-color="#fff" stop-opacity=".07"/></linearGradient><linearGradient id="paint42_linear" x1="544.704" y1="440.257" x2="544.704" y2="102.102" gradientUnits="userSpaceOnUse"><stop stop-color="#0F1145" stop-opacity="0"/><stop offset="1" stop-color="#fff" stop-opacity=".07"/></linearGradient><linearGradient id="paint43_linear" x1="544.713" y1="109.584" x2="544.713" y2="101.261" gradientUnits="userSpaceOnUse"><stop stop-color="#0F1145" stop-opacity="0"/><stop offset="1" stop-color="#fff" stop-opacity=".07"/></linearGradient><linearGradient id="paint44_linear" x1="593.622" y1="494.546" x2="593.622" y2="46.755" gradientUnits="userSpaceOnUse"><stop stop-color="#0F1145" stop-opacity="0"/><stop offset="1" stop-color="#fff" stop-opacity=".07"/></linearGradient><linearGradient id="paint45_linear" x1="593.632" y1="55.303" x2="593.632" y2="46.98" gradientUnits="userSpaceOnUse"><stop stop-color="#0F1145" stop-opacity="0"/><stop offset="1" stop-color="#fff" stop-opacity=".07"/></linearGradient><linearGradient id="paint46_linear" x1="639.732" y1="540.152" x2="639.732" y2=".291" gradientUnits="userSpaceOnUse"><stop stop-color="#0F1145" stop-opacity="0"/><stop offset="1" stop-color="#fff" stop-opacity=".07"/></linearGradient><linearGradient id="paint47_linear" x1="639.741" y1="9.704" x2="639.741" y2="1.381" gradientUnits="userSpaceOnUse"><stop stop-color="#0F1145" stop-opacity="0"/><stop offset="1" stop-color="#fff" stop-opacity=".07"/></linearGradient><linearGradient id="paint48_linear" x1="650.894" y1="476.34" x2="650.894" y2="65.303" gradientUnits="userSpaceOnUse"><stop stop-color="#0F1145" stop-opacity="0"/><stop offset="1" stop-color="#fff" stop-opacity=".07"/></linearGradient><linearGradient id="paint49_linear" x1="650.904" y1="73.506" x2="650.904" y2="65.183" gradientUnits="userSpaceOnUse"><stop stop-color="#0F1145" stop-opacity="0"/><stop offset="1" stop-color="#fff" stop-opacity=".07"/></linearGradient><linearGradient id="paint50_linear" x1="661.036" y1="508.812" x2="661.036" y2="32.258" gradientUnits="userSpaceOnUse"><stop stop-color="#0F1145" stop-opacity="0"/><stop offset="1" stop-color="#fff" stop-opacity=".07"/></linearGradient><linearGradient id="paint51_linear" x1="661.082" y1="41.04" x2="661.082" y2="32.717" gradientUnits="userSpaceOnUse"><stop stop-color="#0F1145" stop-opacity="0"/><stop offset="1" stop-color="#fff" stop-opacity=".07"/></linearGradient><linearGradient id="paint52_linear" x1="667.821" y1="449.087" x2="667.821" y2="93.107" gradientUnits="userSpaceOnUse"><stop stop-color="#0F1145" stop-opacity="0"/><stop offset="1" stop-color="#fff" stop-opacity=".07"/></linearGradient><linearGradient id="paint53_linear" x1="667.83" y1="100.756" x2="667.83" y2="92.433" gradientUnits="userSpaceOnUse"><stop stop-color="#0F1145" stop-opacity="0"/><stop offset="1" stop-color="#fff" stop-opacity=".07"/></linearGradient><linearGradient id="paint54_linear" x1="726.443" y1="533.877" x2="726.443" y2="6.722" gradientUnits="userSpaceOnUse"><stop stop-color="#0F1145" stop-opacity="0"/><stop offset="1" stop-color="#fff" stop-opacity=".07"/></linearGradient><linearGradient id="paint55_linear" x1="726.452" y1="15.979" x2="726.452" y2="7.656" gradientUnits="userSpaceOnUse"><stop stop-color="#0F1145" stop-opacity="0"/><stop offset="1" stop-color="#fff" stop-opacity=".07"/></linearGradient><linearGradient id="paint56_linear" x1="738.262" y1="461.71" x2="738.262" y2="80.245" gradientUnits="userSpaceOnUse"><stop stop-color="#0F1145" stop-opacity="0"/><stop offset="1" stop-color="#fff" stop-opacity=".07"/></linearGradient><linearGradient id="paint57_linear" x1="738.272" y1="88.134" x2="738.272" y2="79.811" gradientUnits="userSpaceOnUse"><stop stop-color="#0F1145" stop-opacity="0"/><stop offset="1" stop-color="#fff" stop-opacity=".07"/></linearGradient><linearGradient id="paint58_linear" x1="784.481" y1="435.951" x2="784.481" y2="106.488" gradientUnits="userSpaceOnUse"><stop stop-color="#0F1145" stop-opacity="0"/><stop offset="1" stop-color="#fff" stop-opacity=".07"/></linearGradient><linearGradient id="paint59_linear" x1="784.491" y1="113.888" x2="784.491" y2="105.565" gradientUnits="userSpaceOnUse"><stop stop-color="#0F1145" stop-opacity="0"/><stop offset="1" stop-color="#fff" stop-opacity=".07"/></linearGradient><linearGradient id="paint60_linear" x1="739.502" y1="540.116" x2="739.502" y2=".328" gradientUnits="userSpaceOnUse"><stop stop-color="#0F1145" stop-opacity="0"/><stop offset="1" stop-color="#fff" stop-opacity=".07"/></linearGradient><linearGradient id="paint61_linear" x1="739.512" y1="9.74" x2="739.512" y2="1.417" gradientUnits="userSpaceOnUse"><stop stop-color="#0F1145" stop-opacity="0"/><stop offset="1" stop-color="#fff" stop-opacity=".07"/></linearGradient><linearGradient id="paint62_linear" x1="799.073" y1="486.337" x2="799.073" y2="55.155" gradientUnits="userSpaceOnUse"><stop stop-color="#0F1145" stop-opacity="0"/><stop offset="1" stop-color="#fff" stop-opacity=".07"/></linearGradient><linearGradient id="paint63_linear" x1="799.082" y1="63.51" x2="799.082" y2="55.187" gradientUnits="userSpaceOnUse"><stop stop-color="#0F1145" stop-opacity="0"/><stop offset="1" stop-color="#fff" stop-opacity=".07"/></linearGradient><linearGradient id="paint64_linear" x1="854.265" y1="492.795" x2="854.265" y2="48.575" gradientUnits="userSpaceOnUse"><stop stop-color="#0F1145" stop-opacity="0"/><stop offset="1" stop-color="#fff" stop-opacity=".07"/></linearGradient><linearGradient id="paint65_linear" x1="854.275" y1="57.053" x2="854.275" y2="48.73" gradientUnits="userSpaceOnUse"><stop stop-color="#0F1145" stop-opacity="0"/><stop offset="1" stop-color="#fff" stop-opacity=".07"/></linearGradient><linearGradient id="paint66_linear" x1="885.382" y1="514.321" x2="885.382" y2="26.571" gradientUnits="userSpaceOnUse"><stop stop-color="#0F1145" stop-opacity="0"/><stop offset="1" stop-color="#fff" stop-opacity=".07"/></linearGradient><linearGradient id="paint67_linear" x1="885.428" y1="35.495" x2="885.428" y2="27.172" gradientUnits="userSpaceOnUse"><stop stop-color="#0F1145" stop-opacity="0"/><stop offset="1" stop-color="#fff" stop-opacity=".07"/></linearGradient><linearGradient id="paint68_linear" x1="814.759" y1="526.179" x2="814.759" y2="14.491" gradientUnits="userSpaceOnUse"><stop stop-color="#0F1145" stop-opacity="0"/><stop offset="1" stop-color="#fff" stop-opacity=".07"/></linearGradient><linearGradient id="paint69_linear" x1="814.768" y1="23.639" x2="814.768" y2="15.316" gradientUnits="userSpaceOnUse"><stop stop-color="#0F1145" stop-opacity="0"/><stop offset="1" stop-color="#fff" stop-opacity=".07"/></linearGradient><linearGradient id="paint70_linear" x1="886.805" y1="434.309" x2="886.805" y2="108.087" gradientUnits="userSpaceOnUse"><stop stop-color="#0F1145" stop-opacity="0"/><stop offset="1" stop-color="#fff" stop-opacity=".07"/></linearGradient><linearGradient id="paint71_linear" x1="886.851" y1="115.493" x2="886.851" y2="107.17" gradientUnits="userSpaceOnUse"><stop stop-color="#0F1145" stop-opacity="0"/><stop offset="1" stop-color="#fff" stop-opacity=".07"/></linearGradient><linearGradient id="paint72_linear" x1="875.934" y1="463.79" x2="875.934" y2="78.09" gradientUnits="userSpaceOnUse"><stop stop-color="#0F1145" stop-opacity="0"/><stop offset="1" stop-color="#fff" stop-opacity=".07"/></linearGradient><linearGradient id="paint73_linear" x1="875.98" y1="86.055" x2="875.98" y2="77.732" gradientUnits="userSpaceOnUse"><stop stop-color="#0F1145" stop-opacity="0"/><stop offset="1" stop-color="#fff" stop-opacity=".07"/></linearGradient><linearGradient id="paint74_linear" x1="949.549" y1="527.711" x2="949.549" y2="12.93" gradientUnits="userSpaceOnUse"><stop stop-color="#0F1145" stop-opacity="0"/><stop offset="1" stop-color="#fff" stop-opacity=".07"/></linearGradient><linearGradient id="paint75_linear" x1="949.595" y1="22.107" x2="949.595" y2="13.784" gradientUnits="userSpaceOnUse"><stop stop-color="#0F1145" stop-opacity="0"/><stop offset="1" stop-color="#fff" stop-opacity=".07"/></linearGradient><linearGradient id="paint76_linear" x1="913.362" y1="430.151" x2="913.362" y2="112.399" gradientUnits="userSpaceOnUse"><stop stop-color="#0F1145" stop-opacity="0"/><stop offset="1" stop-color="#fff" stop-opacity=".07"/></linearGradient><linearGradient id="paint77_linear" x1="913.371" y1="119.689" x2="913.371" y2="111.366" gradientUnits="userSpaceOnUse"><stop stop-color="#0F1145" stop-opacity="0"/><stop offset="1" stop-color="#fff" stop-opacity=".07"/></linearGradient><linearGradient id="paint78_linear" x1="977.966" y1="466.088" x2="977.966" y2="75.748" gradientUnits="userSpaceOnUse"><stop stop-color="#0F1145" stop-opacity="0"/><stop offset="1" stop-color="#fff" stop-opacity=".07"/></linearGradient><linearGradient id="paint79_linear" x1="977.976" y1="83.757" x2="977.976" y2="75.433" gradientUnits="userSpaceOnUse"><stop stop-color="#0F1145" stop-opacity="0"/><stop offset="1" stop-color="#fff" stop-opacity=".07"/></linearGradient><linearGradient id="paint80_linear" x1="985.043" y1="459.229" x2="985.043" y2="82.773" gradientUnits="userSpaceOnUse"><stop stop-color="#0F1145" stop-opacity="0"/><stop offset="1" stop-color="#fff" stop-opacity=".07"/></linearGradient><linearGradient id="paint81_linear" x1="985.089" y1="90.615" x2="985.089" y2="82.292" gradientUnits="userSpaceOnUse"><stop stop-color="#0F1145" stop-opacity="0"/><stop offset="1" stop-color="#fff" stop-opacity=".07"/></linearGradient><linearGradient id="paint82_linear" x1="1061.1" y1="509.578" x2="1061.1" y2="31.44" gradientUnits="userSpaceOnUse"><stop stop-color="#0F1145" stop-opacity="0"/><stop offset="1" stop-color="#fff" stop-opacity=".07"/></linearGradient><linearGradient id="paint83_linear" x1="1061.11" y1="40.274" x2="1061.11" y2="31.951" gradientUnits="userSpaceOnUse"><stop stop-color="#0F1145" stop-opacity="0"/><stop offset="1" stop-color="#fff" stop-opacity=".07"/></linearGradient><linearGradient id="paint84_linear" x1="1015.58" y1="538.182" x2="1015.58" y2="2.335" gradientUnits="userSpaceOnUse"><stop stop-color="#0F1145" stop-opacity="0"/><stop offset="1" stop-color="#fff" stop-opacity=".07"/></linearGradient><linearGradient id="paint85_linear" x1="1015.59" y1="11.674" x2="1015.59" y2="3.351" gradientUnits="userSpaceOnUse"><stop stop-color="#0F1145" stop-opacity="0"/><stop offset="1" stop-color="#fff" stop-opacity=".07"/></linearGradient><linearGradient id="paint86_linear" x1="1057.45" y1="530.739" x2="1057.45" y2="9.881" gradientUnits="userSpaceOnUse"><stop stop-color="#0F1145" stop-opacity="0"/><stop offset="1" stop-color="#fff" stop-opacity=".07"/></linearGradient><linearGradient id="paint87_linear" x1="1057.46" y1="19.116" x2="1057.46" y2="10.793" gradientUnits="userSpaceOnUse"><stop stop-color="#0F1145" stop-opacity="0"/><stop offset="1" stop-color="#fff" stop-opacity=".07"/></linearGradient><linearGradient id="paint88_linear" x1="1161.75" y1="499.107" x2="1161.75" y2="42.108" gradientUnits="userSpaceOnUse"><stop stop-color="#0F1145" stop-opacity="0"/><stop offset="1" stop-color="#fff" stop-opacity=".07"/></linearGradient><linearGradient id="paint89_linear" x1="1161.76" y1="50.743" x2="1161.76" y2="42.42" gradientUnits="userSpaceOnUse"><stop stop-color="#0F1145" stop-opacity="0"/><stop offset="1" stop-color="#fff" stop-opacity=".07"/></linearGradient><linearGradient id="paint90_linear" x1="1157.3" y1="463.863" x2="1157.3" y2="78.016" gradientUnits="userSpaceOnUse"><stop stop-color="#0F1145" stop-opacity="0"/><stop offset="1" stop-color="#fff" stop-opacity=".07"/></linearGradient><linearGradient id="paint91_linear" x1="1157.34" y1="85.982" x2="1157.34" y2="77.659" gradientUnits="userSpaceOnUse"><stop stop-color="#0F1145" stop-opacity="0"/><stop offset="1" stop-color="#fff" stop-opacity=".07"/></linearGradient><linearGradient id="paint92_linear" x1="1214.5" y1="456.31" x2="1214.5" y2="85.71" gradientUnits="userSpaceOnUse"><stop stop-color="#0F1145" stop-opacity="0"/><stop offset="1" stop-color="#fff" stop-opacity=".07"/></linearGradient><linearGradient id="paint93_linear" x1="1214.51" y1="93.533" x2="1214.51" y2="85.21" gradientUnits="userSpaceOnUse"><stop stop-color="#0F1145" stop-opacity="0"/><stop offset="1" stop-color="#fff" stop-opacity=".07"/></linearGradient><linearGradient id="paint94_linear" x1="1160.8" y1="499.909" x2="1160.8" y2="41.291" gradientUnits="userSpaceOnUse"><stop stop-color="#0F1145" stop-opacity="0"/><stop offset="1" stop-color="#fff" stop-opacity=".07"/></linearGradient><linearGradient id="paint95_linear" x1="1160.81" y1="49.94" x2="1160.81" y2="41.617" gradientUnits="userSpaceOnUse"><stop stop-color="#0F1145" stop-opacity="0"/><stop offset="1" stop-color="#fff" stop-opacity=".07"/></linearGradient><linearGradient id="paint96_linear" x1="1181.96" y1="488.417" x2="1181.96" y2="52.963" gradientUnits="userSpaceOnUse"><stop stop-color="#0F1145" stop-opacity="0"/><stop offset="1" stop-color="#fff" stop-opacity=".07"/></linearGradient><linearGradient id="paint97_linear" x1="1181.97" y1="61.395" x2="1181.97" y2="53.072" gradientUnits="userSpaceOnUse"><stop stop-color="#0F1145" stop-opacity="0"/><stop offset="1" stop-color="#fff" stop-opacity=".07"/></linearGradient><linearGradient id="paint98_linear" x1="1238.06" y1="464.191" x2="1238.06" y2="77.718" gradientUnits="userSpaceOnUse"><stop stop-color="#0F1145" stop-opacity="0"/><stop offset="1" stop-color="#fff" stop-opacity=".07"/></linearGradient><linearGradient id="paint99_linear" x1="1238.07" y1="85.653" x2="1238.07" y2="77.33" gradientUnits="userSpaceOnUse"><stop stop-color="#0F1145" stop-opacity="0"/><stop offset="1" stop-color="#fff" stop-opacity=".07"/></linearGradient><linearGradient id="paint100_linear" x1="1217.74" y1="468.934" x2="1217.74" y2="72.849" gradientUnits="userSpaceOnUse"><stop stop-color="#0F1145" stop-opacity="0"/><stop offset="1" stop-color="#fff" stop-opacity=".07"/></linearGradient><linearGradient id="paint101_linear" x1="1217.75" y1="80.911" x2="1217.75" y2="72.588" gradientUnits="userSpaceOnUse"><stop stop-color="#0F1145" stop-opacity="0"/><stop offset="1" stop-color="#fff" stop-opacity=".07"/></linearGradient><linearGradient id="paint102_linear" x1="1241.75" y1="537.745" x2="1241.75" y2="2.745" gradientUnits="userSpaceOnUse"><stop stop-color="#0F1145" stop-opacity="0"/><stop offset="1" stop-color="#fff" stop-opacity=".07"/></linearGradient><linearGradient id="paint103_linear" x1="1241.76" y1="12.112" x2="1241.76" y2="3.789" gradientUnits="userSpaceOnUse"><stop stop-color="#0F1145" stop-opacity="0"/><stop offset="1" stop-color="#fff" stop-opacity=".07"/></linearGradient><linearGradient id="paint104_linear" x1="1301.21" y1="441.643" x2="1301.21" y2="100.689" gradientUnits="userSpaceOnUse"><stop stop-color="#0F1145" stop-opacity="0"/><stop offset="1" stop-color="#fff" stop-opacity=".07"/></linearGradient><linearGradient id="paint105_linear" x1="1301.22" y1="108.197" x2="1301.22" y2="99.874" gradientUnits="userSpaceOnUse"><stop stop-color="#0F1145" stop-opacity="0"/><stop offset="1" stop-color="#fff" stop-opacity=".07"/></linearGradient><linearGradient id="paint106_linear" x1="1373.07" y1="432.522" x2="1373.07" y2="109.945" gradientUnits="userSpaceOnUse"><stop stop-color="#0F1145" stop-opacity="0"/><stop offset="1" stop-color="#fff" stop-opacity=".07"/></linearGradient><linearGradient id="paint107_linear" x1="1373.12" y1="117.317" x2="1373.12" y2="108.994" gradientUnits="userSpaceOnUse"><stop stop-color="#0F1145" stop-opacity="0"/><stop offset="1" stop-color="#fff" stop-opacity=".07"/></linearGradient><linearGradient id="paint108_linear" x1="1380.19" y1="526.69" x2="1380.19" y2="14.007" gradientUnits="userSpaceOnUse"><stop stop-color="#0F1145" stop-opacity="0"/><stop offset="1" stop-color="#fff" stop-opacity=".07"/></linearGradient><linearGradient id="paint109_linear" x1="1380.19" y1="23.165" x2="1380.19" y2="14.842" gradientUnits="userSpaceOnUse"><stop stop-color="#0F1145" stop-opacity="0"/><stop offset="1" stop-color="#fff" stop-opacity=".07"/></linearGradient><linearGradient id="paint110_linear" x1="1342.17" y1="446.058" x2="1342.17" y2="96.118" gradientUnits="userSpaceOnUse"><stop stop-color="#0F1145" stop-opacity="0"/><stop offset="1" stop-color="#fff" stop-opacity=".07"/></linearGradient><linearGradient id="paint111_linear" x1="1342.18" y1="103.747" x2="1342.18" y2="95.424" gradientUnits="userSpaceOnUse"><stop stop-color="#0F1145" stop-opacity="0"/><stop offset="1" stop-color="#fff" stop-opacity=".07"/></linearGradient><linearGradient id="paint112_linear" x1="1410.72" y1="510.636" x2="1410.72" y2="30.362" gradientUnits="userSpaceOnUse"><stop stop-color="#0F1145" stop-opacity="0"/><stop offset="1" stop-color="#fff" stop-opacity=".07"/></linearGradient><linearGradient id="paint113_linear" x1="1410.76" y1="39.216" x2="1410.76" y2="30.892" gradientUnits="userSpaceOnUse"><stop stop-color="#0F1145" stop-opacity="0"/><stop offset="1" stop-color="#fff" stop-opacity=".07"/></linearGradient><linearGradient id="paint114_linear" x1="1438.11" y1="530.739" x2="1438.11" y2="9.881" gradientUnits="userSpaceOnUse"><stop stop-color="#0F1145" stop-opacity="0"/><stop offset="1" stop-color="#fff" stop-opacity=".07"/></linearGradient><linearGradient id="paint115_linear" x1="1438.12" y1="19.116" x2="1438.12" y2="10.793" gradientUnits="userSpaceOnUse"><stop stop-color="#0F1145" stop-opacity="0"/><stop offset="1" stop-color="#fff" stop-opacity=".07"/></linearGradient><linearGradient id="paint116_linear" x1="1427.68" y1="471.123" x2="1427.68" y2="70.582" gradientUnits="userSpaceOnUse"><stop stop-color="#0F1145" stop-opacity="0"/><stop offset="1" stop-color="#fff" stop-opacity=".07"/></linearGradient><linearGradient id="paint117_linear" x1="1427.73" y1="78.686" x2="1427.73" y2="70.363" gradientUnits="userSpaceOnUse"><stop stop-color="#0F1145" stop-opacity="0"/><stop offset="1" stop-color="#fff" stop-opacity=".07"/></linearGradient><linearGradient id="paint118_linear" x1="1435.82" y1="459.046" x2="1435.82" y2="82.922" gradientUnits="userSpaceOnUse"><stop stop-color="#0F1145" stop-opacity="0"/><stop offset="1" stop-color="#fff" stop-opacity=".07"/></linearGradient><linearGradient id="paint119_linear" x1="1435.83" y1="90.797" x2="1435.83" y2="82.474" gradientUnits="userSpaceOnUse"><stop stop-color="#0F1145" stop-opacity="0"/><stop offset="1" stop-color="#fff" stop-opacity=".07"/></linearGradient></defs></svg>