<svg width="37" height="31" fill="none" xmlns="http://www.w3.org/2000/svg"><path fill-rule="evenodd" clip-rule="evenodd" d="M36.813 7.965c.008.177.022.355.022.533.002 6.763.002 13.527.001 20.29 0 .99-.37 1.312-1.51 1.312-11.172 0-22.344-.008-33.517.015-.992.002-1.48-.405-1.476-1.278.032-6.78.018-13.56.019-20.34 0-.177.015-.355.022-.532l.205-.004 13.882-.003v5.557l1.895-1.302 1.093 1.282 1.143-1.233 1.136 1.212 1.115-1.26 1.884 1.299V7.959l13.881.002.205.004zM4.776 26.388c.227.01.357.022.487.022 1.285-.006 1.139.113 1.143-.94.003-1.03 0-2.058 0-3.152h1.422L5.58 19.334l-2.244 3.011h1.44v4.042zm8.098-4.05l-2.26-3.007-2.215 2.966 1.414.065v4.027c.223.01.372.021.52.02 1.224 0 1.095.095 1.097-.935.003-1.03 0-2.06 0-3.136h1.444zm-8.967 5.468h8.377v-.798H3.907v.798z" fill="#E9B44E"/><path fill-rule="evenodd" clip-rule="evenodd" d="M36.813 7.965l-.205-.004c-.158-.032-.317-.092-.476-.092-4.472-.004-8.945-.001-13.418 0-.042-.154-.098-.307-.125-.463-.216-1.243-.437-2.485-.637-3.73-.144-.898-.258-1.8-.386-2.701C25.365.973 29.163.97 32.962.97c.893 0 1.15.174 1.436.89.796 1.988 1.605 3.973 2.406 5.96.017.044.006.096.009.144zM.58 7.961l-.205.004c.467-1.23.93-2.461 1.403-3.69.31-.807.633-1.61.955-2.413.276-.688.611-.891 1.458-.891 3.81 0 7.62.002 11.43.004-.034.171-.075.342-.102.514-.16.993-.313 1.987-.476 2.98-.186 1.134-.38 2.267-.57 3.4-4.472-.001-8.945-.004-13.418 0-.159 0-.317.06-.476.092z" fill="#F5C763"/><path fill-rule="evenodd" clip-rule="evenodd" d="M14.473 7.87c.19-1.134.384-2.267.57-3.401.163-.993.316-1.987.476-2.98.027-.172.068-.343.102-.514h5.945c.128.9.242 1.803.386 2.702.2 1.244.42 2.486.637 3.729.027.156.083.309.125.463l-.03-.011h-8.18l-.03.011z" fill="#EDEEED"/><path fill-rule="evenodd" clip-rule="evenodd" d="M22.727 7.959v5.554l-1.884-1.298-1.115 1.26-1.136-1.213-1.143 1.233-1.093-1.281-1.895 1.3V7.96l.042.008h8.182l.042-.008z" fill="#DAD7DC"/><path fill-rule="evenodd" clip-rule="evenodd" d="M4.777 26.388v-4.042H3.336l2.244-3.011 2.248 2.982H6.406c0 1.094.003 2.123 0 3.153-.005 1.053.142.934-1.143.94-.13 0-.26-.011-.486-.022zm8.097-4.05H11.43c0 1.076.002 2.106 0 3.136-.003 1.03.126.935-1.097.936-.15 0-.298-.012-.521-.021v-4.027l-1.414-.065 2.215-2.966 2.26 3.007z" fill="#585B6C"/><path fill-rule="evenodd" clip-rule="evenodd" d="M3.907 27.806v-.798h8.377v.798H3.907z" fill="#575B6D"/><path fill-rule="evenodd" clip-rule="evenodd" d="M.58 7.98c.158-.038.316-.109.475-.11 4.473-.003 8.946 0 13.418.001l.031-.013v.129l-.043-.01L.579 7.98zm22.134-.109c4.473-.001 8.946-.004 13.418 0 .159 0 .318.071.476.11l-13.882-.004-.041.01-.002-.13.03.014z" fill="#F2CC7D"/><path fill-rule="evenodd" clip-rule="evenodd" d="M22.683 7.858l.002.129h-8.182l.001-.13h8.18z" fill="#E2D8C8"/></svg>