<svg width="36" height="36" fill="none" xmlns="http://www.w3.org/2000/svg"><path fill-rule="evenodd" clip-rule="evenodd" d="M5.578.2h22.23v.062c-.001 1.725-.003 3.45-.002 5.174 0 .765.543 1.233 1.441 1.235 1.998.003 3.996-.001 5.994-.003.002 8.043-.008 16.085.02 24.128.003.908-.754 1.67-1.936 1.633-.666-.022-1.333-.005-2-.005H6.365c-1.147 0-1.857-.58-1.857-1.556-.003-9.08 0-18.16 0-27.24.003-.659.007-1.318.007-1.977 0-.39.155-.723.486-.993.19-.155.385-.305.577-.458zm26.563 25.463l.07-.058V23.82H7.55v1.785l.07.058c.19.003.38.008.57.008h23.38c.19 0 .38-.005.571-.008zM7.645 13.187c.148.008.255.02.361.02 3.498.001 6.996-.003 10.494.008.346.001.399-.108.398-.364-.007-3.21-.01-6.421.005-9.632.001-.33-.141-.372-.474-.371-3.443.008-6.887.005-10.33.006-.145 0-.29.011-.454.018v10.315zm12.194 8.31h10.215c.613 0 1.226-.006 1.838.004.247.004.342-.066.333-.28-.015-.382-.004-.765-.004-1.148 0-.452 0-.453-.531-.453H8.073c-.068 0-.137.006-.204 0-.246-.023-.34.064-.333.277.014.394.03.79-.004 1.183-.028.337.106.426.498.425 3.937-.012 7.873-.007 11.81-.007zm-.006-4.174h8.25c1.238 0 2.477-.01 3.715.007.348.004.451-.093.43-.377-.026-.323-.006-.649-.007-.974 0-.468 0-.468-.552-.468H8.106c-.081 0-.164.006-.245-.002-.255-.023-.332.079-.324.285.013.37.029.743-.004 1.112-.031.337.106.426.498.425 3.934-.012 7.868-.008 11.802-.008zM7.566 29.841h6.424c1.51 0 3.022-.004 4.534.005.278.002.39-.062.376-.312-.021-.393-.03-.79.002-1.182.024-.308-.09-.39-.453-.389-3.486.012-6.972.007-10.457.008-.143 0-.286.013-.427.02v1.85zm14.213-16.668h10.405V11.36H21.78v1.814z" fill="#fff"/><path fill-rule="evenodd" clip-rule="evenodd" d="M31.325 32.424c.002.638.022 1.276.002 1.913-.026.855-.828 1.498-1.838 1.498H2.319c-1.028 0-1.776-.66-1.738-1.527.003-.08 0-.162 0-.243 0-9.569.002-19.137-.006-28.706 0-.544.1-1.012.612-1.397.383-.288.84-.312 1.28-.338.678-.04 1.36-.001 2.041.004 0 9.08-.003 18.16 0 27.24 0 .977.71 1.555 1.858 1.555l24.96.001z" fill="#4CDAC3"/><path fill-rule="evenodd" clip-rule="evenodd" d="M7.645 13.187V2.872c.164-.007.309-.018.454-.018 3.443-.001 6.887.002 10.33-.006.333-.001.475.042.474.371-.016 3.21-.012 6.422-.005 9.632.001.256-.052.365-.398.364-3.498-.011-6.995-.007-10.494-.008-.106 0-.212-.012-.36-.02z" fill="#83DAFE"/><path fill-rule="evenodd" clip-rule="evenodd" d="M19.84 21.498c-3.937 0-7.873-.005-11.81.007-.392.001-.526-.088-.498-.425.034-.392.018-.789.004-1.182-.008-.214.087-.301.333-.278.067.006.136 0 .204 0H31.69c.53 0 .53 0 .531.453 0 .383-.01.766.004 1.148.008.214-.087.284-.333.28-.612-.01-1.225-.003-1.838-.003H19.84z" fill="#CCD5DF"/><path fill-rule="evenodd" clip-rule="evenodd" d="M7.55 25.605V23.82h24.661v1.785l-.07.058c-.19.003-.38.008-.57.008H8.19c-.19 0-.38-.005-.57-.008a7.018 7.018 0 01-.07-.058z" fill="#ABB2B9"/><path fill-rule="evenodd" clip-rule="evenodd" d="M19.833 17.323c-3.934 0-7.868-.004-11.802.008-.391 0-.529-.087-.498-.425.033-.369.017-.742.004-1.112-.008-.206.07-.308.324-.285.081.008.164.002.245.002H31.67c.552 0 .552 0 .552.468 0 .325-.019.65.006.974.023.284-.081.381-.429.377-1.238-.017-2.477-.007-3.716-.007h-8.249z" fill="#CCD5DF"/><path fill-rule="evenodd" clip-rule="evenodd" d="M27.808.262c.513.429 1.03.854 1.54 1.286 1.276 1.086 2.555 2.17 3.82 3.265.704.609 1.383 1.237 2.073 1.856-1.997 0-3.995.005-5.994.002-.898-.002-1.44-.47-1.44-1.235-.002-1.725 0-3.45 0-5.174z" fill="#CDD5DF"/><path fill-rule="evenodd" clip-rule="evenodd" d="M7.566 29.841v-1.85c.14-.007.283-.02.426-.02 3.486-.001 6.971.004 10.457-.008.363-.002.478.081.453.389a8.863 8.863 0 00-.002 1.182c.014.25-.098.313-.376.312-1.511-.01-3.023-.005-4.534-.005H7.566z" fill="#ABB2B9"/><path fill-rule="evenodd" clip-rule="evenodd" d="M21.779 13.173V11.36h10.405v1.814H21.78z" fill="#FED05C"/><path fill-rule="evenodd" clip-rule="evenodd" d="M7.55 25.605l.253.215c-.085-.072-.17-.143-.253-.215zm24.591.215l.253-.215-.253.215z" fill="#B4BAC0"/></svg>