<svg width="18" height="23" fill="none" xmlns="http://www.w3.org/2000/svg"><path fill-rule="evenodd" clip-rule="evenodd" d="M9.484 22.244H9.18c-.165-.134-.367-.241-.49-.407-2.04-2.73-4.07-5.468-6.1-8.205C1.194 11.751.616 9.652.927 7.321A8.21 8.21 0 012.81 3.053C4.031 1.602 5.57.647 7.423.223c.435-.1.882-.15 1.323-.223h1.13c.055.012.11.03.167.036 1.168.104 2.28.415 3.296.993 2.547 1.448 4.043 3.633 4.386 6.545.255 2.164-.298 4.152-1.591 5.91-2.04 2.773-4.1 5.532-6.157 8.292-.134.18-.327.313-.493.468zm4.392-13.76c.01-2.509-2.024-4.56-4.542-4.578-2.514-.019-4.579 2.03-4.589 4.553-.01 2.508 2.025 4.56 4.542 4.578 2.514.019 4.579-2.03 4.59-4.553z" fill="#272243"/></svg>