<svg width="18" height="18" fill="none" xmlns="http://www.w3.org/2000/svg"><path fill-rule="evenodd" clip-rule="evenodd" d="M13.974 11.393a1.356 1.356 0 00-1.529.004l-.662.454a2.066 2.066 0 01-2.429-.067 22.66 22.66 0 01-1.912-1.65 22.647 22.647 0 01-1.65-1.913 2.066 2.066 0 01-.068-2.428l.455-.663c.316-.46.317-1.066.004-1.528L4.287.807A1.839 1.839 0 001.916.208a3.562 3.562 0 00-1.607 4.61 25.649 25.649 0 004.367 6.732l1.35 1.35a25.65 25.65 0 006.732 4.367 3.562 3.562 0 004.61-1.607 1.838 1.838 0 00-.6-2.37l-2.794-1.897z" fill="#fff"/></svg>