<svg width="55" height="39" fill="none" xmlns="http://www.w3.org/2000/svg"><path fill-rule="evenodd" clip-rule="evenodd" d="M53.638 23.418l.615.873v5.49h-3.65v1.9h3.65v2.744l-5.477-.01c-.032-.225-.058-.453-.097-.678-.326-1.893-1.407-3.167-3.241-3.697-1.766-.511-3.33-.052-4.618 1.277-.81.836-1.124 1.882-1.248 3.004l-.094.076-1.693.005-.001-22.874c2.637-.005 5.274-.015 7.912-.006.158 0 .38.11.464.24.74 1.131 1.456 2.279 2.179 3.421h-8.735v8.258h.64c3.428 0 6.856.003 10.285 0 1.036-.001 2.073-.015 3.11-.023z" fill="#FCB52F"/><path fill-rule="evenodd" clip-rule="evenodd" d="M54.253 31.68h-3.65v-1.9h3.65v1.9z" fill="#DCD9D3"/><path fill-rule="evenodd" clip-rule="evenodd" d="M.2.537c.472 0 .95-.048 1.415.008.778.095.279.712.36 1.078.051.239.245.721-.36.71-.47-.007-.943-.001-1.415-.001V.537z" fill="#DADADA"/><path fill-rule="evenodd" clip-rule="evenodd" d="M1.15 29.79c-.006-.176-.019-.351-.019-.527V5.121h34.772V7.82L5.08 7.823c-1.19 0-1.19 0-1.19 1.18 0 .712 0 .713.709.713l31.297.002c.005.584.01 1.168.017 1.752-.01.176-.027.351-.027.526v17.777l-.014.02h-16.42v1.878h16.426l.004 2.724c-.21.007-.42.02-.63.021H18.35c-.21 0-.42-.013-.63-.02l-.092-.075c-.032-.19-.066-.38-.095-.57-.264-1.7-1.2-2.91-2.772-3.555-1.59-.652-3.128-.44-4.516.598-1.174.878-1.69 2.108-1.82 3.53l-.097.08H1.146v-2.726h4.212c1.291 0 1.274 0 1.289-1.295.005-.457-.134-.613-.6-.606-1.632.025-3.264.011-4.897.012z" fill="#FCB52F"/><path fill-rule="evenodd" clip-rule="evenodd" d="M8.425 34.324c.13-1.422.646-2.652 1.82-3.53 1.388-1.039 2.925-1.25 4.516-.598 1.572.645 2.508 1.855 2.771 3.555.03.19.064.38.096.57a.103.103 0 00.001.097c-.119 1.465-.633 2.732-1.854 3.63-1.404 1.031-2.95 1.234-4.536.557-1.54-.657-2.473-1.862-2.722-3.55-.03-.209-.063-.417-.094-.626l.002-.105zm5.464.993V33.51h-1.736v1.807h1.736z" fill="#146198"/><path fill-rule="evenodd" clip-rule="evenodd" d="M39.571 34.321c.125-1.122.438-2.168 1.249-3.004 1.288-1.329 2.852-1.788 4.618-1.277 1.834.53 2.915 1.805 3.241 3.698.04.225.065.452.097.678-.106 1.487-.648 2.76-1.882 3.656-1.386 1.007-2.919 1.204-4.482.544-1.556-.657-2.501-1.867-2.746-3.574-.03-.208-.064-.416-.096-.624a.102.102 0 00.001-.097zm5.486-.799h-1.769v1.776h1.77v-1.776z" fill="#146098"/><path fill-rule="evenodd" clip-rule="evenodd" d="M35.897 9.718L4.6 9.716c-.71 0-.71 0-.71-.712 0-1.18 0-1.18 1.19-1.18l30.822-.005.05.21v1.486l-.055.203z" fill="#D18F13"/><path fill-rule="evenodd" clip-rule="evenodd" d="M53.638 23.418c-1.036.008-2.073.022-3.11.023-3.428.003-6.856 0-10.284 0h-.64v-1.26c.532-.218 1.08-.405 1.594-.66 2.658-1.316 4.981-3.082 6.993-5.261.17-.185.367-.345.551-.516 1.607 2.493 3.213 4.986 4.818 7.48.037.058.053.13.078.194z" fill="#6CBAC6"/><path fill-rule="evenodd" clip-rule="evenodd" d="M35.883 34.395l-.004-2.724-.007-1.878.015-.02c.033-.2.096-.4.096-.6.005-5.888.004-11.776.004-17.664l1.797.02v22.873l-1.901-.007z" fill="#FEA83D"/><path fill-rule="evenodd" clip-rule="evenodd" d="M48.742 15.744c-.184.171-.38.331-.551.516-2.012 2.179-4.335 3.945-6.993 5.261-.514.255-1.062.442-1.595.66v-6.998h8.736l.403.56z" fill="#87CDD8"/><path fill-rule="evenodd" clip-rule="evenodd" d="M10.32.535c1.951 0 3.903.01 5.855-.009.398-.004.507.12.505.51-.004 1.297.01 1.297-1.292 1.297-3.64 0-7.28-.01-10.92.01-.47.003-.597-.128-.587-.59C3.908.534 3.886.534 5.097.534h5.222z" fill="#DADADA"/><path fill-rule="evenodd" clip-rule="evenodd" d="M1.15 29.79c1.632-.002 3.265.012 4.897-.013.466-.007.605.149.6.607-.016 1.295.002 1.295-1.289 1.295H1.145l.005-1.89z" fill="#F36E27"/><path fill-rule="evenodd" clip-rule="evenodd" d="M36.018 11.509c0 5.888.001 11.776-.005 17.663 0 .2-.082.401-.126.602V11.996c0-.175.023-.35.035-.526.038.004.07.017.096.039zM8.46 34.324l-.003.132a.27.27 0 01-.13-.031l.132-.1z" fill="#FDBC5F"/><path fill-rule="evenodd" clip-rule="evenodd" d="M17.632 34.453a.148.148 0 010-.132l.116.103a.21.21 0 01-.116.03zm21.963-.132a.15.15 0 01-.002.132.213.213 0 01-.115-.03l.117-.102z" fill="#FEA83D"/><path fill-rule="evenodd" clip-rule="evenodd" d="M35.872 29.793l.007 1.878H19.453v-1.878h16.42z" fill="#F36C27"/><path fill-rule="evenodd" clip-rule="evenodd" d="M13.89 35.317h-1.737V33.51h1.737v1.807zm31.168-1.795v1.776h-1.77v-1.776h1.77z" fill="#D3D6D8"/></svg>