<svg width="19" height="19" fill="none" xmlns="http://www.w3.org/2000/svg"><path fill-rule="evenodd" clip-rule="evenodd" d="M4.045 11.028L3.409 13.4l-2.322.05A9.084 9.084 0 010 9.124a9.08 9.08 0 011.02-4.197l2.068.38.905 2.054a5.424 5.424 0 00-.292 1.763 5.4 5.4 0 00.344 1.903zM18.09 7.42a9.134 9.134 0 01-.04 3.61 9.124 9.124 0 01-3.212 5.211l-2.604-.133-.369-2.3a5.438 5.438 0 002.34-2.778h-4.88V7.42h8.766z" fill="#fff"/><path fill-rule="evenodd" clip-rule="evenodd" d="M14.837 16.24v.001a9.087 9.087 0 01-5.712 2.01 9.124 9.124 0 01-8.038-4.802l2.958-2.42a5.426 5.426 0 007.82 2.778l2.972 2.434zM14.95 2.1l-2.957 2.42a5.427 5.427 0 00-8 2.841L1.021 4.93A9.123 9.123 0 019.124 0a9.09 9.09 0 015.824 2.1z" fill="#fff"/></svg>