<svg width="19" height="16" fill="none" xmlns="http://www.w3.org/2000/svg"><path fill-rule="evenodd" clip-rule="evenodd" d="M18.74 2.204A7.041 7.041 0 0117.044 4c-.133.1-.175.198-.17.366.046 1.787-.343 3.483-1.114 5.09-.923 1.921-2.265 3.477-4.084 4.604-1.29.8-2.696 1.276-4.2 1.477-1.06.142-2.119.145-3.175-.007a10.73 10.73 0 01-4.264-1.57c-.009-.005-.014-.016-.037-.042 2.082.19 3.952-.32 5.645-1.592-1.764-.157-2.94-1.046-3.602-2.694.591.065 1.141.083 1.71-.078C1.522 9 .628 7.024.723 5.748c.268.102.53.224.805.3.274.076.561.106.856.133-.8-.613-1.337-1.385-1.555-2.364-.217-.975-.062-1.895.427-2.783 2.092 2.463 4.729 3.819 7.955 4.039-.021-.25-.051-.485-.06-.72C9.081 2.447 10.338.795 12.2.409c1.312-.272 2.48.069 3.465.986.116.108.212.142.369.104A8.081 8.081 0 0018.071.72c.052-.03.107-.055.198-.101-.296.902-.84 1.563-1.58 2.108.226-.042.453-.076.677-.128.227-.051.452-.114.674-.183.227-.072.45-.159.675-.239.008.01.016.019.025.027z" fill="#fff"/><path fill-rule="evenodd" clip-rule="evenodd" d="M6.886.01L6.94 0l-.022.053a.373.373 0 01-.03-.043z" fill="#04A9F3"/></svg>