<svg width="17" height="17" fill="none" xmlns="http://www.w3.org/2000/svg"><path d="M8.074 5.84A2.69 2.69 0 005.39 8.523a2.69 2.69 0 002.684 2.684 2.69 2.69 0 002.685-2.684 2.69 2.69 0 00-2.685-2.685zm8.052 2.684c0-1.112.01-2.213-.053-3.323-.062-1.289-.356-2.433-1.299-3.375C13.83.88 12.688.589 11.4.526 10.288.465 9.186.475 8.076.475c-1.111 0-2.213-.01-3.322.053-1.29.062-2.433.356-3.376 1.299C.434 2.77.142 3.912.08 5.2.017 6.313.027 7.414.027 8.524c0 1.11-.01 2.213.052 3.323.063 1.289.357 2.433 1.3 3.375.944.944 2.086 1.237 3.375 1.299 1.111.062 2.213.052 3.322.052 1.112 0 2.214.01 3.323-.052 1.29-.063 2.433-.357 3.376-1.299.944-.944 1.236-2.086 1.298-3.375.065-1.11.053-2.211.053-3.323zm-8.052 4.13a4.125 4.125 0 01-4.13-4.13 4.125 4.125 0 014.13-4.13 4.125 4.125 0 014.13 4.13 4.125 4.125 0 01-4.13 4.13zm4.3-7.465a.963.963 0 110-1.93.963.963 0 110 1.93z" fill="#fff" fill-opacity=".8"/></svg>