<svg width="14" height="18" fill="none" xmlns="http://www.w3.org/2000/svg"><path d="M.921 6.705c0-.732.128-1.424.38-2.07.242-.628.6-1.204 1.056-1.698a7.17 7.17 0 011.549-1.251A7.076 7.076 0 015.79.89 8.071 8.071 0 017.85.626c1.073 0 2.07.227 2.997.68a5.67 5.67 0 012.252 1.971c.578.862.865 1.837.865 2.924a9.27 9.27 0 01-.195 1.912 7.803 7.803 0 01-.608 1.802 6.223 6.223 0 01-1.02 1.523 4.447 4.447 0 01-1.476 1.049 4.67 4.67 0 01-1.926.393c-.46 0-.92-.109-1.374-.326-.454-.217-.78-.514-.976-.896-.069.265-.163.647-.288 1.147-.12.5-.201.822-.237.968a21.03 21.03 0 01-.21.722 4.88 4.88 0 01-.264.724l-.324.635c-.14.272-.297.536-.469.79-.17.246-.381.54-.633.88l-.14.05-.093-.102c-.101-1.067-.153-1.706-.153-1.917 0-.624.074-1.325.221-2.103a43.77 43.77 0 01.678-2.928c.307-1.173.482-1.863.529-2.068-.216-.44-.325-1.014-.325-1.72 0-.565.176-1.093.53-1.59.353-.496.8-.743 1.343-.743.415 0 .737.137.968.413.232.275.345.622.345 1.045 0 .448-.149 1.097-.448 1.945-.3.85-.449 1.484-.449 1.905 0 .426.153.783.458 1.063.301.28.7.431 1.11.423.373 0 .719-.085 1.04-.255.316-.166.59-.402.8-.69.457-.628.782-1.34.957-2.096.09-.398.16-.775.204-1.13.046-.357.066-.694.066-1.015 0-1.174-.373-2.09-1.114-2.745-.745-.655-1.715-.981-2.909-.981-1.357 0-2.491.439-3.4 1.32-.91.877-1.368 1.993-1.368 3.346 0 .299.045.587.131.866.084.278.175.499.274.663.098.16.19.318.274.463.085.145.13.249.13.31 0 .191-.05.439-.151.745-.105.306-.228.459-.377.459-.014 0-.073-.01-.174-.033a2.08 2.08 0 01-.922-.57 2.986 2.986 0 01-.621-.962 6.58 6.58 0 01-.331-1.1A4.6 4.6 0 01.92 6.704z" fill="#fff" fill-opacity=".8"/></svg>