<svg width="18" height="15" fill="none" xmlns="http://www.w3.org/2000/svg"><path d="M17.774 1.957a6.964 6.964 0 01-2 .537A3.464 3.464 0 0017.3.58a6.856 6.856 0 01-2.203.84A3.465 3.465 0 0012.56.32a3.472 3.472 0 00-3.473 3.475c0 .269.033.538.086.796A9.87 9.87 0 012.012.957a3.449 3.449 0 00-.473 1.753c0 1.206.613 2.27 1.548 2.894a3.503 3.503 0 01-1.57-.441v.042A3.474 3.474 0 004.3 8.615a3.678 3.678 0 01-.915.118 4.62 4.62 0 01-.655-.053 3.48 3.48 0 003.246 2.41 6.96 6.96 0 01-4.312 1.484c-.29 0-.56-.01-.839-.043A9.834 9.834 0 006.16 14.09c6.388 0 9.883-5.291 9.883-9.884 0-.15 0-.301-.01-.452a7.48 7.48 0 001.74-1.796z" fill="#fff" fill-opacity=".8"/></svg>