<svg width="49" height="47" fill="none" xmlns="http://www.w3.org/2000/svg"><path d="M22.598 1.854c.599-1.843 3.205-1.843 3.804 0l4.272 13.148a2 2 0 001.902 1.382h13.825c1.937 0 2.743 2.48 1.175 3.618l-11.184 8.126a2 2 0 00-.727 2.236l4.273 13.148c.598 1.843-1.51 3.375-3.078 2.236l-11.184-8.126a2 2 0 00-2.352 0L12.14 45.748c-1.567 1.139-3.676-.393-3.078-2.236l4.273-13.148a2 2 0 00-.727-2.236L1.424 20.002c-1.568-1.139-.762-3.618 1.175-3.618h13.825a2 2 0 001.902-1.382l4.272-13.148z" fill="#C4C4C4"/></svg>