<svg width="32" height="25" fill="none" xmlns="http://www.w3.org/2000/svg"><path d="M31.71 0l.097.192c-1.927 1.021-3.502 2.522-4.723 4.501-1.22 1.916-1.831 3.928-1.831 6.035 0 .32.032.575.096.766l.386.383c.193.064.45.128.771.192 1.67.255 2.988.99 3.952 2.203C31.486 15.422 32 16.826 32 18.487c0 1.851-.643 3.416-1.928 4.693-1.285 1.213-2.891 1.82-4.819 1.82-2.185 0-3.952-.734-5.301-2.203-1.35-1.469-2.024-3.416-2.024-5.843 0-3.831 1.285-7.375 3.855-10.632C24.353 3.065 27.663.958 31.711 0zM13.784 0l.097.192c-1.928 1.021-3.503 2.522-4.723 4.501-1.221 1.916-1.832 3.928-1.832 6.035 0 .32.032.575.097.766l.385.383c.193.064.45.128.771.192 1.671.255 2.988.99 3.952 2.203 1.028 1.15 1.542 2.554 1.542 4.215 0 1.851-.642 3.416-1.927 4.693C10.859 24.393 9.253 25 7.325 25c-2.184 0-3.952-.734-5.3-2.203C.674 21.328 0 19.38 0 16.954c0-3.831 1.285-7.375 3.855-10.632C6.425 3.065 9.735.958 13.783 0z" fill="#41EAD4"/></svg>