<svg width="126" height="41" fill="none" xmlns="http://www.w3.org/2000/svg"><path d="M60.493 16.305L59.3 18.64c-1.307-.74-2.67-1.167-3.665-1.167-.796 0-1.393.256-1.393.882 0 1.821 6.337.882 6.308 5.15 0 2.448-2.16 3.757-4.887 3.757-1.932 0-3.836-.57-5.2-1.68l1.108-2.332c1.25.967 2.87 1.508 4.177 1.508.881 0 1.506-.285 1.506-.94 0-1.934-6.222-.881-6.222-5.121 0-2.476 2.13-3.757 4.745-3.757 1.676.029 3.381.513 4.716 1.366zm14.52 3.302v7.569h-3.439V20.63c0-1.508-.88-2.447-2.358-2.447-1.705.028-2.756 1.309-2.756 3.073v5.919h-3.438V10.558h3.438v6.687c.853-1.508 2.273-2.248 4.149-2.248 2.67 0 4.404 1.792 4.404 4.61zm14.775 1.537c0 3.67-2.585 6.146-6.421 6.146-3.864 0-6.45-2.475-6.45-6.146 0-3.7 2.586-6.118 6.45-6.118 3.836 0 6.421 2.419 6.421 6.118zm-9.433.057c0 1.963 1.193 3.3 2.983 3.3 1.762 0 2.984-1.337 2.984-3.3 0-1.964-1.222-3.301-2.984-3.301-1.761-.029-2.983 1.309-2.983 3.3zm24.692-.001c0 3.643-2.216 6.09-5.569 6.09-1.676 0-2.983-.683-3.864-1.878v6.09h-3.438V15.14h3.438v1.764c.852-1.195 2.16-1.878 3.807-1.878 3.353 0 5.626 2.476 5.626 6.175zm-3.466-.113c0-1.935-1.194-3.3-2.984-3.3-1.761 0-2.983 1.365-2.983 3.3 0 1.992 1.222 3.33 2.983 3.33 1.762.028 2.984-1.338 2.984-3.33zm9.319-9.39c0 1.11-.767 1.935-1.847 1.935s-1.847-.797-1.847-1.935c0-1.11.767-1.935 1.847-1.935 1.08.028 1.847.825 1.847 1.935zm-3.58 15.451V15.14h3.438v12.037h-3.438v-.029zm12.559 1.366c-.853 2.134-2.33 3.159-4.404 3.159-1.279 0-2.273-.37-3.268-1.167l1.449-2.475c.54.455.995.654 1.563.654.71 0 1.25-.37 1.591-1.081l.341-.683-4.972-11.78h3.551l3.154 8.28 2.842-8.28h3.438l-5.285 13.373z" fill="#fff"/><path opacity=".8" d="M30.602 31.216c5.634 0 10.2-4.573 10.2-10.215 0-5.642-4.566-10.216-10.2-10.216-5.633 0-10.2 4.574-10.2 10.216 0 5.642 4.567 10.215 10.2 10.215z" fill="#8338EC"/><path opacity=".8" d="M10.2 31.216c5.634 0 10.201-4.573 10.201-10.215 0-5.642-4.567-10.216-10.2-10.216C4.566 10.785 0 15.36 0 21.001c0 5.642 4.567 10.215 10.2 10.215z" fill="#3A86FF"/><path opacity=".8" d="M20.4 20.431c5.634 0 10.201-4.574 10.201-10.215C30.601 4.574 26.034 0 20.401 0c-5.634 0-10.2 4.574-10.2 10.216 0 5.642 4.566 10.215 10.2 10.215z" fill="#FFBE0B"/><path opacity=".8" d="M20.4 40.72c5.634 0 10.201-4.574 10.201-10.216 0-5.642-4.567-10.216-10.2-10.216-5.634 0-10.2 4.574-10.2 10.216 0 5.642 4.566 10.215 10.2 10.215z" fill="#FB5607"/></svg>