<svg width="74" height="74" fill="none" xmlns="http://www.w3.org/2000/svg"><rect width="74" height="74" rx="37" fill="url(#paint0_linear)"/><g clip-path="url(#clip0)" fill="#fff"><path d="M50.825 18.002c-3.202 0-5.731 2.695-5.731 6.053s2.57 6.01 5.731 6.01c3.163 0 5.772-2.694 5.772-6.052 0-3.358-2.57-6.011-5.772-6.011zm0 10.737c-2.49 0-4.506-2.114-4.506-4.726s2.056-4.684 4.506-4.684c2.49 0 4.507 2.114 4.507 4.726 0 2.611-2.016 4.684-4.507 4.684z"/><path d="M52.644 24.967c-.04-.125-.04-.208-.119-.332-.04-.083-.079-.207-.158-.29-.079-.083-.118-.166-.197-.249-.08-.083-.159-.166-.277-.207-.08-.083-.198-.125-.277-.166-.118-.041-.198-.124-.316-.166a2.623 2.623 0 01-.316-.124c-.04 0-.119-.042-.159-.083-.04-.042-.118-.042-.158-.083-.04-.041-.118-.041-.158-.083l-.118-.124c-.04-.042-.08-.083-.08-.166-.039-.042-.039-.125-.039-.166v-.207c0-.042.04-.125.04-.166.04-.042.04-.125.079-.166l.118-.124a.295.295 0 01.198-.083c.079-.042.118-.042.197-.042h.238c.079 0 .118 0 .197.042.08 0 .159.041.198.041.04 0 .119.042.158.042.08 0 .119.041.158.041l.198.083.04-.249.078-.663v-.166l-.158-.041c-.04 0-.118-.042-.158-.042-.04 0-.079-.041-.158-.041-.04 0-.118-.042-.197-.042-.08 0-.12-.041-.198-.041h-.04v-.788h-.948v.829h-.04c-.118.042-.237.083-.356.166a.716.716 0 00-.276.207 1.75 1.75 0 00-.238.29c-.079.084-.118.208-.158.332l-.118.373c-.04.125-.04.29-.04.415 0 .124 0 .207.04.332.04.124.04.207.118.331.04.083.119.208.158.29.08.083.119.166.198.25.08.082.158.165.277.206.079.083.197.125.276.166.119.042.238.125.317.166.118.042.237.083.316.124.04 0 .118.042.158.083.04.042.119.042.158.083.04.042.08.083.119.083l.118.125c.04.041.04.082.08.166 0 .04.039.124.039.207v.207a.32.32 0 01-.08.166l-.118.124c-.04.042-.079.083-.158.125-.04.041-.118.041-.158.082-.04 0-.119.042-.198.042h-.513c-.08 0-.159-.041-.198-.041-.08 0-.158-.042-.237-.083-.08-.042-.158-.042-.238-.083-.039 0-.079-.042-.118-.042-.04 0-.08-.041-.119-.041l-.237-.125-.04.29-.078.747v.124l.118.042c.158-.042.237 0 .356.041a.716.716 0 00.277.083c.079.041.197.041.316.083a.842.842 0 00.316.041h.08v.829h.948v-.87h.04a1.37 1.37 0 00.355-.166c.119-.041.198-.124.316-.207a1.78 1.78 0 00.238-.29c.079-.083.118-.208.197-.332l.119-.373c.04-.125.04-.249.04-.415 0-.124 0-.207-.04-.331zm-4.586 5.887c-.197-.29-.632-.332-.909-.125l-6.404 5.348-8.261-3.607a.606.606 0 00-.593.083l-8.855 6.633a.683.683 0 00-.158.912.57.57 0 00.514.29.617.617 0 00.356-.124l8.578-6.426 8.3 3.607a.683.683 0 00.633-.083l6.68-5.555c.278-.207.317-.663.12-.953z"/><path d="M57.308 53.572h-2.925V34.377c0-.373-.277-.663-.632-.663H47.94c-.356 0-.633.29-.633.663v19.195h-2.134V41.01c0-.373-.277-.663-.633-.663h-5.85c-.356 0-.633.29-.633.663v12.562h-2.134V40.015c0-.373-.277-.663-.633-.663h-5.81c-.356 0-.633.29-.633.663v13.557h-2.135v-9.66c0-.373-.276-.663-.632-.663h-5.85c-.356 0-.633.29-.633.663v9.66h-2.965c-.355 0-.632.29-.632.663 0 .373.277.663.633.663h40.635c.355 0 .632-.29.632-.663a.587.587 0 00-.593-.663zm-31.9 0h-4.546v-8.996h4.546v8.996zm9.25 0h-4.546V40.679h4.546v12.893zm9.21 0h-4.546V41.674h4.546v11.898zm9.25 0h-4.546V35.04h4.546v18.53z"/></g><defs><linearGradient id="paint0_linear" x1="37" y1="0" x2="37" y2="74" gradientUnits="userSpaceOnUse"><stop stop-color="#D97F95"/><stop offset="1" stop-color="#923250"/></linearGradient><clipPath id="clip0"><path fill="#fff" transform="translate(16 18)" d="M0 0h42v37H0z"/></clipPath></defs></svg>