<svg width="74" height="74" fill="none" xmlns="http://www.w3.org/2000/svg"><rect width="74" height="74" rx="37" fill="url(#paint0_linear)"/><path d="M37 48.377A12.378 12.378 0 1149.377 36 12.391 12.391 0 0137 48.377zm0-23.62A11.242 11.242 0 1048.242 36 11.255 11.255 0 0037 24.758z" fill="#fff"/><path d="M37 45.444A9.445 9.445 0 1146.444 36 9.455 9.455 0 0137 45.444zm0-17.753A8.309 8.309 0 1045.31 36 8.319 8.319 0 0037 27.69z" fill="#fff"/><path d="M37.945 36.182H35.06a.567.567 0 01-.568-.568v-4.64a.567.567 0 01.568-.567h2.886a2.887 2.887 0 110 5.775zm-2.319-1.136h2.32a1.752 1.752 0 100-3.504h-2.32v3.505z" fill="#fff"/><path d="M38.683 40.824h-3.624a.568.568 0 01-.568-.567v-4.643a.568.568 0 01.568-.567h3.624a2.888 2.888 0 010 5.775v.002zm-3.057-1.135h3.057a1.752 1.752 0 100-3.505h-3.057v3.505zm-.567-8.147h-.829a.568.568 0 010-1.135h.829a.567.567 0 110 1.135z" fill="#fff"/><path d="M35.524 31.542a.567.567 0 01-.567-.568V29.93a.568.568 0 011.135 0v1.044a.568.568 0 01-.568.568zm1.808 0a.567.567 0 01-.568-.568V29.93a.568.568 0 011.135 0v1.044a.568.568 0 01-.567.568zm-1.808 10.324a.568.568 0 01-.567-.568v-1.041a.568.568 0 011.135 0V41.3a.568.568 0 01-.568.565zm1.808 0a.568.568 0 01-.568-.568v-1.041a.568.568 0 011.135 0V41.3a.568.568 0 01-.567.565z" fill="#fff"/><path d="M35.059 40.824h-.829a.567.567 0 110-1.135h.829a.568.568 0 010 1.135zM37 24.758a.567.567 0 01-.568-.568v-3.937a.568.568 0 111.136 0v3.937a.567.567 0 01-.568.568z" fill="#fff"/><path d="M37 20.821a2.343 2.343 0 110-4.685 2.343 2.343 0 010 4.685zm0-3.55a1.208 1.208 0 100 2.415 1.208 1.208 0 000-2.416zm0 35.043a.568.568 0 01-.568-.567V47.81a.567.567 0 111.136 0v3.937a.567.567 0 01-.568.567z" fill="#fff"/><path d="M37 55.865a2.343 2.343 0 110-4.685 2.343 2.343 0 010 4.685zm0-3.55a1.207 1.207 0 100 2.413 1.207 1.207 0 000-2.414zm15.747-15.747H48.81a.568.568 0 010-1.136h3.937a.568.568 0 010 1.136z" fill="#fff"/><path d="M54.521 38.343a2.343 2.343 0 110-4.687 2.343 2.343 0 010 4.687zm0-3.55a1.208 1.208 0 100 2.415 1.208 1.208 0 000-2.416zM25.19 36.568h-3.937a.568.568 0 010-1.136h3.937a.568.568 0 010 1.136z" fill="#fff"/><path d="M19.478 38.343a2.343 2.343 0 110-4.687 2.343 2.343 0 010 4.687zm0-3.55a1.208 1.208 0 100 2.415 1.208 1.208 0 000-2.416zm7.703 14.901H22.65a.568.568 0 010-1.135h4.218l2.27-3.641a.568.568 0 11.966.6l-2.436 3.909a.567.567 0 01-.487.267z" fill="#fff"/><path d="M20.875 51.47a2.343 2.343 0 11.001-4.686 2.343 2.343 0 010 4.686zm0-3.551a1.209 1.209 0 10.002 2.417 1.209 1.209 0 00-.002-2.417zm8.747-20.569a.568.568 0 01-.483-.268l-2.27-3.641h-4.22a.568.568 0 010-1.135h4.532a.567.567 0 01.482.267l2.436 3.909a.568.568 0 01-.477.868z" fill="#fff"/><path d="M20.875 25.216a2.343 2.343 0 11.001-4.685 2.343 2.343 0 010 4.685zm0-3.55a1.208 1.208 0 10.001 2.415 1.208 1.208 0 000-2.415zM51.35 49.694h-4.53a.568.568 0 01-.482-.267l-2.439-3.909a.568.568 0 11.965-.6l2.27 3.641h4.22a.568.568 0 010 1.135h-.003z" fill="#fff"/><path d="M53.125 51.47a2.343 2.343 0 110-4.687 2.343 2.343 0 010 4.687zm0-3.551a1.208 1.208 0 100 2.416 1.208 1.208 0 000-2.416zM44.379 27.35a.568.568 0 01-.482-.868l2.436-3.909a.568.568 0 01.482-.267h4.534a.568.568 0 010 1.135h-4.217l-2.27 3.641a.568.568 0 01-.483.268z" fill="#fff"/><path d="M53.125 25.216a2.343 2.343 0 110-4.686 2.343 2.343 0 010 4.686zm0-3.55a1.208 1.208 0 100 2.415 1.208 1.208 0 000-2.415z" fill="#fff"/><defs><linearGradient id="paint0_linear" x1="37" y1="0" x2="37" y2="74" gradientUnits="userSpaceOnUse"><stop stop-color="#84D8ED"/><stop offset="1" stop-color="#4292BB"/></linearGradient></defs></svg>