<svg width="917" height="27" fill="none" xmlns="http://www.w3.org/2000/svg"><path d="M12.284 26.18c-1.656 0-3.228-.336-4.716-1.008A12.667 12.667 0 013.68 22.4a13.306 13.306 0 01-2.592-4.176c-.624-1.584-.936-3.3-.936-5.148 0-1.752.312-3.396.936-4.932.624-1.56 1.5-2.928 2.628-4.104a12.42 12.42 0 013.96-2.772C9.188.596 10.832.26 12.608.26c2.4 0 4.452.516 6.156 1.548 1.728 1.008 3.024 2.352 3.888 4.032l-3.708 2.736c-.648-1.272-1.56-2.244-2.736-2.916a7.368 7.368 0 00-3.78-1.008c-1.08 0-2.064.228-2.952.684a7.205 7.205 0 00-2.304 1.872A8.914 8.914 0 005.66 9.944a10.516 10.516 0 00-.504 3.276c0 1.224.18 2.352.54 3.384a8.62 8.62 0 001.584 2.7 8.15 8.15 0 002.412 1.836c.912.432 1.92.648 3.024.648 1.296 0 2.532-.336 3.708-1.008 1.2-.672 2.316-1.656 3.348-2.952v4.896c-2.136 2.304-4.632 3.456-7.488 3.456zm7.128-9.684h-5.148V12.86h9.252V26h-4.104v-9.504zm27.526 5.148V26H29.19V.44h17.424v4.356H34.158v6.156h10.764v4.032H34.158v6.66h12.78zM71.367 4.796h-8.172V26h-4.932V4.796h-8.172V.44h21.276v4.356zM95.85 26.18c-2.04 0-3.78-.336-5.22-1.008-1.416-.696-2.568-1.644-3.456-2.844-.864-1.2-1.5-2.556-1.908-4.068a18.572 18.572 0 01-.612-4.788V.44h4.968v13.032c0 1.056.096 2.088.288 3.096a8.695 8.695 0 001.044 2.664 5.282 5.282 0 001.908 1.872c.792.456 1.776.684 2.952.684 1.2 0 2.196-.228 2.988-.684a5.197 5.197 0 001.908-1.908c.48-.792.828-1.68 1.044-2.664.216-1.008.324-2.028.324-3.06V.44h4.932v13.032c0 1.752-.216 3.396-.648 4.932-.408 1.536-1.068 2.892-1.98 4.068-.888 1.152-2.04 2.064-3.456 2.736-1.416.648-3.108.972-5.076.972zm17.604-.18V.44h10.836c1.176 0 2.256.24 3.24.72a8.125 8.125 0 012.556 1.944 9.101 9.101 0 011.728 2.736 8.182 8.182 0 01.612 3.096c0 1.44-.336 2.808-1.008 4.104a8.624 8.624 0 01-2.772 3.168c-1.176.816-2.568 1.224-4.176 1.224h-6.048V26h-4.968zm4.968-12.924h5.76c.6 0 1.14-.168 1.62-.504.48-.336.864-.816 1.152-1.44.288-.648.432-1.38.432-2.196 0-.888-.168-1.644-.504-2.268-.312-.624-.732-1.092-1.26-1.404a3.086 3.086 0 00-1.656-.468h-5.544v8.28zm46.067-8.28h-8.172V26h-4.932V4.796h-8.172V.44h21.276v4.356zm14.923 21.384c-1.872 0-3.576-.36-5.112-1.08a12.418 12.418 0 01-3.924-2.916 14.271 14.271 0 01-2.52-4.176c-.6-1.56-.9-3.156-.9-4.788 0-1.704.312-3.324.936-4.86a13.977 13.977 0 012.628-4.14 12.364 12.364 0 013.96-2.88c1.536-.72 3.216-1.08 5.04-1.08 1.848 0 3.528.372 5.04 1.116a12.1 12.1 0 013.924 2.988 14.271 14.271 0 012.52 4.176c.6 1.536.9 3.12.9 4.752 0 1.68-.312 3.3-.936 4.86a13.634 13.634 0 01-2.628 4.14 12.103 12.103 0 01-3.96 2.844c-1.512.696-3.168 1.044-4.968 1.044zm-7.416-12.96c0 1.104.168 2.172.504 3.204a9.223 9.223 0 001.44 2.772 7.513 7.513 0 002.34 1.908c.936.456 1.992.684 3.168.684 1.2 0 2.268-.24 3.204-.72a7.205 7.205 0 002.34-1.98 9.152 9.152 0 001.404-2.772 9.95 9.95 0 00.504-3.096c0-1.104-.18-2.16-.54-3.168a8.362 8.362 0 00-1.476-2.736 6.47 6.47 0 00-2.34-1.908c-.912-.48-1.944-.72-3.096-.72-1.224 0-2.304.252-3.24.756a6.928 6.928 0 00-2.304 1.944 9.32 9.32 0 00-1.44 2.736 10.412 10.412 0 00-.468 3.096zM205.948 26c0-1.08.084-2.052.252-2.916a8.262 8.262 0 01.864-2.412c.432-.744 1.008-1.44 1.728-2.088.744-.672 1.68-1.32 2.808-1.944.984-.528 1.848-.984 2.592-1.368.744-.408 1.368-.78 1.872-1.116.528-.336.924-.672 1.188-1.008.264-.36.396-.768.396-1.224 0-.48-.132-.912-.396-1.296a2.767 2.767 0 00-1.116-.972c-.48-.24-1.08-.36-1.8-.36-.576 0-1.116.072-1.62.216-.48.144-.936.348-1.368.612a8.272 8.272 0 00-1.152.9c-.36.312-.684.648-.972 1.008l-3.06-3.528a9.87 9.87 0 011.332-1.08c.576-.408 1.248-.78 2.016-1.116.792-.36 1.656-.648 2.592-.864.96-.24 1.98-.36 3.06-.36 1.632 0 3.024.264 4.176.792 1.152.504 2.028 1.212 2.628 2.124.624.912.936 1.98.936 3.204 0 .84-.156 1.584-.468 2.232a6.703 6.703 0 01-1.188 1.728c-.48.48-1.008.912-1.584 1.296a17.63 17.63 0 01-1.62 1.008c-.744.384-1.416.744-2.016 1.08-.6.312-1.128.636-1.584.972a10.38 10.38 0 00-1.224.972 6.17 6.17 0 00-.9 1.152h10.98V26h-17.352zm40.732-10.548c0 2.112-.408 3.996-1.224 5.652-.792 1.632-1.896 2.916-3.312 3.852-1.392.936-2.976 1.404-4.752 1.404-1.776 0-3.372-.468-4.788-1.404-1.392-.936-2.496-2.22-3.312-3.852-.792-1.656-1.188-3.54-1.188-5.652s.396-3.984 1.188-5.616c.816-1.656 1.92-2.952 3.312-3.888 1.416-.96 3.012-1.44 4.788-1.44 1.776 0 3.36.48 4.752 1.44 1.416.936 2.52 2.232 3.312 3.888.816 1.632 1.224 3.504 1.224 5.616zm-4.86 0c0-1.296-.192-2.424-.576-3.384-.36-.984-.876-1.752-1.548-2.304a3.528 3.528 0 00-2.304-.828c-.888 0-1.668.276-2.34.828-.672.552-1.2 1.32-1.584 2.304-.36.96-.54 2.088-.54 3.384 0 1.296.18 2.424.54 3.384.384.96.912 1.716 1.584 2.268a3.578 3.578 0 002.34.828 3.39 3.39 0 002.268-.828c.672-.552 1.2-1.308 1.584-2.268.384-.984.576-2.112.576-3.384zm15.273-4.464c-1.104 0-2.1-.24-2.988-.72a6.347 6.347 0 01-2.16-1.98 5.106 5.106 0 01-.792-2.772c0-1.008.264-1.92.792-2.736a5.904 5.904 0 012.16-1.98c.888-.48 1.884-.72 2.988-.72s2.1.24 2.988.72a5.55 5.55 0 012.16 1.98c.528.816.792 1.728.792 2.736a5.106 5.106 0 01-.792 2.772c-.528.816-1.248 1.476-2.16 1.98-.888.48-1.884.72-2.988.72zm0-2.412c.48 0 .912-.144 1.296-.432.384-.288.684-.66.9-1.116.24-.456.36-.948.36-1.476 0-.576-.12-1.092-.36-1.548a2.945 2.945 0 00-.936-1.08 2.055 2.055 0 00-1.26-.432c-.48 0-.912.144-1.296.432a2.945 2.945 0 00-.936 1.08c-.216.456-.324.96-.324 1.512s.12 1.068.36 1.548c.24.456.552.828.936 1.116.384.264.804.396 1.26.396zm13.896 17.784c-1.104 0-2.1-.24-2.988-.72a6.02 6.02 0 01-2.16-1.944 5.106 5.106 0 01-.792-2.772c0-1.032.264-1.956.792-2.772a6.02 6.02 0 012.16-1.944c.888-.504 1.884-.756 2.988-.756s2.1.252 2.988.756c.912.48 1.632 1.128 2.16 1.944.528.816.792 1.728.792 2.736a5.106 5.106 0 01-.792 2.772c-.528.816-1.248 1.476-2.16 1.98-.888.48-1.884.72-2.988.72zm0-2.412c.48 0 .912-.144 1.296-.432.384-.288.684-.66.9-1.116.24-.456.36-.948.36-1.476 0-.576-.12-1.092-.36-1.548a2.564 2.564 0 00-.936-1.08 2.055 2.055 0 00-1.26-.432 2.21 2.21 0 00-1.296.432c-.384.264-.696.636-.936 1.116a3.404 3.404 0 00-.324 1.476 3.273 3.273 0 001.296 2.664c.384.264.804.396 1.26.396zm-17.784.36l10.116-11.844 9.36-12.312 2.196 1.944-9.864 11.664-9.648 12.492-2.16-1.944zM292.387 26V.44h9.288c2.784 0 5.112.576 6.984 1.728 1.872 1.128 3.276 2.664 4.212 4.608.936 1.92 1.404 4.056 1.404 6.408 0 2.592-.516 4.848-1.548 6.768a10.928 10.928 0 01-4.392 4.464c-1.872 1.056-4.092 1.584-6.66 1.584h-9.288zm16.884-12.816c0-1.656-.3-3.108-.9-4.356-.6-1.272-1.464-2.256-2.592-2.952-1.128-.72-2.496-1.08-4.104-1.08h-4.32v16.848h4.32c1.632 0 3.012-.36 4.14-1.08 1.128-.744 1.98-1.752 2.556-3.024.6-1.296.9-2.748.9-4.356zM319.596 26V.44h4.968V26h-4.968zm26.969-18.864c-.168-.168-.48-.396-.936-.684-.432-.288-.972-.564-1.62-.828a14.683 14.683 0 00-2.052-.684 8.095 8.095 0 00-2.268-.324c-1.344 0-2.364.252-3.06.756-.672.504-1.008 1.212-1.008 2.124 0 .696.216 1.248.648 1.656.432.408 1.08.756 1.944 1.044.864.288 1.944.6 3.24.936 1.68.408 3.132.912 4.356 1.512 1.248.576 2.196 1.344 2.844 2.304.672.936 1.008 2.184 1.008 3.744 0 1.368-.252 2.544-.756 3.528-.504.96-1.2 1.74-2.088 2.34a9.588 9.588 0 01-3.024 1.332 15.762 15.762 0 01-3.6.396c-1.272 0-2.544-.132-3.816-.396a20.973 20.973 0 01-3.672-1.116 17.584 17.584 0 01-3.24-1.8l2.196-4.284c.216.216.6.504 1.152.864.552.336 1.224.684 2.016 1.044.792.336 1.656.624 2.592.864.936.24 1.884.36 2.844.36 1.344 0 2.364-.228 3.06-.684.696-.456 1.044-1.104 1.044-1.944 0-.768-.276-1.368-.828-1.8-.552-.432-1.32-.804-2.304-1.116a73.21 73.21 0 00-3.492-1.08c-1.608-.456-2.952-.96-4.032-1.512-1.08-.576-1.884-1.296-2.412-2.16-.528-.864-.792-1.944-.792-3.24 0-1.752.408-3.216 1.224-4.392.84-1.2 1.968-2.1 3.384-2.7 1.416-.624 2.988-.936 4.716-.936 1.2 0 2.328.132 3.384.396a16.61 16.61 0 013.024 1.044c.936.432 1.776.9 2.52 1.404l-2.196 4.032zm6.742 5.904c0-1.56.276-3.084.828-4.572a13.328 13.328 0 012.484-4.104c1.08-1.248 2.4-2.232 3.96-2.952 1.56-.744 3.336-1.116 5.328-1.116 2.352 0 4.38.516 6.084 1.548 1.728 1.032 3.012 2.376 3.852 4.032l-3.816 2.628c-.432-.96-.996-1.716-1.692-2.268-.696-.576-1.44-.972-2.232-1.188a8.04 8.04 0 00-2.34-.36c-1.248 0-2.34.252-3.276.756a7.33 7.33 0 00-2.304 1.98 8.699 8.699 0 00-1.404 2.736 10.962 10.962 0 00-.432 3.024c0 1.128.18 2.22.54 3.276a9.394 9.394 0 001.512 2.772 7.939 7.939 0 002.376 1.908c.936.456 1.956.684 3.06.684.792 0 1.596-.132 2.412-.396a6.84 6.84 0 002.268-1.26c.696-.576 1.236-1.32 1.62-2.232l4.068 2.34c-.504 1.272-1.332 2.352-2.484 3.24-1.128.888-2.4 1.56-3.816 2.016a13.68 13.68 0 01-4.212.684c-1.824 0-3.492-.372-5.004-1.116a13.119 13.119 0 01-3.924-3.024 15.295 15.295 0 01-2.556-4.248c-.6-1.584-.9-3.18-.9-4.788zm38.259 13.14c-1.872 0-3.576-.36-5.112-1.08a12.418 12.418 0 01-3.924-2.916 14.271 14.271 0 01-2.52-4.176c-.6-1.56-.9-3.156-.9-4.788 0-1.704.312-3.324.936-4.86a13.977 13.977 0 012.628-4.14 12.364 12.364 0 013.96-2.88c1.536-.72 3.216-1.08 5.04-1.08 1.848 0 3.528.372 5.04 1.116a12.1 12.1 0 013.924 2.988 14.271 14.271 0 012.52 4.176c.6 1.536.9 3.12.9 4.752 0 1.68-.312 3.3-.936 4.86a13.634 13.634 0 01-2.628 4.14 12.103 12.103 0 01-3.96 2.844c-1.512.696-3.168 1.044-4.968 1.044zm-7.416-12.96c0 1.104.168 2.172.504 3.204a9.223 9.223 0 001.44 2.772 7.513 7.513 0 002.34 1.908c.936.456 1.992.684 3.168.684 1.2 0 2.268-.24 3.204-.72a7.205 7.205 0 002.34-1.98 9.152 9.152 0 001.404-2.772 9.95 9.95 0 00.504-3.096c0-1.104-.18-2.16-.54-3.168a8.362 8.362 0 00-1.476-2.736 6.47 6.47 0 00-2.34-1.908c-.912-.48-1.944-.72-3.096-.72-1.224 0-2.304.252-3.24.756a6.928 6.928 0 00-2.304 1.944 9.32 9.32 0 00-1.44 2.736 10.412 10.412 0 00-.468 3.096zm35.995 12.96c-2.04 0-3.78-.336-5.22-1.008-1.416-.696-2.568-1.644-3.456-2.844-.864-1.2-1.5-2.556-1.908-4.068a18.572 18.572 0 01-.612-4.788V.44h4.968v13.032c0 1.056.096 2.088.288 3.096a8.695 8.695 0 001.044 2.664 5.282 5.282 0 001.908 1.872c.792.456 1.776.684 2.952.684 1.2 0 2.196-.228 2.988-.684a5.196 5.196 0 001.908-1.908c.48-.792.828-1.68 1.044-2.664.216-1.008.324-2.028.324-3.06V.44h4.932v13.032c0 1.752-.216 3.396-.648 4.932-.408 1.536-1.068 2.892-1.98 4.068-.888 1.152-2.04 2.064-3.456 2.736-1.416.648-3.108.972-5.076.972zm22.572-16.596V26h-4.968V.44h3.96l13.212 16.848V.476h4.968V26h-4.14L442.717 9.584zm43.045-4.788h-8.172V26h-4.932V4.796h-8.172V.44h21.276v4.356zM499.409 26V.44h4.968V26h-4.968zm11.741 0V.44h17.172v4.356h-12.204v6.588h10.152v4.032h-10.152V26h-4.968zM543.98.44l6.3 12.024L556.688.44h5.364l-9.288 16.632V26h-4.932v-9L538.58.44h5.4zm31.581 25.74c-1.872 0-3.576-.36-5.112-1.08a12.418 12.418 0 01-3.924-2.916 14.271 14.271 0 01-2.52-4.176c-.6-1.56-.9-3.156-.9-4.788 0-1.704.312-3.324.936-4.86a13.977 13.977 0 012.628-4.14 12.364 12.364 0 013.96-2.88c1.536-.72 3.216-1.08 5.04-1.08 1.848 0 3.528.372 5.04 1.116a12.1 12.1 0 013.924 2.988 14.271 14.271 0 012.52 4.176c.6 1.536.9 3.12.9 4.752 0 1.68-.312 3.3-.936 4.86a13.634 13.634 0 01-2.628 4.14 12.103 12.103 0 01-3.96 2.844c-1.512.696-3.168 1.044-4.968 1.044zm-7.416-12.96c0 1.104.168 2.172.504 3.204a9.223 9.223 0 001.44 2.772 7.513 7.513 0 002.34 1.908c.936.456 1.992.684 3.168.684 1.2 0 2.268-.24 3.204-.72a7.205 7.205 0 002.34-1.98 9.152 9.152 0 001.404-2.772 9.95 9.95 0 00.504-3.096c0-1.104-.18-2.16-.54-3.168a8.362 8.362 0 00-1.476-2.736 6.47 6.47 0 00-2.34-1.908c-.912-.48-1.944-.72-3.096-.72-1.224 0-2.304.252-3.24.756a6.928 6.928 0 00-2.304 1.944 9.32 9.32 0 00-1.44 2.736 10.412 10.412 0 00-.468 3.096zm35.995 12.96c-2.04 0-3.78-.336-5.22-1.008-1.416-.696-2.568-1.644-3.456-2.844-.864-1.2-1.5-2.556-1.908-4.068a18.572 18.572 0 01-.612-4.788V.44h4.968v13.032c0 1.056.096 2.088.288 3.096a8.695 8.695 0 001.044 2.664 5.282 5.282 0 001.908 1.872c.792.456 1.776.684 2.952.684 1.2 0 2.196-.228 2.988-.684A5.196 5.196 0 00609 19.196c.48-.792.828-1.68 1.044-2.664.216-1.008.324-2.028.324-3.06V.44h4.932v13.032c0 1.752-.216 3.396-.648 4.932-.408 1.536-1.068 2.892-1.98 4.068-.888 1.152-2.04 2.064-3.456 2.736-1.416.648-3.108.972-5.076.972zm27.693-.18V.44h11.304c1.176 0 2.256.24 3.24.72a8.006 8.006 0 012.592 1.944 8.548 8.548 0 011.692 2.736 8.182 8.182 0 01.612 3.096c0 1.08-.192 2.124-.576 3.132a7.545 7.545 0 01-1.584 2.592 7.326 7.326 0 01-2.448 1.728L652.497 26h-5.472l-5.256-8.568h-4.968V26h-4.968zm4.968-12.924h6.228c.624 0 1.176-.18 1.656-.54.48-.384.864-.888 1.152-1.512.288-.624.432-1.32.432-2.088 0-.816-.168-1.524-.504-2.124-.336-.624-.768-1.116-1.296-1.476a2.788 2.788 0 00-1.656-.54h-6.012v8.28zm38.161 8.568V26h-17.748V.44h17.424v4.356h-12.456v6.156h10.764v4.032h-10.764v6.66h12.78zm15.476 4.536c-1.656 0-3.228-.336-4.716-1.008a12.667 12.667 0 01-3.888-2.772 13.306 13.306 0 01-2.592-4.176c-.624-1.584-.936-3.3-.936-5.148 0-1.752.312-3.396.936-4.932.624-1.56 1.5-2.928 2.628-4.104a12.42 12.42 0 013.96-2.772C687.342.596 688.986.26 690.762.26c2.4 0 4.452.516 6.156 1.548 1.728 1.008 3.024 2.352 3.888 4.032l-3.708 2.736c-.648-1.272-1.56-2.244-2.736-2.916a7.368 7.368 0 00-3.78-1.008c-1.08 0-2.064.228-2.952.684a7.205 7.205 0 00-2.304 1.872 8.914 8.914 0 00-1.512 2.736 10.516 10.516 0 00-.504 3.276c0 1.224.18 2.352.54 3.384a8.62 8.62 0 001.584 2.7 8.15 8.15 0 002.412 1.836c.912.432 1.92.648 3.024.648 1.296 0 2.532-.336 3.708-1.008 1.2-.672 2.316-1.656 3.348-2.952v4.896c-2.136 2.304-4.632 3.456-7.488 3.456zm7.128-9.684h-5.148V12.86h9.252V26h-4.104v-9.504zM707.344 26V.44h4.968V26h-4.968zm26.969-18.864c-.168-.168-.48-.396-.936-.684-.432-.288-.972-.564-1.62-.828a14.683 14.683 0 00-2.052-.684 8.095 8.095 0 00-2.268-.324c-1.344 0-2.364.252-3.06.756-.672.504-1.008 1.212-1.008 2.124 0 .696.216 1.248.648 1.656.432.408 1.08.756 1.944 1.044.864.288 1.944.6 3.24.936 1.68.408 3.132.912 4.356 1.512 1.248.576 2.196 1.344 2.844 2.304.672.936 1.008 2.184 1.008 3.744 0 1.368-.252 2.544-.756 3.528-.504.96-1.2 1.74-2.088 2.34a9.588 9.588 0 01-3.024 1.332 15.762 15.762 0 01-3.6.396c-1.272 0-2.544-.132-3.816-.396a20.973 20.973 0 01-3.672-1.116 17.584 17.584 0 01-3.24-1.8l2.196-4.284c.216.216.6.504 1.152.864.552.336 1.224.684 2.016 1.044.792.336 1.656.624 2.592.864.936.24 1.884.36 2.844.36 1.344 0 2.364-.228 3.06-.684.696-.456 1.044-1.104 1.044-1.944 0-.768-.276-1.368-.828-1.8-.552-.432-1.32-.804-2.304-1.116a73.21 73.21 0 00-3.492-1.08c-1.608-.456-2.952-.96-4.032-1.512-1.08-.576-1.884-1.296-2.412-2.16-.528-.864-.792-1.944-.792-3.24 0-1.752.408-3.216 1.224-4.392.84-1.2 1.968-2.1 3.384-2.7 1.416-.624 2.988-.936 4.716-.936 1.2 0 2.328.132 3.384.396a16.61 16.61 0 013.024 1.044c.936.432 1.776.9 2.52 1.404l-2.196 4.032zm27.406-2.34h-8.172V26h-4.932V4.796h-8.172V.44h21.276v4.356zm22.361 16.848V26h-17.748V.44h17.424v4.356H771.3v6.156h10.764v4.032H771.3v6.66h12.78zM789.393 26V.44h11.304c1.176 0 2.256.24 3.24.72a8.006 8.006 0 012.592 1.944 8.548 8.548 0 011.692 2.736 8.182 8.182 0 01.612 3.096c0 1.08-.192 2.124-.576 3.132a7.545 7.545 0 01-1.584 2.592 7.326 7.326 0 01-2.448 1.728L810.057 26h-5.472l-5.256-8.568h-4.968V26h-4.968zm4.968-12.924h6.228c.624 0 1.176-.18 1.656-.54.48-.384.864-.888 1.152-1.512.288-.624.432-1.32.432-2.088 0-.816-.168-1.524-.504-2.124-.336-.624-.768-1.116-1.296-1.476a2.788 2.788 0 00-1.656-.54h-6.012v8.28zm35.47-3.492V26h-4.968V.44h3.96l13.212 16.848V.476h4.968V26h-4.14L829.831 9.584zm34.837 16.596c-1.872 0-3.576-.36-5.112-1.08a12.418 12.418 0 01-3.924-2.916 14.271 14.271 0 01-2.52-4.176c-.6-1.56-.9-3.156-.9-4.788 0-1.704.312-3.324.936-4.86a13.977 13.977 0 012.628-4.14 12.364 12.364 0 013.96-2.88c1.536-.72 3.216-1.08 5.04-1.08 1.848 0 3.528.372 5.04 1.116a12.1 12.1 0 013.924 2.988 14.271 14.271 0 012.52 4.176c.6 1.536.9 3.12.9 4.752 0 1.68-.312 3.3-.936 4.86a13.634 13.634 0 01-2.628 4.14 12.103 12.103 0 01-3.96 2.844c-1.512.696-3.168 1.044-4.968 1.044zm-7.416-12.96c0 1.104.168 2.172.504 3.204a9.223 9.223 0 001.44 2.772 7.513 7.513 0 002.34 1.908c.936.456 1.992.684 3.168.684 1.2 0 2.268-.24 3.204-.72a7.205 7.205 0 002.34-1.98 9.152 9.152 0 001.404-2.772 9.95 9.95 0 00.504-3.096c0-1.104-.18-2.16-.54-3.168a8.362 8.362 0 00-1.476-2.736 6.47 6.47 0 00-2.34-1.908c-.912-.48-1.944-.72-3.096-.72-1.224 0-2.304.252-3.24.756a6.928 6.928 0 00-2.304 1.944 9.32 9.32 0 00-1.44 2.736 10.412 10.412 0 00-.468 3.096zM890.139.512h4.608l2.916 8.46 2.952-8.46h4.572l-4.392 11.628 3.24 8.136L911.271.44h5.4L906.447 26h-4.284l-4.5-10.728L893.199 26h-4.284L878.727.44h5.328l7.272 19.836 3.168-8.136L890.139.512z" fill="url(#paint0_linear_1115_2639)"/><defs><linearGradient id="paint0_linear_1115_2639" x1="904.664" y1="13" x2="-94.548" y2="13" gradientUnits="userSpaceOnUse"><stop stop-color="#1A1A1A"/><stop offset="1"/></linearGradient></defs></svg>