<svg width="35" height="35" fill="none" xmlns="http://www.w3.org/2000/svg"><path d="M27.976 9.656a2.78 2.78 0 002.059-2.671v-.008a2.762 2.762 0 00-2.762-2.762h-.007a2.778 2.778 0 00-2.671 2.06 7.749 7.749 0 01-14.939 0 2.778 2.778 0 00-2.671-2.06h-.007a2.762 2.762 0 00-2.762 2.763v.007a2.778 2.778 0 002.059 2.671 7.748 7.748 0 010 14.938 2.778 2.778 0 00-2.06 2.671v.008a2.762 2.762 0 002.763 2.762h.007a2.777 2.777 0 002.671-2.06 7.749 7.749 0 0114.938 0 2.779 2.779 0 002.672 2.06h.007a2.762 2.762 0 002.762-2.762v-.008a2.778 2.778 0 00-2.059-2.67 7.749 7.749 0 010-14.939z" fill="#AF51C5"/><path d="M27.976 9.656a2.78 2.78 0 002.059-2.671v-.008a2.762 2.762 0 00-2.762-2.762h-.007a2.778 2.778 0 00-2.671 2.06 7.749 7.749 0 01-14.939 0 2.778 2.778 0 00-2.671-2.06h-.007a2.762 2.762 0 00-2.762 2.763v.007a2.778 2.778 0 002.059 2.671 7.748 7.748 0 010 14.938 2.778 2.778 0 00-2.06 2.671v.008a2.762 2.762 0 002.763 2.762h.007a2.777 2.777 0 002.671-2.06 7.749 7.749 0 0114.938 0 2.779 2.779 0 002.672 2.06h.007a2.762 2.762 0 002.762-2.762v-.008a2.778 2.778 0 00-2.059-2.67 7.749 7.749 0 010-14.939z" fill="url(#paint0_linear)"/><path d="M3.614 1.636a.603.603 0 00.69.114 5.513 5.513 0 016.282 1.052.613.613 0 00.85.02.6.6 0 00.01-.86A6.717 6.717 0 003.77.673a.6.6 0 00-.157.963z" fill="#AF51C5"/><path d="M3.614 1.636a.603.603 0 00.69.114 5.513 5.513 0 016.282 1.052.613.613 0 00.85.02.6.6 0 00.01-.86A6.717 6.717 0 003.77.673a.6.6 0 00-.157.963z" fill="url(#paint1_linear)"/><path d="M.675 3.766a6.717 6.717 0 001.266 7.66.617.617 0 00.808.075.602.602 0 00.063-.905A5.514 5.514 0 011.752 4.3a.603.603 0 00-.635-.861.6.6 0 00-.442.326z" fill="#AF51C5"/><path d="M.675 3.766a6.717 6.717 0 001.266 7.66.617.617 0 00.808.075.602.602 0 00.063-.905A5.514 5.514 0 011.752 4.3a.603.603 0 00-.635-.861.6.6 0 00-.442.326z" fill="url(#paint2_linear)"/><path d="M29.947 32.5a5.513 5.513 0 01-6.283-1.053.611.611 0 00-.847-.019.6.6 0 00-.01.861 6.718 6.718 0 007.674 1.288.601.601 0 00.156-.962.603.603 0 00-.69-.114z" fill="#AF51C5"/><path d="M29.947 32.5a5.513 5.513 0 01-6.283-1.053.611.611 0 00-.847-.019.6.6 0 00-.01.861 6.718 6.718 0 007.674 1.288.601.601 0 00.156-.962.603.603 0 00-.69-.114z" fill="url(#paint3_linear)"/><path d="M31.428 22.817a.61.61 0 00.02.846 5.513 5.513 0 011.05 6.288.603.603 0 00.635.86.598.598 0 00.442-.325 6.717 6.717 0 00-1.285-7.68.602.602 0 00-.862.01z" fill="#AF51C5"/><path d="M31.428 22.817a.61.61 0 00.02.846 5.513 5.513 0 011.05 6.288.603.603 0 00.635.86.598.598 0 00.442-.325 6.717 6.717 0 00-1.285-7.68.602.602 0 00-.862.01z" fill="url(#paint4_linear)"/><path d="M32.5 4.301a5.513 5.513 0 01-1.053 6.286.61.61 0 00-.019.847.599.599 0 00.861.011 6.717 6.717 0 001.287-7.678.6.6 0 00-1.13.171.604.604 0 00.053.363z" fill="#AF51C5"/><path d="M32.5 4.301a5.513 5.513 0 01-1.053 6.286.61.61 0 00-.019.847.599.599 0 00.861.011 6.717 6.717 0 001.287-7.678.6.6 0 00-1.13.171.604.604 0 00.053.363z" fill="url(#paint5_linear)"/><path d="M23.664 2.803a5.513 5.513 0 016.285-1.052.602.602 0 00.75-.895.6.6 0 00-.215-.181 6.717 6.717 0 00-7.678 1.287.601.601 0 00.011.86.611.611 0 00.847-.019z" fill="#AF51C5"/><path d="M23.664 2.803a5.513 5.513 0 016.285-1.052.602.602 0 00.75-.895.6.6 0 00-.215-.181 6.717 6.717 0 00-7.678 1.287.601.601 0 00.011.86.611.611 0 00.847-.019z" fill="url(#paint6_linear)"/><path d="M10.587 31.447A5.515 5.515 0 014.302 32.5a.604.604 0 00-.838.355.6.6 0 00.303.722 6.716 6.716 0 007.678-1.287.602.602 0 00-.011-.861.611.611 0 00-.847.02z" fill="#AF51C5"/><path d="M10.587 31.447A5.515 5.515 0 014.302 32.5a.604.604 0 00-.838.355.6.6 0 00.303.722 6.716 6.716 0 007.678-1.287.602.602 0 00-.011-.861.611.611 0 00-.847.02z" fill="url(#paint7_linear)"/><path d="M1.751 29.95a5.513 5.513 0 011.053-6.287.612.612 0 00.019-.846.6.6 0 00-.861-.012 6.717 6.717 0 00-1.287 7.678.6.6 0 001.13-.17.603.603 0 00-.054-.364z" fill="#AF51C5"/><path d="M1.751 29.95a5.513 5.513 0 011.053-6.287.612.612 0 00.019-.846.6.6 0 00-.861-.012 6.717 6.717 0 00-1.287 7.678.6.6 0 001.13-.17.603.603 0 00-.054-.364z" fill="url(#paint8_linear)"/><defs><linearGradient id="paint0_linear" x1="12.635" y1="-7.011" x2="24.727" y2="44.425" gradientUnits="userSpaceOnUse"><stop stop-color="#2F79CB"/><stop offset="1" stop-color="#AF51C5"/></linearGradient><linearGradient id="paint1_linear" x1="6.106" y1="-1.297" x2="6.639" y2="4.929" gradientUnits="userSpaceOnUse"><stop stop-color="#2F79CB"/><stop offset="1" stop-color="#AF51C5"/></linearGradient><linearGradient id="paint2_linear" x1=".974" y1="-.126" x2="8.806" y2="12.036" gradientUnits="userSpaceOnUse"><stop stop-color="#2F79CB"/><stop offset="1" stop-color="#AF51C5"/></linearGradient><linearGradient id="paint3_linear" x1="25.299" y1="29.97" x2="25.832" y2="36.196" gradientUnits="userSpaceOnUse"><stop stop-color="#2F79CB"/><stop offset="1" stop-color="#AF51C5"/></linearGradient><linearGradient id="paint4_linear" x1="32.24" y1="19.068" x2="40.084" y2="31.224" gradientUnits="userSpaceOnUse"><stop stop-color="#2F79CB"/><stop offset="1" stop-color="#AF51C5"/></linearGradient><linearGradient id="paint5_linear" x1="32.24" y1="-.125" x2="40.08" y2="12.028" gradientUnits="userSpaceOnUse"><stop stop-color="#2F79CB"/><stop offset="1" stop-color="#AF51C5"/></linearGradient><linearGradient id="paint6_linear" x1="25.299" y1="-1.297" x2="25.833" y2="4.929" gradientUnits="userSpaceOnUse"><stop stop-color="#2F79CB"/><stop offset="1" stop-color="#AF51C5"/></linearGradient><linearGradient id="paint7_linear" x1="6.104" y1="29.97" x2="6.638" y2="36.196" gradientUnits="userSpaceOnUse"><stop stop-color="#2F79CB"/><stop offset="1" stop-color="#AF51C5"/></linearGradient><linearGradient id="paint8_linear" x1=".973" y1="19.07" x2="8.813" y2="31.223" gradientUnits="userSpaceOnUse"><stop stop-color="#2F79CB"/><stop offset="1" stop-color="#AF51C5"/></linearGradient></defs></svg>