<svg width="1298" height="87" fill="none" xmlns="http://www.w3.org/2000/svg"><path d="M.43 86V.8h57.84v17.28H20.11v18.36h31.44V52.4H20.11V86H.43zM85.37.8h21.24L135.89 86h-20.16l-6.6-19.08H82.61L76.13 86H55.97L85.37.8zm20.52 52.56L95.93 20.6l-10.2 32.76h20.16zm89.456-27.6c-.24-.4-1.08-1-2.52-1.8-1.44-.88-3.24-1.8-5.4-2.76-2.16-.96-4.52-1.8-7.08-2.52-2.56-.72-5.12-1.08-7.68-1.08-3.36 0-5.96.6-7.8 1.8-1.84 1.12-2.76 2.88-2.76 5.28 0 1.92.68 3.44 2.04 4.56 1.44 1.12 3.48 2.12 6.12 3 2.64.8 5.88 1.76 9.72 2.88 5.44 1.44 10.16 3.2 14.16 5.28 4 2 7.04 4.6 9.12 7.8 2.16 3.2 3.24 7.44 3.24 12.72 0 4.8-.88 8.88-2.64 12.24-1.76 3.28-4.16 5.96-7.2 8.04-2.96 2-6.36 3.48-10.2 4.44-3.84.88-7.8 1.32-11.88 1.32-4.16 0-8.44-.4-12.84-1.2-4.32-.88-8.48-2.08-12.48-3.6-4-1.6-7.68-3.52-11.04-5.76l8.64-17.16c.32.4 1.36 1.16 3.12 2.28 1.76 1.04 3.92 2.16 6.48 3.36 2.64 1.12 5.56 2.12 8.76 3 3.2.88 6.44 1.32 9.72 1.32 3.52 0 6.12-.56 7.8-1.68 1.76-1.12 2.64-2.68 2.64-4.68 0-2.16-.92-3.84-2.76-5.04-1.76-1.2-4.2-2.28-7.32-3.24-3.04-.96-6.56-2.04-10.56-3.24-5.2-1.6-9.52-3.4-12.96-5.4-3.36-2-5.88-4.44-7.56-7.32-1.6-2.88-2.4-6.48-2.4-10.8 0-6 1.4-11.04 4.2-15.12 2.88-4.16 6.72-7.28 11.52-9.36 4.8-2.16 10.04-3.24 15.72-3.24 4 0 7.84.48 11.52 1.44 3.76.96 7.24 2.16 10.44 3.6 3.28 1.44 6.2 2.88 8.76 4.32l-8.64 16.32zm88.629-7.68h-25.92V86h-19.68V18.08h-26.04V.8h71.64v17.28zm70.491 50.64V86h-59.88V.8h58.8v17.28h-39.12v16.56h33.6V50.6h-33.6v18.12h40.2zM367.422 86V.8h38.4c4 0 7.68.84 11.04 2.52 3.44 1.6 6.4 3.8 8.88 6.6 2.48 2.72 4.4 5.8 5.76 9.24 1.44 3.44 2.16 6.92 2.16 10.44 0 3.52-.56 6.88-1.68 10.08a28.893 28.893 0 01-4.8 8.52 26.266 26.266 0 01-7.44 6.12L438.462 86h-21.72l-16.32-27.48h-13.32V86h-19.68zm19.68-44.64h18c1.6 0 3-.48 4.2-1.44 1.28-1.04 2.32-2.44 3.12-4.2.8-1.76 1.2-3.8 1.2-6.12 0-2.32-.48-4.32-1.44-6-.88-1.76-2-3.12-3.36-4.08-1.36-.96-2.8-1.44-4.32-1.44h-17.4v23.28zM477.82 86V.8h31.8c9.36 0 17.16 1.92 23.4 5.76 6.32 3.76 11.08 8.88 14.28 15.36 3.2 6.4 4.8 13.52 4.8 21.36 0 8.64-1.76 16.16-5.28 22.56-3.52 6.4-8.48 11.36-14.88 14.88-6.32 3.52-13.76 5.28-22.32 5.28h-31.8zm54.24-42.72c0-4.96-.88-9.32-2.64-13.08-1.76-3.84-4.32-6.8-7.68-8.88-3.36-2.16-7.4-3.24-12.12-3.24H497.5v50.64h12.12c4.8 0 8.84-1.08 12.12-3.24 3.36-2.24 5.92-5.28 7.68-9.12 1.76-3.92 2.64-8.28 2.64-13.08zM582.8.8h21.24L633.32 86h-20.16l-6.6-19.08h-26.52L573.56 86H553.4L582.8.8zm20.52 52.56l-9.96-32.76-10.2 32.76h20.16zm96.459-35.28h-25.92V86h-19.68V18.08h-26.04V.8h71.64v17.28zM724.019.8h21.24l29.28 85.2h-20.16l-6.6-19.08h-26.52L714.779 86h-20.16l29.4-85.2zm20.52 52.56l-9.96-32.76-10.2 32.76h20.16zM833.166.92h18.12l8.88 27.24 8.88-27.24h18.24l-14.52 39.6 8.64 22.68L902.766.8h21.48L891.006 86h-17.04l-13.8-33.36L846.486 86h-17.16L796.206.8h21.36l21.48 62.4 8.4-22.68-14.28-39.6zM932.648 86V.8h19.68V86h-19.68zm101.892-67.92h-25.92V86h-19.675V18.08h-26.04V.8h71.635v17.28zM1118.48.8V86h-19.68V51.08h-33.96V86h-19.68V.8h19.68v33h33.96V.8h19.68z" fill="url(#paint0_linear_1115_2392)"/><path d="M1186.29.8h21.24l29.28 85.2h-20.16l-6.6-19.08h-26.52L1177.05 86h-20.16l29.4-85.2zm20.52 52.56l-9.96-32.76-10.2 32.76h20.16zM1246.2 86V.8h19.68V86h-19.68zm35.3 0V66.44h15.72V86h-15.72z" fill="url(#paint1_linear_1115_2392)"/><defs><linearGradient id="paint0_linear_1115_2392" x1="-8" y1="49.954" x2="1304" y2="51.465" gradientUnits="userSpaceOnUse"><stop stop-color="#fff"/><stop offset=".495" stop-color="#fff" stop-opacity=".3"/><stop offset="1" stop-color="#fff"/></linearGradient><linearGradient id="paint1_linear_1115_2392" x1="1350.86" y1="100.907" x2="1308.3" y2="-205.358" gradientUnits="userSpaceOnUse"><stop stop-color="#A7F306"/><stop offset="1" stop-color="#F3CD06"/></linearGradient></defs></svg>