<svg width="21" height="21" fill="none" xmlns="http://www.w3.org/2000/svg"><path d="M10.5 0c2.853 0 3.209.01 4.329.063 1.117.053 1.879.228 2.549.488a5.126 5.126 0 011.86 1.21 5.16 5.16 0 011.21 1.862c.26.668.437 1.43.489 2.549.05 1.12.063 1.475.063 4.328s-.01 3.209-.063 4.328c-.052 1.118-.229 1.88-.488 2.55a5.132 5.132 0 01-1.21 1.86 5.17 5.17 0 01-1.861 1.21c-.67.26-1.431.436-2.55.489-1.12.05-1.475.063-4.328.063s-3.209-.01-4.329-.063c-1.118-.053-1.879-.229-2.549-.488a5.143 5.143 0 01-1.86-1.21A5.16 5.16 0 01.55 17.377c-.26-.67-.436-1.432-.488-2.55C.013 13.708 0 13.353 0 10.5s.01-3.209.063-4.328c.052-1.12.228-1.88.488-2.55a5.131 5.131 0 011.21-1.86A5.148 5.148 0 013.622.552c.67-.261 1.43-.437 2.55-.489C7.291.013 7.646 0 10.5 0zm0 5.25a5.248 5.248 0 00-3.712 8.962A5.248 5.248 0 0015.75 10.5a5.247 5.247 0 00-5.25-5.25zm6.825-.263a1.313 1.313 0 10-2.626.001 1.313 1.313 0 002.626 0zM10.5 7.35a3.151 3.151 0 110 6.302 3.151 3.151 0 010-6.302z" fill="#fff"/></svg>