<svg width="42" height="42" fill="none" xmlns="http://www.w3.org/2000/svg"><path d="M17.685 13.78h0l10.165 6.776h0a.334.334 0 010 .555h0l-10.166 6.774s0 0 0 0a.334.334 0 01-.341.016l-.236.441.236-.44a.334.334 0 01-.129-.123l-.428.258.428-.258a.333.333 0 01-.047-.17V14.058a.333.333 0 01.518-.277zm3.148 27.387C9.603 41.167.5 32.063.5 20.833S9.603.5 20.833.5c11.23 0 20.334 9.103 20.334 20.333 0 11.23-9.104 20.334-20.334 20.334zm0-3.167a17.167 17.167 0 100-34.333 17.167 17.167 0 000 34.333z" fill="#fff" stroke="#000"/></svg>