<svg width="26" height="21" fill="none" xmlns="http://www.w3.org/2000/svg"><path d="M25.827 2.493a10.62 10.62 0 01-3.044.834A5.317 5.317 0 0025.116.395 10.59 10.59 0 0121.75 1.68a5.299 5.299 0 00-9.03 4.832A15.045 15.045 0 011.798.976a5.281 5.281 0 00-.717 2.665c0 1.837.935 3.46 2.357 4.41a5.281 5.281 0 01-2.4-.662v.066a5.302 5.302 0 004.25 5.196 5.32 5.32 0 01-2.394.091 5.302 5.302 0 004.95 3.681A10.635 10.635 0 010 18.618 14.989 14.989 0 008.122 21C17.87 21 23.2 12.925 23.2 5.922c0-.228-.006-.459-.016-.685a10.766 10.766 0 002.644-2.743v-.001z" fill="#fff"/></svg>