<svg width="53" height="57" fill="none" xmlns="http://www.w3.org/2000/svg"><path fill-rule="evenodd" clip-rule="evenodd" d="M31.182 49.377c-1.006.5-1.985.986-2.964 1.474-.828.413-1.674.797-2.479 1.253-.57.323-1.063.308-1.652.034-6.857-3.183-13.723-6.346-20.587-9.514-.823-.38-1.644-.766-2.472-1.137-.469-.21-.676-.55-.676-1.069C.358 30.84.359 21.262.35 11.684c0-.613.316-.906.828-1.142C8.372 7.232 15.584 3.961 22.732.555c1.573-.75 2.777-.75 4.337.06 6.49 3.369 13.055 6.593 19.607 9.842.689.342.96.763.957 1.535-.023 7.912-.012 15.825-.02 23.738 0 .365.08.617.39.861 3.467 2.743 4.943 7.252 3.768 11.437-1.208 4.3-4.764 7.365-9.194 7.923-4.584.578-9.03-1.82-11.095-5.985-.091-.183-.185-.364-.3-.59zM2.192 12.932c-.009.204-.017.298-.017.392 0 8.747.003 17.494-.013 26.242-.001.423.21.54.514.68 6.902 3.18 13.8 6.365 20.7 9.548.182.084.369.157.588.25.01-.16.023-.251.023-.343 0-8.766-.002-17.533.008-26.299 0-.319-.108-.463-.386-.59-2.476-1.13-4.945-2.276-7.417-3.415-.11-.051-.232-.074-.385-.121V33.92c0 1.078-.548 1.444-1.533 1.024-1.86-.794-3.717-1.596-5.577-2.393-1.038-.445-1.07-.488-1.07-1.59 0-5 .003-9.998-.01-14.996 0-.208-.085-.536-.229-.606-1.697-.82-3.412-1.601-5.195-2.427zm43.583.09c-.208.093-.38.16-.544.243-6.338 3.166-12.674 6.338-19.018 9.493-.358.178-.414.404-.414.754.008 8.65.006 17.3.007 25.95 0 .16.017.32.03.547 1.563-.78 3.07-1.52 4.559-2.293.114-.059.158-.343.155-.521-.018-1.185-.196-2.386-.067-3.553.66-6.004 6.745-10.417 12.666-9.231.882.176 1.742.462 2.626.701v-22.09zm-4.48 41.201c4.95-.003 9.043-4.093 9.05-9.043.006-5.04-4.07-9.143-9.071-9.132a9.094 9.094 0 00-9.105 9.155c.011 4.97 4.112 9.023 9.126 9.02zM44.65 11.49c-2.745-1.372-5.379-2.696-8.026-3.994-.172-.084-.481-.025-.669.076-6.164 3.307-12.321 6.627-18.479 9.947-.125.067-.24.154-.422.272 2.589 1.192 5.105 2.358 7.632 3.497.16.072.433-.012.615-.102 6.277-3.128 12.55-6.264 18.823-9.4.146-.074.285-.16.526-.296zM34.368 6.35c-1.393-.698-2.682-1.332-3.958-1.992-.332-.171-.595-.175-.935.002-6.317 3.3-12.642 6.585-18.964 9.874-.156.082-.306.177-.513.297 1.523.704 2.986 1.366 4.435 2.058.358.171.635.171.993-.022 5.004-2.712 10.016-5.405 15.026-8.104l3.916-2.112zm-6.446-3.22c-.931-.467-1.778-.916-2.648-1.31-.219-.1-.558-.12-.77-.022-6.869 3.15-13.728 6.32-20.588 9.488-.123.057-.233.142-.406.25 1.43.661 2.78 1.295 4.142 1.9.149.066.398.015.556-.066 4.197-2.17 8.388-4.35 12.58-6.529l7.134-3.711zM13.93 32.823c.037-.104.049-.122.049-.14.003-4.654.01-9.308-.007-13.961 0-.175-.203-.427-.375-.51-1.224-.593-2.464-1.152-3.7-1.719-.131-.06-.272-.1-.452-.164 0 4.802-.002 9.549.008 14.296 0 .118.094.301.192.345 1.413.624 2.834 1.23 4.285 1.853z" fill="#232323"/><path fill-rule="evenodd" clip-rule="evenodd" d="M41.295 54.224c-5.014.003-9.115-4.05-9.126-9.021a9.094 9.094 0 019.105-9.155c5-.011 9.077 4.093 9.07 9.132-.006 4.95-4.098 9.04-9.05 9.044zm-.954-6.72c-.676-.686-1.294-1.323-1.922-1.948-.51-.506-1.04-.552-1.441-.143-.4.406-.344.925.167 1.44.773.78 1.55 1.555 2.328 2.33.684.68 1.073.677 1.769-.018 1.66-1.658 3.32-3.319 4.979-4.98.106-.106.22-.211.304-.335.283-.419.253-.834-.108-1.182-.342-.328-.746-.35-1.14-.08-.154.106-.283.251-.416.385-1.484 1.486-2.966 2.973-4.52 4.532zM34.368 6.35l-3.916 2.113c-5.01 2.699-10.023 5.393-15.026 8.104-.358.193-.635.193-.993.022-1.449-.692-2.912-1.354-4.435-2.058.207-.12.357-.216.513-.297 6.322-3.29 12.647-6.575 18.964-9.874.34-.177.603-.173.935-.002 1.276.66 2.565 1.294 3.958 1.993zM13.93 32.823c-1.45-.623-2.871-1.229-4.284-1.853-.098-.044-.192-.227-.192-.345-.01-4.747-.008-9.494-.008-14.296.18.065.32.104.452.164 1.236.567 2.476 1.126 3.7 1.718.172.084.374.336.375.511.018 4.654.01 9.307.006 13.961 0 .018-.011.036-.048.14z" fill="#6D61C9"/><path fill-rule="evenodd" clip-rule="evenodd" d="M40.34 47.504l4.52-4.532c.134-.134.263-.279.416-.384.395-.27.8-.25 1.14.08.362.347.392.762.109 1.181-.084.124-.198.229-.305.336-1.658 1.66-3.317 3.321-4.978 4.98-.696.694-1.086.697-1.769.017-.778-.775-1.555-1.55-2.328-2.33-.51-.515-.567-1.033-.168-1.44.401-.409.932-.363 1.441.143.63.626 1.246 1.262 1.923 1.95z" fill="#fff"/></svg>