<svg width="68" height="38" fill="none" xmlns="http://www.w3.org/2000/svg"><path fill-rule="evenodd" clip-rule="evenodd" d="M32.688 22.868c-3.221 1.24-6.237 2.414-9.264 3.56-1.028.389-2.06.865-3.13 1.024-2.477.368-4.784-.283-6.736-1.827-4.185-3.311-8.306-6.704-12.453-10.064-.286-.232-.59-.448-.842-.712-.395-.414-.35-1.01.167-1.214 2.042-.806 3.998-1.885 6.262-2.017 2.343-.136 4.446.497 6.36 1.844 2.069 1.456 4.162 2.877 6.238 4.323.3.209.54.326.926.133 3.723-1.854 7.457-3.684 11.187-5.523.119-.058.227-.138.417-.255-.231-.167-.4-.302-.581-.419-3.11-2.009-6.222-4.014-9.331-6.023-1.014-.655-1.012-1.198.005-1.818 1.139-.695 2.297-1.36 3.412-2.088.556-.364 1.041-.408 1.67-.173 4.756 1.775 9.526 3.507 14.285 5.273.534.198.968.189 1.491-.075 2.707-1.367 5.42-2.724 8.163-4.019C55.444.67 60.086.423 64.82 1.981c1.878.618 3.018 2.085 3.075 3.9.054 1.761-.998 3.312-2.803 4.032-5.569 2.22-11.148 4.413-16.712 6.644a2.047 2.047 0 00-.94.805 3343.375 3343.375 0 00-11.407 19.694c-.396.69-.841.965-1.64.943-1.93-.055-3.865-.017-5.798-.019-1.221-.001-1.466-.37-1.026-1.535l4.793-12.7c.087-.229.17-.459.326-.877zm16.472-8.45c.186-.014.236-.006.277-.022 5.104-2.02 10.213-4.029 15.307-6.073 1.035-.416 1.567-1.27 1.523-2.4-.044-1.123-.602-1.995-1.675-2.293-1.52-.422-3.074-.822-4.638-.967-3.317-.308-6.398.586-9.37 2.062-9.986 4.962-20.003 9.861-29.997 14.807-.692.342-1.201.296-1.826-.149a321.638 321.638 0 00-6.924-4.789c-3.073-2.066-6.307-1.663-9.336.02.489.404.961.802 1.441 1.192 3.5 2.842 6.951 5.748 10.52 8.501 2.175 1.678 4.616 2.189 7.321 1.076 3.504-1.442 7.06-2.757 10.612-4.08.749-.28 1.264-.643 1.451-1.453a5.46 5.46 0 01.522-1.346c.151-.28.395-.598.672-.71 4.5-1.8 9.008-3.579 13.527-5.33.257-.099.738-.018.91.168.175.193.164.626.114.935-.043.272-.253.517-.43.85zm-2.197.441c-.267.08-.377.103-.48.145-3.398 1.346-6.799 2.684-10.184 4.06-.287.117-.569.458-.684.76-2.012 5.26-3.999 10.529-5.99 15.797-.078.208-.142.421-.25.743 1.528 0 2.951-.026 4.372.013.575.016.901-.155 1.197-.67 3.876-6.736 7.778-13.457 11.672-20.182.102-.176.188-.36.347-.666zM23.598 4.767c.127.12.184.192.257.24 3.113 2.009 6.223 4.022 9.35 6.008.2.127.579.12.81.023.743-.308 1.457-.684 2.18-1.04 1.208-.593 2.414-1.19 3.68-1.815-.14-.104-.185-.156-.242-.177a4637.313 4637.313 0 00-12.951-4.76c-.176-.064-.438-.082-.587.004-.831.476-1.64.99-2.497 1.517z" fill="#000"/><path fill-rule="evenodd" clip-rule="evenodd" d="M46.963 14.86c-.159.304-.245.489-.347.665-3.894 6.725-7.796 13.446-11.672 20.182-.296.515-.623.686-1.197.67-1.42-.04-2.844-.013-4.372-.013.108-.322.172-.535.25-.743 1.991-5.268 3.977-10.538 5.99-15.798.115-.301.397-.642.684-.759 3.385-1.376 6.786-2.714 10.184-4.06.103-.042.214-.066.48-.145zM23.598 4.767c.857-.526 1.666-1.041 2.497-1.517.15-.086.411-.068.587-.004 4.32 1.578 8.636 3.17 12.951 4.76.057.021.102.073.241.177-1.265.625-2.471 1.222-3.68 1.816-.722.354-1.436.731-2.178 1.039-.232.096-.61.104-.81-.023-3.128-1.986-6.238-4-9.35-6.008-.074-.048-.131-.12-.258-.24z" fill="#27C7DC"/></svg>