<svg width="57" height="56" fill="none" xmlns="http://www.w3.org/2000/svg"><path fill-rule="evenodd" clip-rule="evenodd" d="M28.389.5h1.067c1.264.227 2.29.883 3.246 1.715 2.267 1.97 4.565 3.907 6.85 5.856.168.143.342.276.587.474 0-1.09-.006-2.066.002-3.04.01-1.185.633-1.804 1.819-1.806 1.92-.004 3.84-.002 5.76-.001 1.443 0 2.01.562 2.011 1.988 0 3.539.007 7.077-.009 10.615-.002.378.12.618.401.855 1.375 1.155 2.73 2.332 4.097 3.497.758.646 1.356 1.404 1.666 2.363.09.282.166.57.248.854v1.28c-.04.115-.09.227-.118.345-.635 2.738-3.187 4.305-5.915 3.631-.11-.027-.226-.028-.37-.045v.63c0 7.804-.009 15.606.011 23.41.003.996-.342 1.675-1.291 2.016H9.18c-.958-.342-1.277-1.047-1.275-2.03.016-7.778.009-15.557.009-23.336v-.71c-.215.046-.352.073-.488.105-1.94.454-3.95-.28-5.032-1.945-.403-.622-.604-1.377-.898-2.07V23.87c.31-1.377 1.021-2.474 2.11-3.393 7.1-5.99 14.183-12.001 21.256-18.022C25.916 1.559 26.982.735 28.39.5zM11.102 51.896h8.018V37.89c0-1.397.575-1.964 1.982-1.965h15.472c1.366 0 1.952.583 1.952 1.94V51.9h7.993c.009-.17.022-.309.022-.448.001-8.11.004-16.219-.013-24.328 0-.238-.154-.545-.337-.702-4.891-4.212-9.796-8.407-14.699-12.605-.848-.726-1.698-1.45-2.556-2.182-.135.1-.237.166-.33.245-5.682 4.818-11.36 9.641-17.05 14.451-.327.277-.466.547-.465.985.014 7.985.01 15.97.01 23.954v.626zM28.937 7.761c.521.323 1.036.558 1.45.912C36 13.463 41.6 18.27 47.202 23.074c1.026.88 2.037 1.778 3.087 2.629.99.803 2.383.305 2.612-.913.137-.732-.227-1.246-.762-1.704-7.297-6.242-14.589-12.49-21.882-18.737-.983-.842-1.68-.838-2.685.014-5.79 4.912-11.582 9.822-17.373 14.733-1.614 1.369-3.232 2.733-4.838 4.11-.845.724-.878 1.836-.097 2.505.662.568 1.477.517 2.266-.151 2.374-2.011 4.746-4.026 7.12-6.039 4.311-3.658 8.62-7.321 12.942-10.966.364-.307.83-.495 1.345-.794zm-6.61 44.137h12.975v-12.75H22.327v12.75zM43.33 6.921c0 1.426-.002 2.808.004 4.19 0 .096.03.226.097.283 1 .865 2.01 1.721 3.078 2.633V6.92h-3.18z" fill="#000"/><path d="M29.456.5l.088-.492L29.502 0h-.045v.5zm3.246 1.715l.328-.378-.328.378zm6.85 5.856l.325-.38-.324.38zm.587.474l-.313.39.813.655V8.545h-.5zm.002-3.04l.5.004-.5-.004zm1.819-1.806l-.001-.5v.5zm5.76-.001v-.5.5zm2.011 1.988h-.5.5zm-.009 10.615l.5.003-.5-.003zm.401.855l-.322.382.322-.382zm4.097 3.497l.325-.38-.325.38zm1.666 2.363l.475-.153-.475.153zm.248.854h.5v-.07l-.02-.069-.48.14zm0 1.28l.472.165.028-.08v-.084h-.5zm-.118.345l.487.113-.487-.113zm-5.915 3.631l-.12.486.12-.486zm-.37-.045l.058-.497-.558-.065v.562h.5zm.011 24.04h-.5.5zm-1.291 2.016v.5h.087l.082-.03-.17-.47zm-39.27 0l-.169.47.082.03h.086v-.5zm-1.275-2.03h-.5.5zm.009-24.046h.5v-.618l-.605.129.105.489zm-.488.105l-.114-.487.114.487zM2.395 27.22l-.42.272h.001l.42-.272zm-.898-2.07h-.5v.101l.04.093.46-.194zm0-1.281l-.487-.11-.013.055v.055h.5zm2.11-3.393l.323.382-.322-.382zM24.864 2.455l.324.38-.324-.38zM19.12 51.896v.5h.5v-.5h-.5zm0-14.006h-.5.5zm1.982-1.965v.5-.5zm15.472 0v-.5.5zm1.952 1.94h-.5.5zm0 14.035h-.5v.5h.5v-.5zm7.993 0v.5h.475l.025-.475-.5-.025zm.022-.448h-.5.5zm-.013-24.328h.5-.5zm-.337-.702l.327-.379-.327.379zM31.492 13.817l-.325.38.325-.38zm-2.556-2.182l.324-.38-.302-.258-.32.236.298.402zm-.33.245l-.323-.382.323.382zm-17.05 14.45l-.323-.381.323.381zm-.465.985l.5-.001h-.5zm.01 23.954h.5-.5zM30.388 8.673l-.325.38.325-.38zm16.815 14.401l.326-.38-.326.38zm3.087 2.629l-.315.388.315-.388zm2.612-.913l-.492-.093.492.093zm-.762-1.704l-.325.38.325-.38zM30.257 4.349l.325-.38-.325.38zm-2.685.014l-.323-.381.323.381zM10.199 19.096l.323.381-.323-.381zm-4.838 4.11l.325.38-.325-.38zm-.097 2.505l-.325.38.325-.38zm2.266-.151l-.323-.381.323.381zm7.12-6.039l.322.381-.323-.381zM27.591 8.555l.323.382-.323-.382zm7.71 43.343v.5h.5v-.5h-.5zm0-12.75h.5v-.5h-.5v.5zm-12.975 0v-.5h-.5v.5h.5zM43.334 11.11l.5-.002-.5.002zm.097.284l.327-.378-.327.378zm3.078 2.633l-.324.38.824.703v-1.083h-.5zm0-7.106h.5v-.5h-.5v.5zM28.39 1h1.066V0H28.39v1zm.978-.008c1.14.205 2.084.798 3.007 1.6l.656-.755c-.99-.86-2.097-1.58-3.486-1.83l-.177.985zm3.007 1.6c2.27 1.973 4.571 3.913 6.854 5.86l.65-.761c-2.29-1.952-4.583-3.885-6.848-5.854l-.656.755zm6.854 5.86c.174.148.364.294.598.482l.627-.778c-.258-.208-.416-.329-.576-.465l-.649.76zm1.411.093c0-1.095-.006-2.064.002-3.036l-1-.008c-.008.977-.002 1.958-.002 3.044h1zm.002-3.036c.004-.51.139-.815.32-.996.183-.18.49-.313 1-.314l-.002-1c-.676.001-1.273.18-1.702.605-.428.425-.61 1.021-.616 1.697l1 .008zm1.32-1.31c1.92-.004 3.839-.002 5.76-.001v-1c-1.92 0-3.841-.003-5.762.001l.002 1zm5.76-.001c.674 0 1.012.135 1.194.315.18.178.316.509.316 1.173h1c0-.762-.149-1.425-.613-1.884-.463-.458-1.13-.604-1.897-.604v1zm1.51 1.488c0 3.54.007 7.076-.009 10.613l1 .004c.016-3.54.01-7.08.01-10.617h-1zm-.01 10.614c0 .244.038.477.143.697.104.22.258.393.436.542l.644-.765a.633.633 0 01-.177-.207.585.585 0 01-.046-.262l-1-.005zm.58 1.24c1.373 1.154 2.722 2.325 4.094 3.494l.648-.76c-1.36-1.161-2.723-2.344-4.1-3.5l-.643.765zm4.094 3.494c.71.605 1.24 1.29 1.514 2.137l.952-.308c-.347-1.071-1.01-1.902-1.818-2.59l-.648.762zm1.514 2.137c.088.273.156.537.244.839l.96-.278c-.077-.267-.158-.577-.252-.869l-.952.308zm.224.7v1.28h1V23.87h-1zm.028 1.116c-.019.053-.098.246-.133.396l.974.226c.02-.085.042-.117.103-.293l-.944-.329zm-.133.396c-.572 2.467-2.851 3.865-5.308 3.259l-.24.97c2.999.741 5.824-.993 6.522-4.003l-.974-.226zM50.22 28.64a1.682 1.682 0 00-.244-.039c-.08-.007-.121-.01-.188-.018l-.116.994c.078.009.166.015.209.02.054.005.08.01.1.014l.24-.971zm-.99.44v.631h1v-.63h-1zm0 .63c0 7.803-.009 15.607.011 23.41l1-.002c-.02-7.802-.01-15.604-.01-23.407h-1zm.011 23.41c.002.446-.076.763-.216.994-.134.221-.356.412-.744.551l.338.942c.56-.202.986-.521 1.26-.974.27-.443.364-.964.362-1.515l-1 .002zm-.791 1.516H9.18v1h39.271v-1zm-39.102.03c-.386-.139-.603-.332-.734-.557-.138-.236-.21-.559-.21-1.002l-1-.002c0 .54.085 1.06.346 1.508.268.46.69.79 1.261.994l.337-.942zm-.943-1.558c.016-7.78.009-15.56.009-23.338h-1c0 7.78.007 15.557-.01 23.335l1 .003zm.009-23.338v-.71h-1v.71h1zm-.605-1.2c-.204.044-.355.074-.497.108l.228.973c.13-.03.253-.054.478-.102l-.209-.978zm-.498.108c-1.748.41-3.538-.255-4.497-1.73l-.839.544c1.205 1.855 3.436 2.658 5.565 2.16l-.229-.974zm-4.497-1.73a5.012 5.012 0 01-.444-.918c-.125-.322-.264-.723-.413-1.075l-.921.39c.145.341.253.664.402 1.048.141.363.307.745.537 1.099l.839-.545zm-.818-1.798v-1.28h-1v1.281h1zm-.012-1.171c.283-1.26.93-2.265 1.945-3.121l-.645-.765c-1.164.982-1.94 2.173-2.275 3.667l.975.219zm1.945-3.121c7.1-5.991 14.183-12.002 21.257-18.023l-.648-.762a6418.905 6418.905 0 01-21.254 18.02l.645.765zM25.187 2.836c1.053-.896 2.026-1.633 3.284-1.843l-.164-.986c-1.556.259-2.715 1.17-3.768 2.067l.648.762zm-14.086 49.56h8.019v-1H11.1v1zm8.519-.5v-.669h-1v.669h1zm0-.669V37.89h-1v13.337h1zm0-13.337c0-.646.136-.973.315-1.15.181-.18.514-.314 1.167-.315v-1c-.754 0-1.412.15-1.87.604-.46.455-.612 1.11-.612 1.86h1zm1.482-1.465h15.472v-1H21.102v1zm15.472 0c.626 0 .955.136 1.136.316.18.18.316.504.316 1.125h1c0-.738-.157-1.383-.611-1.834-.454-.45-1.101-.606-1.841-.606v1zm1.452 1.44v13.392h1V37.865h-1zm0 13.392v.643h1v-.642h-1zm.5 1.143h7.994v-1h-7.993v1zm8.492-.475c.008-.138.023-.318.023-.473h-1c0 .123-.011.222-.021.422l.998.051zm.023-.473c.001-8.109.004-16.219-.013-24.329l-1 .002c.017 8.109.014 16.218.013 24.327h1zm-.013-24.329c0-.216-.067-.427-.15-.598a1.516 1.516 0 00-.36-.482l-.653.758a.53.53 0 01.113.16c.04.081.05.142.05.164l1-.002zm-.51-1.08c-4.893-4.212-9.798-8.409-14.7-12.606l-.651.76c4.903 4.198 9.807 8.393 14.698 12.604l.653-.758zm-14.7-12.606c-.849-.726-1.7-1.45-2.558-2.183l-.649.761c.86.733 1.709 1.456 2.556 2.181l.65-.76zm-3.18-2.204c-.102.076-.247.173-.355.265l.645.764c.078-.066.139-.102.305-.225l-.594-.804zm-.356.265c-5.682 4.82-11.36 9.642-17.049 14.452l.646.763c5.69-4.81 11.369-9.634 17.05-14.452l-.647-.763zM11.232 25.95a1.812 1.812 0 00-.482.597c-.116.24-.16.496-.16.77l1-.003c0-.163.026-.262.06-.334a.829.829 0 01.229-.267l-.646-.763zm-.641 1.367c.014 7.984.01 15.968.01 23.953h1c0-7.984.004-15.97-.01-23.955l-1 .002zm.01 23.953v.626h1v-.625l-1-.001zM28.674 8.186c.266.165.553.32.777.451.238.14.44.269.613.416l.649-.76a5.143 5.143 0 00-.758-.52c-.267-.155-.498-.279-.753-.437l-.528.85zm1.39.867c5.612 4.79 11.21 9.597 16.814 14.4l.65-.759c-5.602-4.802-11.202-9.61-16.815-14.401l-.65.76zm16.814 14.4c1.017.872 2.04 1.782 3.097 2.638l.63-.777c-1.043-.845-2.041-1.732-3.076-2.62l-.651.76zm3.097 2.638c1.272 1.031 3.117.398 3.418-1.209l-.983-.184c-.155.828-1.095 1.192-1.806.616l-.63.777zm3.418-1.209c.187-.995-.341-1.675-.928-2.176l-.65.76c.484.414.683.763.596 1.231l.982.185zm-.928-2.176c-7.297-6.242-14.589-12.49-21.882-18.736l-.65.759c7.293 6.247 14.585 12.495 21.882 18.736l.65-.76zM30.582 3.97c-.526-.45-1.06-.752-1.662-.749-.599.003-1.138.308-1.671.761l.646.763c.471-.4.783-.523 1.03-.524.244-.001.55.116 1.007.508l.65-.76zm-3.333.012L9.875 18.715l.647.762L27.895 4.745l-.646-.763zM9.875 18.715c-1.612 1.367-3.232 2.733-4.84 4.111l.651.76c1.605-1.376 3.221-2.739 4.836-4.109l-.647-.762zm-4.84 4.111c-.517.444-.81 1.03-.832 1.635a2.036 2.036 0 00.736 1.63l.65-.76a1.038 1.038 0 01-.387-.834c.011-.298.157-.63.484-.911l-.65-.76zm-.096 3.265c.418.36.914.542 1.443.507.52-.034 1.019-.273 1.471-.656l-.646-.764c-.337.286-.64.406-.89.422-.241.016-.485-.06-.727-.268l-.651.759zm2.914-.15c2.375-2.011 4.747-4.026 7.12-6.039l-.647-.762c-2.374 2.013-4.745 4.027-7.12 6.038l.647.764zm7.12-6.039c4.312-3.658 8.62-7.32 12.942-10.965l-.645-.764c-4.324 3.645-8.633 7.309-12.944 10.967l.646.762zM27.915 8.937c.142-.12.313-.224.531-.343.204-.11.478-.247.742-.401l-.502-.865c-.251.146-.468.253-.716.387a4.02 4.02 0 00-.7.458l.645.764zm-5.588 43.461h12.975v-1H22.327v1zm13.475-.5V39.147h-1v12.751h1zm-.5-13.25H22.327v1h12.975v-1zm-13.475.5v12.75h1v-12.75h-1zM42.83 6.92c0 1.425-.002 2.809.004 4.192l1-.005c-.007-1.38-.005-2.76-.005-4.187h-1zm.004 4.191c0 .095.015.201.046.303a.77.77 0 00.224.357l.654-.757a.303.303 0 01.077.104v-.006l-.001-.005-1 .004zm.27.66c1.002.867 2.013 1.725 3.08 2.635l.65-.761c-1.07-.912-2.077-1.766-3.076-2.63l-.654.756zm3.905 2.255V6.921h-1v7.105h1zm-.5-7.606h-3.18v1h3.18v-1z" fill="#E2F8D4"/><path fill-rule="evenodd" clip-rule="evenodd" d="M28.937 7.76c-.515.3-.98.487-1.345.795-4.323 3.645-8.631 7.308-12.943 10.966-2.373 2.013-4.745 4.027-7.12 6.039-.788.668-1.604.719-2.265.151-.78-.67-.748-1.781.097-2.505 1.606-1.377 3.224-2.742 4.838-4.11L27.572 4.363c1.005-.852 1.702-.856 2.685-.014 7.293 6.247 14.585 12.495 21.882 18.736.535.458.9.973.762 1.705-.229 1.218-1.621 1.716-2.613.912-1.049-.85-2.06-1.749-3.086-2.628C41.6 18.27 36 13.464 30.387 8.673c-.414-.354-.929-.59-1.45-.912zm-6.61 44.138v-12.75h12.975v12.75H22.327zm9.793-7.984a1.602 1.602 0 00-1.608-1.582 1.602 1.602 0 00-1.586 1.605 1.617 1.617 0 001.609 1.588 1.617 1.617 0 001.585-1.611z" fill="#88CF5B"/><path fill-rule="evenodd" clip-rule="evenodd" d="M28.814 19.705c1.564 0 3.128-.004 4.692 0 1.186.004 1.816.628 1.818 1.805.004 3.057.004 6.114 0 9.17-.001 1.204-.634 1.828-1.853 1.83-3.11.003-6.22.003-9.331-.001-1.182-.002-1.814-.626-1.817-1.81-.006-3.057-.006-6.114 0-9.17.003-1.213.629-1.821 1.852-1.824 1.547-.003 3.093 0 4.64 0zm-3.28 9.568h6.558v-6.34h-6.557v6.34zm6.586 14.641a1.617 1.617 0 01-1.585 1.61 1.617 1.617 0 01-1.608-1.587 1.602 1.602 0 011.585-1.605 1.602 1.602 0 011.608 1.582z" fill="#000"/></svg>