<svg width="52" height="57" fill="none" xmlns="http://www.w3.org/2000/svg"><path fill-rule="evenodd" clip-rule="evenodd" d="M50.32 56.861H.79c-.602-.326-.79-.826-.789-1.509C.014 37.405.014 19.457 0 1.51 0 .827.186.326.79 0h27.32c.602.327.794.827.79 1.51-.026 3.737-.013 7.475-.013 11.213v.604h20.675c1.191 0 1.536.337 1.536 1.503 0 13.507-.004 27.014.011 40.522 0 .682-.189 1.182-.789 1.51zm-30.319-2.26h6.62V2.25H2.265V54.6h6.63v-.645c0-3.035-.001-6.07.002-9.105 0-.837.401-1.308 1.164-1.31 2.924-.012 5.848-.011 8.772-.001.725.003 1.16.458 1.165 1.199.01 1.554.003 3.108.003 4.663V54.6zm28.85-39.014H28.93v27.918h19.922V15.587zm0 30.208h-19.92v8.816h19.92v-8.816zm-37.696-.014v8.816h6.597V45.78h-6.596z" fill="#000"/><path fill="#ECE64A" d="M28.909 14.709h20v13h-20z"/><path fill-rule="evenodd" clip-rule="evenodd" d="M48.852 45.795v8.816H28.93v-8.816h19.92zm-37.697-.014h6.597v8.816h-6.596V45.78z" fill="#ECE64A"/><path fill-rule="evenodd" clip-rule="evenodd" d="M8.894 6.716c0 .351.014.702-.003 1.052-.032.64-.45 1.086-1.08 1.107-.756.026-1.514.025-2.27 0-.632-.02-1.062-.464-1.08-1.104a38.58 38.58 0 010-2.213c.019-.663.461-1.093 1.133-1.11a41.962 41.962 0 012.158 0c.694.017 1.117.458 1.14 1.162.013.368.003.737.002 1.106zm7.773-.016c0 .35.014.701-.002 1.051-.03.669-.455 1.108-1.12 1.127-.737.02-1.476.022-2.213-.001-.638-.02-1.076-.455-1.096-1.09a38.53 38.53 0 01-.002-2.213c.017-.668.451-1.107 1.117-1.125a38.43 38.43 0 012.213 0c.637.02 1.065.454 1.099 1.089.02.386.004.775.004 1.162zm7.776-.013c0 .35.011.701-.003 1.052-.027.671-.447 1.118-1.107 1.138-.737.023-1.476.022-2.214 0-.663-.019-1.095-.461-1.112-1.13-.018-.72-.018-1.44 0-2.16.017-.694.457-1.124 1.16-1.14a47.56 47.56 0 012.103 0c.726.015 1.15.454 1.172 1.188.01.35.001.701 0 1.052zM6.711 12.218c.35 0 .702-.012 1.052.003.667.028 1.108.453 1.126 1.118.02.737.022 1.476-.001 2.214-.02.637-.454 1.076-1.088 1.097-.738.024-1.477.022-2.214.002-.669-.017-1.108-.453-1.126-1.117a38.57 38.57 0 010-2.214c.02-.638.454-1.065 1.089-1.098.386-.02.775-.004 1.162-.005zm9.956 2.233c0 .37.016.74-.004 1.107-.034.636-.459 1.073-1.095 1.093a34.32 34.32 0 01-2.268-.003c-.607-.021-1.041-.457-1.062-1.063a35.241 35.241 0 01-.002-2.269c.018-.636.456-1.072 1.092-1.092a38.26 38.26 0 012.214-.001c.666.017 1.093.454 1.123 1.121.016.369.003.738.002 1.107zm5.515 2.205c-.351 0-.702.014-1.052-.002-.667-.03-1.104-.457-1.122-1.123a38.91 38.91 0 01.001-2.214c.02-.636.456-1.074 1.092-1.093a35.032 35.032 0 012.269.002c.605.021 1.042.456 1.063 1.062.027.755.026 1.513.003 2.268-.02.636-.457 1.063-1.092 1.096-.387.02-.775.004-1.162.004zM8.893 22.17c0 .387.016.775-.004 1.162-.033.636-.458 1.073-1.094 1.092-.756.024-1.514.025-2.27-.002-.606-.021-1.04-.457-1.061-1.063a34.802 34.802 0 01-.002-2.27c.02-.654.472-1.078 1.147-1.094a49.147 49.147 0 012.103-.001c.733.015 1.158.446 1.181 1.18.01.331.002.663.002.996h-.002zm7.776.064c0 .35.01.701-.003 1.051-.028.672-.447 1.12-1.106 1.14-.737.023-1.476.022-2.214 0-.663-.018-1.095-.46-1.113-1.13a42.786 42.786 0 010-2.158c.017-.695.456-1.126 1.159-1.142a48.03 48.03 0 012.103 0c.727.015 1.15.452 1.173 1.187.01.35.001.701 0 1.052zm5.566-2.242c.37 0 .74-.015 1.107.004.636.033 1.074.458 1.094 1.093.023.756.024 1.514-.003 2.27-.021.606-.455 1.041-1.061 1.063-.756.027-1.514.025-2.27.002-.636-.019-1.073-.456-1.092-1.091a38.534 38.534 0 01-.002-2.214c.017-.668.453-1.095 1.12-1.124.369-.016.738-.003 1.107-.003zM6.686 27.767c.37 0 .74-.015 1.107.003.636.033 1.074.458 1.095 1.093.023.737.021 1.476.001 2.213-.018.667-.454 1.106-1.12 1.124-.737.02-1.476.022-2.214-.001-.637-.02-1.074-.456-1.094-1.091a38.713 38.713 0 01-.001-2.214c.017-.668.453-1.095 1.12-1.125.368-.016.738-.003 1.106-.002zm7.722 4.437c-.35 0-.702.014-1.051-.002-.668-.03-1.105-.457-1.123-1.123-.02-.737-.021-1.476.001-2.213.02-.636.456-1.074 1.091-1.093a35.238 35.238 0 012.269.001c.606.021 1.042.455 1.064 1.061.027.756.026 1.514.002 2.27-.02.636-.456 1.062-1.09 1.095-.387.02-.776.004-1.163.004zm10.035-2.218c0 .35.01.701-.002 1.052-.025.704-.446 1.144-1.14 1.163-.72.019-1.44.019-2.16 0-.692-.019-1.12-.462-1.135-1.166-.015-.7-.015-1.402 0-2.103.016-.723.457-1.15 1.194-1.165a63.02 63.02 0 011.992 0c.828.01 1.24.435 1.251 1.278.005.314 0 .628 0 .941zM6.645 39.98c-.35 0-.701.011-1.051-.003-.671-.028-1.114-.45-1.133-1.112a38.044 38.044 0 010-2.214c.02-.661.464-1.09 1.136-1.107a43.127 43.127 0 012.158 0c.693.018 1.121.46 1.136 1.165.016.7.016 1.402 0 2.103-.017.724-.458 1.146-1.194 1.166-.35.01-.701.002-1.052.002zm7.777 0c-.35 0-.701.011-1.051-.003-.672-.028-1.117-.449-1.136-1.11a38.074 38.074 0 010-2.213c.019-.662.461-1.093 1.132-1.11.72-.018 1.44-.018 2.159 0 .693.018 1.123.458 1.14 1.162.015.7.015 1.402 0 2.103-.018.725-.458 1.149-1.192 1.17-.35.01-.701.001-1.052 0zM24.44 37.8c0 .37.018.74-.005 1.107-.037.607-.458 1.041-1.065 1.063a33.63 33.63 0 01-2.268.002c-.637-.019-1.073-.457-1.092-1.092a35.248 35.248 0 01.002-2.27c.02-.605.456-1.04 1.062-1.062a35.097 35.097 0 012.27-.002c.634.02 1.061.457 1.094 1.093.02.386.003.774.003 1.162z" fill="#000"/><path fill-rule="evenodd" clip-rule="evenodd" d="M32.775 22.19c0-.35-.011-.702.002-1.052.026-.673.445-1.12 1.104-1.14a37.643 37.643 0 012.214-.001c.663.018 1.097.459 1.115 1.128.019.719.018 1.44 0 2.158-.018.696-.457 1.128-1.157 1.144-.701.017-1.403.016-2.104 0-.728-.015-1.152-.452-1.173-1.186-.01-.35-.002-.7-.002-1.051zm7.775-.024c0-.351-.014-.702.002-1.052.03-.665.459-1.1 1.127-1.118a38.876 38.876 0 012.213.002c.634.02 1.07.459 1.09 1.096.023.737.021 1.476 0 2.214-.018.665-.458 1.1-1.125 1.118-.737.02-1.477.022-2.214-.002-.635-.02-1.059-.46-1.09-1.096-.019-.387-.003-.775-.003-1.162z" fill="#5A5707"/><path fill-rule="evenodd" clip-rule="evenodd" d="M35.009 27.766c.369 0 .739-.015 1.107.004.635.033 1.072.459 1.091 1.095.023.756.025 1.513-.002 2.269-.022.607-.457 1.04-1.063 1.062-.756.027-1.514.025-2.27.002-.635-.02-1.07-.457-1.09-1.093a38.35 38.35 0 01-.002-2.214c.017-.666.455-1.093 1.122-1.122.368-.016.738-.003 1.107-.003zm9.976 2.207c0 .387.02.776-.004 1.162-.038.607-.46 1.04-1.067 1.061-.755.027-1.513.026-2.269.002-.636-.02-1.071-.458-1.09-1.094a35.383 35.383 0 01.003-2.27c.021-.605.457-1.039 1.064-1.06a35.166 35.166 0 012.269-.002c.634.02 1.059.458 1.093 1.095.019.367.003.737.003 1.106h-.002zm-7.772 7.796c0 .369.016.739-.004 1.107-.033.637-.456 1.076-1.09 1.096-.737.024-1.476.022-2.214.002-.668-.017-1.107-.453-1.125-1.118a38.074 38.074 0 01.001-2.214c.02-.637.454-1.075 1.09-1.095a38.432 38.432 0 012.212-.003c.668.018 1.098.453 1.128 1.118.016.368.003.738.002 1.107zm5.504 2.21c-.35 0-.701.013-1.051-.003-.642-.031-1.088-.448-1.11-1.078a34.952 34.952 0 010-2.269c.02-.633.461-1.065 1.1-1.083a38.44 38.44 0 012.214 0c.663.018 1.095.459 1.113 1.13.02.718.02 1.438 0 2.157-.017.696-.457 1.12-1.159 1.144-.368.013-.738.003-1.107.002z" fill="#000"/></svg>