<svg width="64" height="49" fill="none" xmlns="http://www.w3.org/2000/svg"><path fill-rule="evenodd" clip-rule="evenodd" d="M0 14.835l18.77.012c.082 0 .163-.018.343-.039 0-.403.039-.812-.006-1.212-.33-2.942.337-5.622 1.895-8.149.897-1.456 1.572-3.05 2.32-4.596.288-.595.7-.85 1.366-.85C35.814.011 46.94.012 58.066 0c.689 0 1.111.257 1.415.874 1.343 2.728 2.712 5.444 4.074 8.163.035.071.087.134.132.2v38.81c-.29.592-.77.78-1.418.779-13.905-.011-27.81-.008-41.716-.01-1.13 0-1.439-.325-1.44-1.512 0-8.435-.007-16.869.014-25.303.002-.62-.14-.8-.783-.796-4.434.031-8.87.017-13.304.017h-.766V19.11h14.8v-2.136h-.735L.745 16.973c-.249 0-.497-.015-.745-.024v-2.114zM61.519 46.67V10.65H46.7v.775c0 4.167.002 8.333 0 12.5-.001 1.242-.307 1.552-1.54 1.553-2.508.003-5.016.003-7.525 0-1.222-.001-1.553-.333-1.553-1.548-.002-4.187-.001-8.375-.001-12.562v-.716h-14.79v4.215h6.273v2.136h-6.285v2.111h6.291v2.118h-6.287V46.67H61.52zM36.995 2.219c-.129-.047-.167-.073-.205-.073-3.791-.005-7.583-.015-11.374.007-.191 0-.459.233-.558.426-.927 1.803-1.826 3.621-2.73 5.436-.069.137-.113.287-.176.45h14.262l.78-6.246zm9.581 6.237h14.282c-.106-.236-.182-.422-.272-.6-.86-1.723-1.735-3.437-2.571-5.17-.198-.411-.422-.567-.887-.564-3.565.021-7.13.012-10.696.012h-.648l.792 6.322zm-2.057 14.853V10.665h-6.264v12.644h6.264zm-.085-14.85l-.785-6.28h-4.505l-.782 6.28h6.072z" fill="#000"/><path fill-rule="evenodd" clip-rule="evenodd" d="M0 32.872c2.383.008 4.766.02 7.15.023 3.025.004 6.052 0 9.078 0h.714v2.066c-.155.019-.311.055-.467.055-5.389.003-10.778.003-16.167 0-.103 0-.205-.02-.308-.03v-2.114zm16.95 4.313v2.042H4.29v-2.042h12.66z" fill="#000"/><path fill-rule="evenodd" clip-rule="evenodd" d="M44.519 23.31h-6.264V10.664h6.264v12.644zm-.085-14.85h-6.072l.782-6.282h4.505l.785 6.282z" fill="#E175AB"/><path fill-rule="evenodd" clip-rule="evenodd" d="M29.142 44.571c-1.362 0-2.724.012-4.086-.003-1.143-.013-1.677-.495-1.687-1.56a378.2 378.2 0 010-6.391c.008-1.069.518-1.583 1.663-1.595 2.752-.03 5.505-.029 8.256-.001 1.177.012 1.695.545 1.702 1.652a456.22 456.22 0 01-.002 6.311c-.008 1.062-.552 1.57-1.675 1.583-1.39.017-2.78.004-4.171.004zm-4.255-1.777h8.605v-5.992h-8.604v5.992zm26.103 1.732v-2.028h8.427v2.028H50.99zm4.266-6.286h4.153v2.04h-4.153v-2.04zm-4.249.003h2.035v2.06h-2.035v-2.06z" fill="#000"/><path fill-rule="evenodd" clip-rule="evenodd" d="M25.323 42.49v-5.385h7.733v5.385h-7.732z" fill="#E175AB"/></svg>