<svg width="56" height="49" fill="none" xmlns="http://www.w3.org/2000/svg"><path fill-rule="evenodd" clip-rule="evenodd" d="M55 5.11v7.81c-.427 1.001-1.199 1.385-2.26 1.29-.38-.034-.765-.006-1.164-.006v32.062c0 1.575-.591 2.175-2.148 2.175H5.794c-1.557 0-2.149-.6-2.149-2.175V14.214C2.331 14.15.87 14.563.221 12.92V5.11c.165-.541.261-1.116.507-1.618C1.73 1.442 3.438.51 5.687.51H41.62c2.673 0 5.347-.004 8.02 0 1.806.004 3.345.646 4.355 2.164.477.718.678 1.619 1.004 2.436zm-6.87 9.132H7.111v30.746H48.13V14.242zM3.651 10.743H51.57c0-1.765.018-3.492-.017-5.219-.006-.313-.173-.659-.359-.924-.394-.561-.998-.672-1.656-.672-14.619.007-29.237.006-43.856.006-.142 0-.286-.004-.427.007-.864.067-1.575.724-1.592 1.587-.033 1.726-.01 3.453-.01 5.215z" fill="#000"/><path d="M55 12.92l.184.079.016-.038v-.04H55zm-2.26 1.29l.019-.2-.018.2zm-1.164-.006v-.2h-.2v.2h.2zm0 32.062h-.2.2zm-2.148 2.175v-.2.2zm-43.634 0v-.2.2zm-2.149-2.175h.2-.2zm0-32.052h.2v-.191l-.19-.01-.01.2zM.221 12.92h-.2v.038l.014.036.186-.074zm0-7.81l-.19-.058-.01.028v.03h.2zm.507-1.618l.18.088-.18-.088zM5.687.51v.2-.2zm43.954 0v-.2.2zm4.355 2.164l-.167.111.167-.11zM7.112 14.242v-.2h-.2v.2h.2zm0 30.746h-.2v.2h.2v-.2zm41.017 0v.2h.2v-.2h-.2zm3.44-34.245v.2h.2v-.2h-.2zm-.017-5.219l-.2.004.2-.004zm-.359-.924l-.163.115.163-.115zm-1.656-.672v-.2.2zM5.68 3.934v.2-.2zm-.427.007l-.016-.2.016.2zM3.662 5.528l.2.003-.2-.003zM54.8 5.11v7.81h.4V5.11h-.4zm.016 7.732c-.2.468-.472.775-.805.959-.334.185-.75.255-1.252.21l-.036.398c.558.05 1.059-.024 1.482-.258.425-.234.752-.619.979-1.152l-.368-.157zM52.76 14.01c-.392-.035-.804-.006-1.183-.006v.4c.42 0 .778-.028 1.147.005l.036-.399zm-1.383.194v.78h.4v-.78h-.4zm0 .78v31.282h.4V14.984h-.4zm0 31.282c0 .77-.146 1.248-.432 1.538-.286.289-.756.437-1.516.437v.4c.796 0 1.4-.152 1.8-.556.399-.404.548-1.015.548-1.82h-.4zm-1.948 1.975H5.794v.4h43.634v-.4zm-43.634 0c-.76 0-1.23-.148-1.516-.437-.286-.29-.433-.767-.433-1.538h-.4c0 .805.15 1.415.548 1.819.4.404 1.004.556 1.8.556v-.4zm-1.949-1.975V14.877h-.4v31.389h.4zm0-31.389v-.663h-.4v.663h.4zm-.19-.863c-.337-.016-.686-.002-1.01.002-.33.004-.64-.002-.926-.054a1.676 1.676 0 01-.751-.313c-.216-.168-.41-.42-.56-.802l-.373.147c.173.438.406.752.688.97.28.219.598.333.925.392.326.059.668.064 1.002.06.34-.004.665-.018.986-.003l.019-.4zM.42 12.92V5.11h-.4v7.81h.4zM.413 5.168c.083-.272.152-.566.224-.829.074-.27.156-.525.27-.759l-.359-.176c-.131.268-.22.551-.297.83-.078.285-.14.55-.22.818l.382.116zM.907 3.58c.487-.994 1.14-1.708 1.934-2.175C3.638.937 4.59.71 5.687.71v-.4c-1.153 0-2.178.24-3.048.75-.871.512-1.574 1.289-2.09 2.344l.358.176zM5.687.71H41.62v-.4H5.687v.4zm35.934 0c2.673 0 5.347-.004 8.02 0v-.4c-2.673-.004-5.347 0-8.02 0v.4zm8.02 0c1.755.004 3.224.624 4.188 2.075l.333-.221C53.108.978 51.5.314 49.642.31v.4zm4.188 2.075c.225.339.388.725.537 1.138.146.402.284.85.448 1.261l.372-.148c-.163-.407-.288-.818-.443-1.25-.153-.421-.329-.843-.58-1.222l-.334.221zm-5.7 11.257H7.112v.4H48.13v-.4zm-41.217.2V44.99h.4V14.244h-.4zm.2 30.946H48.13v-.4H7.113v.4zm41.217-.2V14.243h-.4v30.744h.4zM3.652 10.943H51.57v-.4H3.652v.4zm48.117-.2c0-1.762.018-3.494-.017-5.223l-.4.008c.035 1.724.017 3.447.017 5.215h.4zm-.017-5.223c-.007-.371-.2-.757-.395-1.035l-.328.23c.178.252.318.559.323.813l.4-.008zm-.395-1.035c-.454-.646-1.147-.757-1.82-.757v.4c.643 0 1.157.11 1.492.587l.328-.23zm-1.82-.757c-14.619.007-29.237.006-43.856.006v.4c14.619 0 29.237.001 43.856-.006v-.4zM5.68 3.734c-.135 0-.29-.004-.443.008l.03.398c.133-.01.264-.006.413-.006v-.4zm-.443.008c-.951.073-1.756.802-1.776 1.782l.4.007c.015-.744.63-1.33 1.407-1.39l-.03-.4zM3.462 5.524c-.033 1.728-.01 3.46-.01 5.219h.4c0-1.766-.023-3.488.01-5.212l-.4-.007z" fill="#EBEBEB"/><path fill-rule="evenodd" clip-rule="evenodd" d="M3.652 10.743c0-1.762-.023-3.49.01-5.216.017-.862.728-1.52 1.592-1.586.141-.011.285-.007.427-.007 14.619 0 29.237 0 43.856-.006.658 0 1.262.11 1.656.672.186.265.353.611.36.924.034 1.726.016 3.454.016 5.219H3.652z" fill="#915F5F"/><path fill-rule="evenodd" clip-rule="evenodd" d="M27.562 27.811c-1.958 0-3.925.116-5.872-.028-2.593-.192-4.644-2.926-4.304-5.507.366-2.78 2.418-4.625 5.223-4.643 3.331-.02 6.663-.02 9.994 0 2.904.018 5.032 2.018 5.263 4.899.199 2.476-1.85 5.075-4.325 5.25-1.984.14-3.985.029-5.98.029zm.034-3.336c1.657 0 3.314.005 4.97-.001 1.127-.004 1.903-.725 1.888-1.736-.014-.988-.78-1.683-1.884-1.685a3880.49 3880.49 0 00-9.889 0c-1.14.001-1.913.7-1.914 1.709 0 1.01.773 1.709 1.91 1.712 1.64.005 3.28.001 4.919.001z" fill="#000"/><path fill-rule="evenodd" clip-rule="evenodd" d="M27.437 26.047c-1.916 0-3.833.007-5.749-.002-1.33-.006-2.234-1.23-2.233-2.998 0-1.767.905-2.99 2.237-2.992 3.854-.006 7.707-.007 11.56 0 1.29.004 2.186 1.22 2.202 2.951.017 1.77-.89 3.031-2.206 3.039-1.937.01-3.874.002-5.811.002z" fill="#915F5F"/></svg>