<svg width="13" height="13" fill="none" xmlns="http://www.w3.org/2000/svg"><path d="M12.393 5.302H6.627c0 .6 0 1.8-.004 2.399h3.341c-.128.6-.582 1.44-1.223 1.862 0 0-.001.004-.002.003-.853.563-1.979.69-2.814.523a3.71 3.71 0 01-2.768-2.417c.003-.002.005-.018.007-.02-.264-.748-.264-1.75 0-2.35h-.001C3.503 4.2 4.57 3.195 5.882 2.92c1.055-.223 2.245.019 3.12.838.117-.114 1.612-1.574 1.724-1.692C7.735-.644 2.946.309 1.154 3.807l-.004.006a5.86 5.86 0 00.007 5.379l-.007.005a6.108 6.108 0 003.888 3.099c1.807.473 4.106.15 5.646-1.243l.002.001c1.305-1.175 2.117-3.177 1.707-5.752z" fill="#fff"/></svg>