<svg width="14" height="12" fill="none" xmlns="http://www.w3.org/2000/svg"><path d="M4.403 12c5.283 0 8.172-4.617 8.172-8.62 0-.132 0-.263-.008-.393A6.022 6.022 0 0014 1.419a5.49 5.49 0 01-1.65.477A3.02 3.02 0 0013.615.219a5.579 5.579 0 01-1.825.736C10.702-.265 8.882-.324 7.725.823c-.745.74-1.062 1.844-.83 2.896C4.584 3.596 2.432 2.446.974.553c-.763 1.385-.373 3.155.89 4.044A2.739 2.739 0 01.56 4.22v.038c0 1.442.965 2.684 2.304 2.97-.422.122-.866.14-1.296.052.376 1.234 1.455 2.08 2.683 2.104a5.575 5.575 0 01-3.567 1.3A5.597 5.597 0 010 10.64a7.828 7.828 0 004.403 1.359" fill="#fff"/></svg>