<svg width="40" height="28" fill="none" xmlns="http://www.w3.org/2000/svg"><path d="M35.647.55c-2.29 0-4.16 1.862-4.16 4.143a4.1 4.1 0 003.183 4.01v.721h-7.292a.976.976 0 00-.977.973v1.56H21.35V8.703a4.132 4.132 0 003.183-4.01c0-2.281-1.87-4.143-4.16-4.143a4.146 4.146 0 00-4.142 4.143 4.1 4.1 0 003.182 4.01v3.254H14.36V10.38a.976.976 0 00-.976-.973H6.091v-.704a4.132 4.132 0 003.182-4.01A4.157 4.157 0 005.132.55C2.858.55.972 2.412.972 4.693a4.114 4.114 0 003.183 4.01v1.677c0 .537.438.973.977.973h7.292v.604H9.578a.976.976 0 00-.977.973v3.808c0 .352.185.671.488.839l8.404 4.764v3.892c0 .352.202.688.522.855.134.067.303.118.454.118a.93.93 0 00.54-.168l3.822-2.533a.987.987 0 00.438-.805v-1.36l8.403-4.763a.951.951 0 00.489-.839v-3.825a.976.976 0 00-.977-.973h-2.846v-.587h7.292a.976.976 0 00.976-.973V8.703a4.132 4.132 0 003.183-4.01A4.146 4.146 0 0035.647.55zm2.206 4.143a2.21 2.21 0 01-2.206 2.198 2.21 2.21 0 01-2.206-2.198 2.21 2.21 0 012.206-2.197c1.212 0 2.206.973 2.206 2.197zM18.958 20.915l-8.404-4.764v-2.265h19.67v2.265l-8.403 4.764a.952.952 0 00-.489.839v1.409l-1.87 1.241v-2.65a1.003 1.003 0 00-.504-.839zM5.132 2.495a2.21 2.21 0 012.206 2.198 2.21 2.21 0 01-2.206 2.198 2.21 2.21 0 01-2.206-2.198c0-1.208.976-2.197 2.206-2.197zm13.051 2.198a2.21 2.21 0 012.206-2.197 2.21 2.21 0 012.206 2.197 2.21 2.21 0 01-2.206 2.198c-1.23 0-2.206-.99-2.206-2.198z" fill="#FB5607"/></svg>