<svg width="38" height="34" fill="none" xmlns="http://www.w3.org/2000/svg"><path d="M36.215.083h-14.08a.993.993 0 00-.914.612c-.143.378-.072.793.215 1.081l3.839 3.856-9.596 11.8-.987-1.747a.944.944 0 00-.789-.487.922.922 0 00-.843.379L1.205 30.963c-.574.738-.503 1.747.143 2.414a1.817 1.817 0 002.404.162l11.891-9.134 1.166 1.892c.161.252.43.432.717.468a.965.965 0 00.807-.288l13.668-13.729 3.497 3.513c.287.289.7.36 1.076.216a.997.997 0 00.61-.918V1.073a.96.96 0 00-.968-.99zm-.986 13.08l-2.511-2.523a.988.988 0 00-.7-.288.988.988 0 00-.699.288l-13.47 13.567-1.094-1.766a1.018 1.018 0 00-.664-.45.98.98 0 00-.77.18L3.446 31.287l10.259-13.314.95 1.694c.162.288.449.468.772.504a.95.95 0 00.843-.36L27.337 6.19a.999.999 0 00-.072-1.334l-2.762-2.793H35.23v11.098z" fill="#FFBE0B"/><path d="M12.039 12.82a2.3 2.3 0 002.295-2.306 2.301 2.301 0 00-2.295-2.306 2.3 2.3 0 00-2.296 2.306 2.3 2.3 0 002.296 2.306zm2.672-3.91a.882.882 0 00.879-.882.867.867 0 00-.879-.865.867.867 0 00-.86.883c0 .486.376.865.86.865zm12.053 17.549a2.301 2.301 0 002.295-2.306 2.301 2.301 0 00-2.295-2.306 2.3 2.3 0 00-2.296 2.306 2.3 2.3 0 002.296 2.306zm-2.673-.721a.867.867 0 00-.86.883c0 .486.394.882.86.882a.894.894 0 00.88-.882.894.894 0 00-.88-.883z" fill="#FFBE0B"/></svg>