<svg width="28" height="32" fill="none" xmlns="http://www.w3.org/2000/svg"><path d="M27.59 6.715L21.156.405a.86.86 0 00-.633-.268H4.267A3.455 3.455 0 00.82 3.584v24.589a3.455 3.455 0 003.447 3.447h20.161a3.455 3.455 0 003.447-3.447V7.379c0-.253-.11-.49-.284-.664zm-6.15-3.463l3.257 3.194H21.74a.3.3 0 01-.3-.3V3.252zm4.585 24.92c0 .886-.711 1.598-1.597 1.598H4.267a1.593 1.593 0 01-1.597-1.597V3.583c0-.885.711-1.596 1.597-1.596h15.338V6.16c0 1.186.965 2.135 2.135 2.135h4.285v19.877z" fill="#FF006E"/><path d="M20.744 14.763H7.746a.918.918 0 000 1.835h12.998a.918.918 0 000-1.835zM7.746 20.298H18.34a.918.918 0 000-1.835H7.746a.918.918 0 000 1.835zm11.875 1.85H7.746a.918.918 0 000 1.834H19.62a.918.918 0 000-1.834z" fill="#FF006E"/></svg>