<svg width="41" height="31" fill="none" xmlns="http://www.w3.org/2000/svg"><path d="M20.5 24.437c-1.704 0-3.105 1.316-3.275 2.976v.02c0 .095-.02.19-.02.285C17.226 29.531 18.702 31 20.5 31c1.818 0 3.275-1.47 3.294-3.282a3.3 3.3 0 00-3.294-3.28zm14.538 0a3.296 3.296 0 00-2.84 1.64 3.31 3.31 0 00-.416 1.603c0 1.832 1.476 3.32 3.293 3.32a3.24 3.24 0 002.726-1.47 3.37 3.37 0 00.53-1.793c.02-1.812-1.457-3.3-3.294-3.3z" fill="#171FE5"/><path d="M20.5 25.048a2.656 2.656 0 00-2.328 1.373 2.674 2.674 0 011.344-.362c1.458 0 2.669 1.202 2.688 2.67 0 .477-.133.916-.36 1.298a2.667 2.667 0 001.344-2.309c-.019-1.468-1.23-2.67-2.688-2.67z" fill="url(#paint0_linear)"/><path d="M35.038 25.048c-.947 0-1.837.515-2.31 1.316 0 .02-.019.02-.019.038a2.658 2.658 0 011.325-.362c1.477 0 2.688 1.22 2.688 2.709 0 .438-.113.877-.322 1.278.36-.21.663-.477.909-.82.284-.44.416-.935.416-1.45 0-1.488-1.192-2.71-2.688-2.71z" fill="url(#paint1_linear)"/><path d="M38.388 20.794H19.8l-5.111-14.25a2.615 2.615 0 00-2.46-1.737H2.611A2.616 2.616 0 000 7.44a2.616 2.616 0 002.612 2.632h7.799l5.11 14.25c.19.535.55.974 1.004 1.279a4.525 4.525 0 013.994-2.404c1.893 0 3.52 1.183 4.202 2.862h6.152a4.512 4.512 0 014.202-2.862 4.53 4.53 0 014.146 2.728 2.65 2.65 0 001.817-2.499c-.038-1.45-1.212-2.632-2.65-2.632z" fill="#171FE5"/><path d="M38.388 18.256s-.132.077-.378.191a11.69 11.69 0 01-1.117.458c-.246.095-.53.172-.833.267-.303.076-.644.172-1.003.23a11.17 11.17 0 01-2.499.209 11.915 11.915 0 01-3.029-.458 12.276 12.276 0 01-3.16-1.43 14.84 14.84 0 01-2.84-2.29c-.87-.858-1.647-1.812-2.366-2.766a43.886 43.886 0 01-1.969-2.919 29.24 29.24 0 01-.87-1.43c-.284-.458-.568-.916-.833-1.374-.55-.878-1.08-1.717-1.628-2.442a11.702 11.702 0 00-1.647-1.889c-.568-.515-1.136-.915-1.704-1.201a7.345 7.345 0 00-1.59-.573c-.473-.095-.87-.171-1.135-.19A8.699 8.699 0 019.37.61l.398-.17c.265-.096.643-.248 1.173-.344A6.518 6.518 0 0112.91.038c.776.076 1.647.343 2.517.782.871.439 1.723 1.068 2.499 1.793a20.952 20.952 0 012.234 2.423c.36.439.7.878 1.022 1.336.34.457.662.896 1.003 1.373.663.916 1.306 1.831 1.95 2.709.643.877 1.306 1.736 1.987 2.5.34.38.7.762 1.041 1.105.36.344.72.668 1.08.973a12.68 12.68 0 002.27 1.508c.777.4 1.572.705 2.329.934.757.23 1.495.382 2.158.477.34.057.643.076.946.134.303.019.568.057.814.076.246.02.474.038.663.057.189.02.36.02.51.02.304.018.455.018.455.018z" fill="#171FE5"/><path d="M35.53 18.657c-.19-.02-.397-.038-.587-.076a14.06 14.06 0 01-2.252-.496 13.888 13.888 0 01-2.442-.973 15.728 15.728 0 01-2.385-1.584c-.34-.267-.681-.591-1.136-1.01a56.93 56.93 0 01-1.06-1.107l-.019-.02c-.624-.705-1.268-1.525-2.025-2.556-.435-.591-.852-1.182-1.287-1.793-.227-.305-.436-.63-.663-.935-.36-.496-.681-.953-.984-1.354l-.076-.095c-.322-.42-.625-.82-.946-1.221-.758-.935-1.458-1.698-2.177-2.347-.776-.706-1.571-1.278-2.366-1.698-.776-.4-1.571-.648-2.31-.725-.208-.019-.397-.038-.605-.038.189.077.378.153.568.248.624.306 1.249.744 1.855 1.298.056.038.094.095.151.152.303.229.606.477.909.763.7.649 1.42 1.412 2.176 2.347.322.4.625.8.947 1.22l.076.096c.303.4.624.84.984 1.354.227.325.454.63.662.935.436.61.852 1.202 1.288 1.793.757 1.03 1.4 1.832 2.025 2.557l.019.019c.34.362.7.763 1.06 1.106.454.42.795.744 1.136 1.011a14.787 14.787 0 002.385 1.584c.757.4 1.57.725 2.441.973.758.229 1.515.4 2.253.496.19.038.379.057.587.076-.19.038-.379.095-.568.134a13.17 13.17 0 01-1.287.171c.227.02.454.038.681.038h.19c.776 0 1.514-.076 2.195-.21.209-.038.398-.095.587-.133z" fill="#171FE5"/><path d="M38.388 21.404H19.365L14.12 6.753a2 2 0 00-1.874-1.336H2.612A2.015 2.015 0 00.606 7.44c0 .248.038.477.132.705a1.92 1.92 0 011.25-.438h9.616a2 2 0 011.874 1.335l5.205 14.556a4.32 4.32 0 011.78-.382 4.25 4.25 0 012.025.496h10.486A4.54 4.54 0 0135 23.216c.738 0 1.42.172 2.025.496h.7c.852 0 1.59.553 1.874 1.297.455-.362.739-.934.739-1.564a1.95 1.95 0 00-1.95-2.041z" fill="#171FE5"/><defs><linearGradient id="paint0_linear" x1="18.166" y1="27.537" x2="23.187" y2="27.537" gradientUnits="userSpaceOnUse"><stop stop-color="#fff" stop-opacity=".4"/><stop offset="1" stop-color="#fff" stop-opacity="0"/></linearGradient><linearGradient id="paint1_linear" x1="32.721" y1="27.544" x2="37.731" y2="27.544" gradientUnits="userSpaceOnUse"><stop stop-color="#fff" stop-opacity=".4"/><stop offset="1" stop-color="#fff" stop-opacity="0"/></linearGradient></defs></svg>