<svg width="18" height="18" fill="none" xmlns="http://www.w3.org/2000/svg"><path d="M18 9a9 9 0 00-9-9 9.002 9.002 0 00-1.406 17.891v-6.29H5.309V9h2.285V7.017c0-2.255 1.343-3.501 3.4-3.501.984 0 2.014.175 2.014.175v2.215h-1.136c-1.117 0-1.466.695-1.466 1.407V9h2.496l-.399 2.602h-2.097v6.289A9.001 9.001 0 0018 9z" fill="#1877F2"/><path d="M12.503 11.602l.4-2.602h-2.497V7.312c0-.711.348-1.406 1.467-1.406h1.135V3.692s-1.03-.176-2.014-.176c-2.057 0-3.4 1.246-3.4 3.501V9H5.309v2.602h2.285v6.289a9.062 9.062 0 002.813 0v-6.29h2.096z" fill="#fff"/></svg>