<svg width="18" height="18" fill="none" xmlns="http://www.w3.org/2000/svg"><path d="M0 9a9 9 0 1118 0A9 9 0 110 9z" fill="#0077B5"/><path fill-rule="evenodd" clip-rule="evenodd" d="M6.494 5.559c0 .588-.442 1.059-1.154 1.059h-.013c-.684 0-1.127-.471-1.127-1.06 0-.6.456-1.058 1.154-1.058.697 0 1.127.457 1.14 1.059zM6.36 7.454v6.128H4.32V7.454h2.04zm7.356 6.128V10.07c0-1.883-1.007-2.759-2.349-2.759-1.082 0-1.567.595-1.838 1.012v-.868h-2.04c.027.576 0 6.128 0 6.128h2.04V10.16c0-.183.013-.366.067-.497.147-.366.483-.745 1.046-.745.74 0 1.034.562 1.034 1.386v3.278h2.04z" fill="#fff"/></svg>