<svg width="18" height="18" fill="none" xmlns="http://www.w3.org/2000/svg"><path d="M5.22 10.44A5.22 5.22 0 105.22 0a5.22 5.22 0 000 10.44z" fill="#28A8EA"/><path d="M12.78 18a5.22 5.22 0 100-10.44 5.22 5.22 0 000 10.44z" fill="#28A8EA"/><path d="M9 17.64A8.64 8.64 0 0017.64 9 8.64 8.64 0 009 .36 8.64 8.64 0 00.36 9 8.64 8.64 0 009 17.64z" fill="#28A8EA"/><path fill-rule="evenodd" clip-rule="evenodd" d="M6.76 8.836a2.625 2.625 0 01-.824-.87 2.402 2.402 0 01-.282-1.2 2.158 2.158 0 01.508-1.454 3.06 3.06 0 011.326-.886 5.118 5.118 0 011.735-.291 6.77 6.77 0 011.155.088c.273.042.54.112.8.207.238.08.453.218.627.4a.81.81 0 01.194.538.78.78 0 01-.204.561.678.678 0 01-.512.213.922.922 0 01-.38-.085 6.916 6.916 0 00-.906-.331 3.287 3.287 0 00-.873-.109 1.992 1.992 0 00-1.092.28.909.909 0 00-.436.816.821.821 0 00.226.574c.175.182.382.33.61.437.256.127.638.295 1.145.505.056.018.111.04.164.066.496.195.97.44 1.418.728.353.23.651.536.872.896.218.377.327.807.315 1.243a2.5 2.5 0 01-.436 1.5 2.593 2.593 0 01-1.22.905c-.589.21-1.21.311-1.834.299a5.782 5.782 0 01-2.5-.473 1.36 1.36 0 01-.515-.4.9.9 0 01-.168-.545.712.712 0 01.22-.555.812.812 0 01.568-.2c.231.004.458.062.662.171.254.127.454.222.6.286a3.032 3.032 0 001.185.232 1.77 1.77 0 001.119-.298.987.987 0 00.377-.817.868.868 0 00-.236-.597 2.512 2.512 0 00-.695-.505 16.517 16.517 0 00-1.293-.59 8.007 8.007 0 01-1.42-.739z" fill="#fff"/><path opacity=".1" fill-rule="evenodd" clip-rule="evenodd" d="M6.85.263a5.095 5.095 0 00-.698-.18 9.387 9.387 0 00-6.07 6.07c.044.237.104.47.18.698.064.207.145.408.242.601A8.621 8.621 0 017.452.504 3.956 3.956 0 006.85.263z" fill="#000"/><path opacity=".1" fill-rule="evenodd" clip-rule="evenodd" d="M6.851.263A9.007 9.007 0 00.262 6.85c.064.207.145.408.241.601A8.621 8.621 0 017.452.504a3.956 3.956 0 00-.6-.241zM17.738 11.15a3.963 3.963 0 00-.242-.602 8.621 8.621 0 01-6.948 6.948c.194.097.395.177.601.241.229.077.462.137.698.18a9.386 9.386 0 006.07-6.07 5.097 5.097 0 00-.18-.698z" fill="#000"/><path opacity=".1" fill-rule="evenodd" clip-rule="evenodd" d="M17.496 10.548a8.621 8.621 0 01-6.948 6.948c.194.097.395.177.601.241a9.007 9.007 0 006.589-6.588 3.951 3.951 0 00-.242-.601z" fill="#000"/></svg>