<svg width="18" height="18" fill="none" xmlns="http://www.w3.org/2000/svg"><path d="M0 9a9 9 0 1118 0A9 9 0 110 9z" fill="#3FA4F1"/><path d="M8.73 7.315l.02.312-.316-.039c-1.145-.146-2.146-.642-2.996-1.474l-.416-.413-.107.305c-.226.68-.081 1.398.39 1.881.253.267.196.305-.238.147-.152-.051-.284-.09-.297-.07-.043.044.108.622.227.851.164.318.498.63.863.814l.308.146-.365.006c-.352 0-.365.006-.327.14.126.413.623.852 1.177 1.043l.39.133-.34.203a3.544 3.544 0 01-1.687.47c-.283.007-.516.032-.516.052 0 .063.768.419 1.215.559 1.341.413 2.934.235 4.13-.47.85-.503 1.7-1.5 2.096-2.467.214-.515.428-1.455.428-1.906 0-.293.019-.33.371-.68.208-.204.403-.426.441-.49.063-.12.057-.12-.264-.013-.535.191-.611.166-.346-.12.195-.204.428-.572.428-.68 0-.019-.095.013-.202.07a3.51 3.51 0 01-.554.216l-.34.108-.308-.21a2.543 2.543 0 00-.535-.28c-.322-.089-.812-.076-1.102.026-.787.286-1.284 1.023-1.228 1.83z" fill="#fff"/></svg>