<svg width="70" height="470" fill="none" xmlns="http://www.w3.org/2000/svg"><circle r="5" transform="matrix(-1 0 0 1 65 125)" fill="#41EAD4"/><circle r="5" transform="matrix(-1 0 0 1 45 125)" fill="#41EAD4"/><circle r="5" transform="matrix(-1 0 0 1 25 125)" fill="#41EAD4"/><circle r="5" transform="matrix(-1 0 0 1 5 125)" fill="#41EAD4"/><circle r="5" transform="matrix(-1 0 0 1 65 145)" fill="#41EAD4"/><circle r="5" transform="matrix(-1 0 0 1 45 145)" fill="#41EAD4"/><circle r="5" transform="matrix(-1 0 0 1 25 145)" fill="#41EAD4"/><circle r="5" transform="matrix(-1 0 0 1 5 145)" fill="#41EAD4"/><circle r="5" transform="matrix(-1 0 0 1 65 165)" fill="#41EAD4"/><circle r="5" transform="matrix(-1 0 0 1 45 165)" fill="#41EAD4"/><circle r="5" transform="matrix(-1 0 0 1 25 165)" fill="#41EAD4"/><circle r="5" transform="matrix(-1 0 0 1 5 165)" fill="#41EAD4"/><circle r="5" transform="matrix(-1 0 0 1 65 185)" fill="#41EAD4"/><circle r="5" transform="matrix(-1 0 0 1 45 185)" fill="#41EAD4"/><circle r="5" transform="matrix(-1 0 0 1 25 185)" fill="#41EAD4"/><circle r="5" transform="matrix(-1 0 0 1 5 185)" fill="#41EAD4"/><circle r="5" transform="matrix(-1 0 0 1 65 205)" fill="#41EAD4"/><circle r="5" transform="matrix(-1 0 0 1 45 205)" fill="#41EAD4"/><circle r="5" transform="matrix(-1 0 0 1 25 205)" fill="#41EAD4"/><circle r="5" transform="matrix(-1 0 0 1 5 205)" fill="#41EAD4"/><circle r="5" transform="matrix(-1 0 0 1 65 225)" fill="#41EAD4"/><circle r="5" transform="matrix(-1 0 0 1 45 225)" fill="#41EAD4"/><circle r="5" transform="matrix(-1 0 0 1 25 225)" fill="#41EAD4"/><circle r="5" transform="matrix(-1 0 0 1 5 225)" fill="#41EAD4"/><circle r="5" transform="matrix(-1 0 0 1 65 5)" fill="#41EAD4"/><circle r="5" transform="matrix(-1 0 0 1 45 5)" fill="#41EAD4"/><circle r="5" transform="matrix(-1 0 0 1 25 5)" fill="#41EAD4"/><circle r="5" transform="matrix(-1 0 0 1 5 5)" fill="#41EAD4"/><circle r="5" transform="matrix(-1 0 0 1 65 25)" fill="#41EAD4"/><circle r="5" transform="matrix(-1 0 0 1 45 25)" fill="#41EAD4"/><circle r="5" transform="matrix(-1 0 0 1 25 25)" fill="#41EAD4"/><circle r="5" transform="matrix(-1 0 0 1 5 25)" fill="#41EAD4"/><circle r="5" transform="matrix(-1 0 0 1 65 45)" fill="#41EAD4"/><circle r="5" transform="matrix(-1 0 0 1 45 45)" fill="#41EAD4"/><circle r="5" transform="matrix(-1 0 0 1 25 45)" fill="#41EAD4"/><circle r="5" transform="matrix(-1 0 0 1 5 45)" fill="#41EAD4"/><circle r="5" transform="matrix(-1 0 0 1 65 65)" fill="#41EAD4"/><circle r="5" transform="matrix(-1 0 0 1 45 65)" fill="#41EAD4"/><circle r="5" transform="matrix(-1 0 0 1 25 65)" fill="#41EAD4"/><circle r="5" transform="matrix(-1 0 0 1 5 65)" fill="#41EAD4"/><circle r="5" transform="matrix(-1 0 0 1 65 85)" fill="#41EAD4"/><circle r="5" transform="matrix(-1 0 0 1 45 85)" fill="#41EAD4"/><circle r="5" transform="matrix(-1 0 0 1 25 85)" fill="#41EAD4"/><circle r="5" transform="matrix(-1 0 0 1 5 85)" fill="#41EAD4"/><circle r="5" transform="matrix(-1 0 0 1 65 105)" fill="#41EAD4"/><circle r="5" transform="matrix(-1 0 0 1 45 105)" fill="#41EAD4"/><circle r="5" transform="matrix(-1 0 0 1 25 105)" fill="#41EAD4"/><circle r="5" transform="matrix(-1 0 0 1 5 105)" fill="#41EAD4"/><circle r="5" transform="matrix(-1 0 0 1 65 245)" fill="#41EAD4"/><circle r="5" transform="matrix(-1 0 0 1 45 245)" fill="#41EAD4"/><circle r="5" transform="matrix(-1 0 0 1 25 245)" fill="#41EAD4"/><circle r="5" transform="matrix(-1 0 0 1 5 245)" fill="#41EAD4"/><circle r="5" transform="matrix(-1 0 0 1 65 265)" fill="#41EAD4"/><circle r="5" transform="matrix(-1 0 0 1 45 265)" fill="#41EAD4"/><circle r="5" transform="matrix(-1 0 0 1 25 265)" fill="#41EAD4"/><circle r="5" transform="matrix(-1 0 0 1 5 265)" fill="#41EAD4"/><circle r="5" transform="matrix(-1 0 0 1 65 285)" fill="#41EAD4"/><circle r="5" transform="matrix(-1 0 0 1 45 285)" fill="#41EAD4"/><circle r="5" transform="matrix(-1 0 0 1 25 285)" fill="#41EAD4"/><circle r="5" transform="matrix(-1 0 0 1 5 285)" fill="#41EAD4"/><circle r="5" transform="matrix(-1 0 0 1 65 305)" fill="#41EAD4"/><circle r="5" transform="matrix(-1 0 0 1 45 305)" fill="#41EAD4"/><circle r="5" transform="matrix(-1 0 0 1 25 305)" fill="#41EAD4"/><circle r="5" transform="matrix(-1 0 0 1 5 305)" fill="#41EAD4"/><circle r="5" transform="matrix(-1 0 0 1 65 325)" fill="#41EAD4"/><circle r="5" transform="matrix(-1 0 0 1 45 325)" fill="#41EAD4"/><circle r="5" transform="matrix(-1 0 0 1 25 325)" fill="#41EAD4"/><circle r="5" transform="matrix(-1 0 0 1 5 325)" fill="#41EAD4"/><circle r="5" transform="matrix(-1 0 0 1 65 345)" fill="#41EAD4"/><circle r="5" transform="matrix(-1 0 0 1 45 345)" fill="#41EAD4"/><circle r="5" transform="matrix(-1 0 0 1 25 345)" fill="#41EAD4"/><circle r="5" transform="matrix(-1 0 0 1 5 345)" fill="#41EAD4"/><circle r="5" transform="matrix(-1 0 0 1 65 365)" fill="#41EAD4"/><circle r="5" transform="matrix(-1 0 0 1 45 365)" fill="#41EAD4"/><circle r="5" transform="matrix(-1 0 0 1 25 365)" fill="#41EAD4"/><circle r="5" transform="matrix(-1 0 0 1 5 365)" fill="#41EAD4"/><circle r="5" transform="matrix(-1 0 0 1 65 385)" fill="#41EAD4"/><circle r="5" transform="matrix(-1 0 0 1 45 385)" fill="#41EAD4"/><circle r="5" transform="matrix(-1 0 0 1 25 385)" fill="#41EAD4"/><circle r="5" transform="matrix(-1 0 0 1 5 385)" fill="#41EAD4"/><circle r="5" transform="matrix(-1 0 0 1 65 405)" fill="#41EAD4"/><circle r="5" transform="matrix(-1 0 0 1 45 405)" fill="#41EAD4"/><circle r="5" transform="matrix(-1 0 0 1 25 405)" fill="#41EAD4"/><circle r="5" transform="matrix(-1 0 0 1 5 405)" fill="#41EAD4"/><circle r="5" transform="matrix(-1 0 0 1 65 425)" fill="#41EAD4"/><circle r="5" transform="matrix(-1 0 0 1 45 425)" fill="#41EAD4"/><circle r="5" transform="matrix(-1 0 0 1 25 425)" fill="#41EAD4"/><circle r="5" transform="matrix(-1 0 0 1 5 425)" fill="#41EAD4"/><circle r="5" transform="matrix(-1 0 0 1 65 445)" fill="#41EAD4"/><circle r="5" transform="matrix(-1 0 0 1 45 445)" fill="#41EAD4"/><circle r="5" transform="matrix(-1 0 0 1 25 445)" fill="#41EAD4"/><circle r="5" transform="matrix(-1 0 0 1 5 445)" fill="#41EAD4"/><circle r="5" transform="matrix(-1 0 0 1 65 465)" fill="#41EAD4"/><circle r="5" transform="matrix(-1 0 0 1 45 465)" fill="#41EAD4"/><circle r="5" transform="matrix(-1 0 0 1 25 465)" fill="#41EAD4"/><circle r="5" transform="matrix(-1 0 0 1 5 465)" fill="#41EAD4"/></svg>