<svg width="24" height="24" fill="none" xmlns="http://www.w3.org/2000/svg"><path opacity=".3" fill-rule="evenodd" clip-rule="evenodd" d="M14 11.472a5.98 5.98 0 003 1.445V20.5a1.5 1.5 0 01-3 0v-9.028zm-7 1.445a5.98 5.98 0 003-1.445V20.5a1.5 1.5 0 01-3 0v-7.583z" fill="#99EFD0"/><path fill-rule="evenodd" clip-rule="evenodd" d="M18 12a5 5 0 100-10 5 5 0 000 10zm-4-4.75a.75.75 0 01.75-.75h.5a.75.75 0 010 1.5h-.5a.75.75 0 01-.75-.75zM21 5a1 1 0 00-1 1v2a1 1 0 102 0V6a1 1 0 00-1-1zM6 12A5 5 0 106 2a5 5 0 000 10zm2-4.75a.75.75 0 01.75-.75h.5a.75.75 0 010 1.5h-.5A.75.75 0 018 7.25zM3 5a1 1 0 00-1 1v2a1 1 0 002 0V6a1 1 0 00-1-1z" fill="#99EFD0"/></svg>