<svg width="24" height="24" fill="none" xmlns="http://www.w3.org/2000/svg"><path opacity=".3" fill-rule="evenodd" clip-rule="evenodd" d="M4.222 14.121a2 2 0 000 2.829l2.828 2.828a2 2 0 002.829 0l2.828-2.828a2 2 0 000-2.829L12 13.414l-2.121 2.122a1 1 0 01-1.415-1.415L10.586 12l-.707-.707a2 2 0 00-2.829 0L4.222 14.12z" fill="#99EFD0"/><path fill-rule="evenodd" clip-rule="evenodd" d="M11.293 7.05a2 2 0 000 2.829l.707.707 2.121-2.122a1 1 0 111.415 1.415L13.414 12l.707.707a2 2 0 002.829 0l2.828-2.828a2 2 0 000-2.829L16.95 4.222a2 2 0 00-2.829 0L11.293 7.05z" fill="#99EFD0"/></svg>