<svg width="24" height="24" fill="none" xmlns="http://www.w3.org/2000/svg"><path opacity=".3" fill-rule="evenodd" clip-rule="evenodd" d="M7.256 18.93L5.98 20.467A10.977 10.977 0 012 12a10.98 10.98 0 013.969-8.46l1.279 1.538A8.978 8.978 0 004 12a8.978 8.978 0 003.256 6.93zm9.488 0l1.277 1.538A10.977 10.977 0 0022 12a10.98 10.98 0 00-3.969-8.46l-1.279 1.538A8.977 8.977 0 0120 12a8.978 8.978 0 01-3.256 6.93zm-2.566-3.07l1.273 1.543A6.986 6.986 0 0018 12c0-2.11-.94-4.07-2.534-5.39L14.19 8.15A4.987 4.987 0 0116 12a4.987 4.987 0 01-1.822 3.86zM8.55 17.403l1.273-1.543A4.987 4.987 0 018 12c0-1.509.671-2.906 1.81-3.85L8.535 6.61A6.986 6.986 0 006 12c0 2.117.947 4.082 2.55 5.403z" fill="#99EFD0"/><path fill-rule="evenodd" clip-rule="evenodd" d="M12 14a2 2 0 100-4 2 2 0 000 4z" fill="#99EFD0"/></svg>