<svg width="33" height="32" fill="none" xmlns="http://www.w3.org/2000/svg"><path fill-rule="evenodd" clip-rule="evenodd" d="M3.043 7c0-.572.484-1.034 1.082-1.034h24.75c.598 0 1.082.462 1.082 1.033v16.469a1.95 1.95 0 01-.625 1.422 2.18 2.18 0 01-1.488.58H5.156c-.555 0-1.09-.207-1.488-.58a1.95 1.95 0 01-.625-1.422V6.999zm2.164 1.032v15.371h22.586V8.033H5.207z" fill="#868695"/><path fill-rule="evenodd" clip-rule="evenodd" d="M3.321 6.307a1.118 1.118 0 011.528-.075L16.5 16.264 28.15 6.232a1.118 1.118 0 011.529.075c.4.424.364 1.077-.08 1.46L17.224 18.423a1.12 1.12 0 01-1.449 0L3.4 7.767a1.001 1.001 0 01-.079-1.46z" fill="#868695"/></svg>